<svg width="80" height="80" viewBox="0 0 80 80" fill="none" xmlns="http://www.w3.org/2000/svg">
<g clip-path="url(#clip0_17025_8551)">
<mask id="mask0_17025_8551" style="mask-type:luminance" maskUnits="userSpaceOnUse" x="0" y="0" width="80" height="80">
<path d="M79 79V1H1V79H79Z" fill="white" stroke="white" stroke-width="2"/>
</mask>
<g mask="url(#mask0_17025_8551)">
<path d="M10.6108 14.4778L9.51906 15.5697C8.62422 16.4645 8.5075 17.875 9.24297 18.9047L11.0155 21.3863C11.3133 21.8033 11.3372 22.3569 11.0748 22.7972C9.43937 25.5409 8.18297 28.5367 7.37844 31.7128C7.25281 32.2091 6.84422 32.5833 6.33891 32.6675L3.33484 33.1681C2.08656 33.3761 1.17188 34.4559 1.17188 35.7214V44.2786C1.17188 45.5439 2.08656 46.6238 3.33484 46.8317L6.33891 47.3327C6.84422 47.4167 7.25281 47.7908 7.37844 48.2872C8.18297 51.4633 9.43937 54.4591 11.0748 57.2028C11.3372 57.6431 11.3133 58.1967 11.0155 58.6139L9.24297 61.0953C8.5075 62.1248 8.62422 63.5355 9.51906 64.4302L15.5697 70.4809C16.4645 71.3756 17.875 71.4925 18.9047 70.757L21.3861 68.9845C21.8033 68.6867 22.3569 68.6627 22.7972 68.9252C25.5409 70.5606 28.5367 71.817 31.7128 72.6214C32.2091 72.7472 32.5833 73.1558 32.6673 73.6609L33.1681 76.6652C33.3761 77.9133 34.4559 78.8281 35.7214 78.8281H44.2786C45.5439 78.8281 46.6237 77.9133 46.8317 76.6652L47.3327 73.6609C47.4167 73.1558 47.7908 72.7472 48.2872 72.6214C51.4633 71.817 54.4591 70.5606 57.2026 68.9252C57.6431 68.6627 58.1967 68.6867 58.6139 68.9845L61.0953 70.757C62.1248 71.4925 63.5355 71.3756 64.4301 70.4809L70.4809 64.4302C71.3758 63.5355 71.4925 62.1248 70.757 61.0953L68.9845 58.6139C68.6867 58.1967 68.6627 57.6431 68.9252 57.2028C70.5606 54.4591 71.817 51.4633 72.6214 48.2872C72.7472 47.7908 73.1558 47.4167 73.6609 47.3327L76.6651 46.8317C77.9133 46.6238 78.8281 45.5439 78.8281 44.2786V35.7214C78.8281 34.4559 77.9133 33.3761 76.6651 33.1681L73.6609 32.6675C73.1558 32.5833 72.7472 32.2091 72.6214 31.7128C71.817 28.5367 70.5606 25.5409 68.9252 22.7972C68.6627 22.3569 68.6867 21.8033 68.9845 21.3863L70.757 18.9047C71.4925 17.875 71.3758 16.4645 70.4809 15.5697L64.4301 9.51907C63.5355 8.62422 62.1248 8.50751 61.0953 9.24298L58.6139 11.0155C58.1967 11.3134 57.6431 11.3372 57.2026 11.0748C54.4591 9.43938 51.4633 8.18297 48.2872 7.37844C47.7908 7.25282 47.4167 6.84422 47.3327 6.33907L46.8317 3.33485C46.6237 2.08657 45.5439 1.17188 44.2786 1.17188H35.7214C34.4559 1.17188 33.3761 2.08657 33.1681 3.33485L32.6673 6.33907C32.5833 6.84422 32.2091 7.25282 31.7128 7.37844C28.5367 8.18297 25.5409 9.43938 22.7972 11.0748C22.3569 11.3372 21.8033 11.3134 21.3861 11.0155L18.9047 9.24298C17.875 8.50751 16.4645 8.62422 15.5697 9.51907L14.4778 10.6109" stroke="#6AC1EF" stroke-width="2" stroke-miterlimit="10" stroke-linecap="round" stroke-linejoin="round"/>
<path d="M18.0282 58.112C13.9661 53.1901 11.5261 46.88 11.5261 40C11.5261 24.2742 24.2744 11.5261 40 11.5261C55.7258 11.5261 68.4741 24.2742 68.4741 40C68.4741 55.7258 55.7258 68.4739 40 68.4739C33.1183 68.4739 26.8069 66.0326 21.8844 61.9689" stroke="#6AC1EF" stroke-width="2" stroke-miterlimit="10" stroke-linecap="round" stroke-linejoin="round"/>
<path d="M44.5758 39.0847L48.2366 42.7455C48.7419 43.251 49.5614 43.251 50.0671 42.7455C51.0777 41.7346 52.7169 41.7346 53.7277 42.7455L59.5671 48.5851C60.2605 49.2783 60.5027 50.3038 60.1925 51.234L59.5303 53.2207C59.2261 54.1335 58.0677 54.4071 57.3872 53.7266L55.1004 51.4397C54.7538 51.0932 54.241 50.9721 53.776 51.1271L52.4033 51.5847C52.0168 51.7135 51.7135 52.0169 51.5846 52.4033L51.1271 53.776C50.9721 54.2411 51.093 54.7538 51.4397 55.1005L53.7264 57.3874C54.4069 58.0677 54.1333 59.2261 53.2205 59.5305L51.2338 60.1927C50.3036 60.5027 49.2783 60.2605 48.5849 59.5672L42.7454 53.7279C41.7344 52.7169 41.7344 51.0779 42.7454 50.0671C43.251 49.5618 43.251 48.7421 42.7454 48.2366L40.915 46.4061" stroke="#6AC1EF" stroke-width="2" stroke-miterlimit="10" stroke-linecap="round" stroke-linejoin="round"/>
<path d="M33.5937 39.0847L31.7632 37.2544C31.2579 36.7489 30.4384 36.7489 29.9327 37.2544C28.922 38.2653 27.2829 38.2653 26.2721 37.2544L20.4326 31.4149C19.7393 30.7216 19.4971 29.6961 19.8073 28.766L20.4695 26.7792C20.7737 25.8664 21.9321 25.5928 22.6126 26.2733L24.8993 28.5602C25.246 28.9067 25.7587 29.0278 26.2238 28.8728L27.5965 28.4152C27.9831 28.2864 28.2863 27.983 28.4151 27.5966L28.8727 26.2238C29.0277 25.7588 28.9068 25.2461 28.5601 24.8994L26.2732 22.6125C25.5931 21.9322 25.8665 20.7738 26.7793 20.4694L28.766 19.8072C29.6962 19.4974 30.7215 19.7392 31.4149 20.4327L37.2545 26.2722C38.2652 27.283 38.2652 28.9221 37.2545 29.9328C36.7488 30.4383 36.7488 31.2578 37.2545 31.7633L40.9151 35.4239" stroke="#6AC1EF" stroke-width="2" stroke-miterlimit="10" stroke-linecap="round" stroke-linejoin="round"/>
<path d="M36.3391 40L52.0779 24.2612C52.4391 23.9 52.8993 23.6536 53.4005 23.5534L55.3043 23.1726C56.2099 22.9914 57.0083 23.79 56.8272 24.6956L56.4465 26.5992C56.3463 27.1005 56.0999 27.5608 55.7385 27.922L39.9999 43.6608L36.3391 40Z" stroke="#6AC1EF" stroke-width="2" stroke-miterlimit="10" stroke-linecap="round" stroke-linejoin="round"/>
<path d="M31.7321 40.9464L33.625 39.0534C34.1132 38.5653 34.9047 38.5653 35.3928 39.0534L40.9466 44.6072C41.4347 45.0953 41.4347 45.8867 40.9466 46.3748L39.0535 48.2678C38.5653 48.7559 37.7739 48.7559 37.2858 48.2678L31.7321 42.7141C31.2439 42.2259 31.2439 41.4345 31.7321 40.9464Z" stroke="#6AC1EF" stroke-width="2" stroke-miterlimit="10" stroke-linecap="round" stroke-linejoin="round"/>
<path d="M22.5488 51.9599L31.7634 42.7454L37.2545 48.2366L28.0401 57.4512C27.0637 58.4274 25.4807 58.4274 24.5045 57.4512L22.5488 55.4955C21.5726 54.5193 21.5726 52.9363 22.5488 51.9599Z" stroke="#6AC1EF" stroke-width="2" stroke-miterlimit="10" stroke-linecap="round" stroke-linejoin="round"/>
<path d="M29.0178 45.4912L34.5089 50.9823" stroke="#6AC1EF" stroke-width="2" stroke-miterlimit="10" stroke-linecap="round" stroke-linejoin="round"/>
</g>
</g>
<defs>
<clipPath id="clip0_17025_8551">
<rect width="80" height="80" fill="white"/>
</clipPath>
</defs>
</svg>
