<svg width="80" height="81" viewBox="0 0 80 81" fill="none" xmlns="http://www.w3.org/2000/svg">
<mask id="mask0_17025_9328" style="mask-type:luminance" maskUnits="userSpaceOnUse" x="0" y="-1" width="81" height="81">
<path d="M0.000244141 -0.0389328H80.0002V79.9611H0.000244141V-0.0389328Z" fill="white"/>
</mask>
<g mask="url(#mask0_17025_9328)">
<path d="M47.0144 30.4614V19.1486C47.0144 17.4419 48.3983 16.0594 50.1036 16.0594C51.8105 16.0594 53.1928 17.4419 53.1928 19.1486V27.3722" stroke="#7CC1E5" stroke-width="2" stroke-miterlimit="10" stroke-linecap="round" stroke-linejoin="round"/>
<path d="M57.2224 33.5515H50.104C48.3977 33.5515 47.0148 32.1684 47.0148 30.4623C47.0148 28.756 48.3977 27.3731 50.104 27.3731H57.2224C58.9285 27.3731 60.3116 28.756 60.3116 30.4623C60.3116 32.1684 58.9285 33.5515 57.2224 33.5515Z" stroke="#7CC1E5" stroke-width="2" stroke-miterlimit="10" stroke-linecap="round" stroke-linejoin="round"/>
<path d="M28.0167 30.4623H31.7705" stroke="#7CC1E5" stroke-width="2" stroke-miterlimit="10" stroke-linecap="round" stroke-linejoin="round"/>
<path d="M68.4374 30.4623H72.1911" stroke="#7CC1E5" stroke-width="2" stroke-miterlimit="10" stroke-linecap="round" stroke-linejoin="round"/>
<path d="M50.1041 8.37491V12.1287" stroke="#7CC1E5" stroke-width="2" stroke-miterlimit="10" stroke-linecap="round" stroke-linejoin="round"/>
<path d="M50.1041 48.7957V52.5494" stroke="#7CC1E5" stroke-width="2" stroke-miterlimit="10" stroke-linecap="round" stroke-linejoin="round"/>
<path d="M41.285 57.8071C40.6193 57.5924 39.9645 57.3545 39.3221 57.0932" stroke="#7CC1E5" stroke-width="2" stroke-miterlimit="10" stroke-linecap="round" stroke-linejoin="round"/>
<path d="M21.5712 33.8003C21.4451 32.7055 21.3798 31.5917 21.3798 30.4627C21.3798 14.5981 34.2394 1.73703 50.1038 1.73703C65.9684 1.73703 78.8279 14.5981 78.8279 30.4627C78.8279 45.9833 66.5159 58.6313 51.1241 59.168" stroke="#7CC1E5" stroke-width="2" stroke-miterlimit="10" stroke-linecap="round" stroke-linejoin="round"/>
<path d="M28.1957 33.2892C28.0769 32.3626 28.016 31.4189 28.016 30.4626C28.016 18.2642 37.9051 8.37512 50.1035 8.37512C53.8988 8.37512 57.4722 9.33293 60.591 11.0189" stroke="#7CC1E5" stroke-width="2" stroke-miterlimit="10" stroke-linecap="round" stroke-linejoin="round"/>
<path d="M64.4348 13.655C69.1817 17.7065 72.1911 23.7331 72.1911 30.4628C72.1911 42.6612 62.302 52.5503 50.1036 52.5503C41.4364 52.5503 33.9348 47.5581 30.3192 40.2894" stroke="#7CC1E5" stroke-width="2" stroke-miterlimit="10" stroke-linecap="round" stroke-linejoin="round"/>
<path d="M12.2144 78.1846H5.97224C4.64724 78.1846 3.44724 77.6471 2.57849 76.7799C1.7113 75.9096 1.17224 74.7111 1.17224 73.3846C1.17224 70.7314 3.32224 68.583 5.97224 68.583V61.4939C5.97224 53.1174 12.7613 46.3283 21.1363 46.3283H22.9722H24.8082C31.6519 46.3283 37.4379 50.8627 39.3222 57.0939C39.3941 57.3283 39.4597 57.5658 39.5176 57.8064" stroke="#7CC1E5" stroke-width="2" stroke-miterlimit="10" stroke-linecap="round" stroke-linejoin="round"/>
<path d="M39.9706 78.1846H16.9019" stroke="#7CC1E5" stroke-width="2" stroke-miterlimit="10" stroke-linecap="round" stroke-linejoin="round"/>
<path d="M26.8519 32.9782C24.7224 32.9024 22.9722 34.6062 22.9722 36.7188C22.9722 34.6063 21.2221 32.9026 19.0927 32.9782C17.0642 33.0502 15.486 34.7788 15.486 36.8085V38.8433C15.486 42.9779 18.8377 46.3296 22.9722 46.3296C27.1067 46.3296 30.4585 42.9779 30.4585 38.8433V36.8087C30.4585 34.779 28.8802 33.0504 26.8519 32.9782Z" stroke="#7CC1E5" stroke-width="2" stroke-miterlimit="10" stroke-linecap="round" stroke-linejoin="round"/>
<path d="M48.4037 78.1844H42.9928H33.8985C32.9607 78.1844 32.1115 77.8049 31.4971 77.189C30.8812 76.5746 30.5018 75.7254 30.5018 74.7876C30.5018 72.9118 32.0229 71.3923 33.8985 71.3923H42.9928H48.4037" stroke="#7CC1E5" stroke-width="2" stroke-miterlimit="10" stroke-linecap="round" stroke-linejoin="round"/>
<path d="M48.4037 71.3923H42.9928H33.8985C32.9607 71.3923 32.1115 71.0112 31.4971 70.3969C30.8812 69.7825 30.5018 68.9333 30.5018 67.9955C30.5018 66.1197 32.0229 64.5986 33.8985 64.5986H42.9928H48.4037" stroke="#7CC1E5" stroke-width="2" stroke-miterlimit="10" stroke-linecap="round" stroke-linejoin="round"/>
<path d="M57.4979 71.3918H42.9921C41.1163 71.3918 39.5957 72.9123 39.5957 74.788C39.5957 76.6638 41.1163 78.1844 42.9921 78.1844H57.4979C59.3737 78.1844 60.8943 76.6638 60.8943 74.788C60.8943 72.9123 59.3737 71.3918 57.4979 71.3918Z" stroke="#7CC1E5" stroke-width="2" stroke-miterlimit="10" stroke-linecap="round" stroke-linejoin="round"/>
<path d="M57.4979 64.599H42.9921C41.1163 64.599 39.5957 66.1197 39.5957 67.9954C39.5957 69.8712 41.1163 71.3918 42.9921 71.3918H57.4979C59.3737 71.3918 60.8943 69.8712 60.8943 67.9954C60.8943 66.1197 59.3737 64.599 57.4979 64.599Z" stroke="#7CC1E5" stroke-width="2" stroke-miterlimit="10" stroke-linecap="round" stroke-linejoin="round"/>
<path d="M48.404 57.8063H33.8981C32.0223 57.8063 30.5018 59.327 30.5018 61.2026C30.5018 63.0782 32.0223 64.599 33.8981 64.599H48.404C50.2798 64.599 51.8004 63.0784 51.8004 61.2027C51.8004 59.3271 50.2798 57.8063 48.404 57.8063Z" stroke="#7CC1E5" stroke-width="2" stroke-miterlimit="10" stroke-linecap="round" stroke-linejoin="round"/>
<path d="M22.9861 57.1123L16.0824 71.3121" stroke="#7CC1E5" stroke-width="2" stroke-miterlimit="10" stroke-linecap="round" stroke-linejoin="round"/>
<path d="M17.8111 59.5103C17.8111 61.2002 16.4454 62.5702 14.7607 62.5702C13.076 62.5702 11.7102 61.2002 11.7102 59.5103C11.7102 57.8203 13.076 56.4505 14.7607 56.4505C16.4454 56.4505 17.8111 57.8203 17.8111 59.5103Z" stroke="#7CC1E5" stroke-width="2" stroke-miterlimit="10" stroke-linecap="round" stroke-linejoin="round"/>
<path d="M27.1349 69.2191C27.1349 70.9089 25.7691 72.2789 24.0844 72.2789C22.3997 72.2789 21.0339 70.9089 21.0339 69.2191C21.0339 67.5291 22.3997 66.1592 24.0844 66.1592C25.7691 66.1592 27.1349 67.5291 27.1349 69.2191Z" stroke="#7CC1E5" stroke-width="2" stroke-miterlimit="10" stroke-linecap="round" stroke-linejoin="round"/>
</g>
</svg>
