<svg width="80" height="80" viewBox="0 0 80 80" fill="none" xmlns="http://www.w3.org/2000/svg">
<g clip-path="url(#clip0_17025_8115)">
<path d="M43.3547 29.4794V34.2548" stroke="#6AC1EF" stroke-width="2" stroke-miterlimit="10" stroke-linecap="round" stroke-linejoin="round"/>
<path d="M10.4772 34.2548V29.4794" stroke="#6AC1EF" stroke-width="2" stroke-miterlimit="10" stroke-linecap="round" stroke-linejoin="round"/>
<path d="M70.5909 72.0326H77.6584C78.3043 72.0326 78.8281 71.509 78.8281 70.8629V56.709C78.8281 56.063 78.3045 55.5393 77.6584 55.5393H70.9428C70.4578 55.5393 70.0267 55.2301 69.8712 54.7707L65.8353 42.8452C65.6012 42.1537 64.9525 41.6884 64.2225 41.6884H48.9281V72.0324H57.5176" stroke="#6AC1EF" stroke-width="2" stroke-miterlimit="10" stroke-linecap="round" stroke-linejoin="round"/>
<path d="M63.936 78.781C67.3576 78.781 70.1314 76.0073 70.1314 72.5857C70.1314 69.1641 67.3576 66.3904 63.936 66.3904C60.5145 66.3904 57.7407 69.1641 57.7407 72.5857C57.7407 76.0073 60.5145 78.781 63.936 78.781Z" stroke="#6AC1EF" stroke-width="2" stroke-miterlimit="10" stroke-linecap="round" stroke-linejoin="round"/>
<path d="M25.9866 72.0326H32.8055" stroke="#6AC1EF" stroke-width="2" stroke-miterlimit="10" stroke-linecap="round" stroke-linejoin="round"/>
<path d="M14.9703 67.8043H1.17188V72.0326H13.0078" stroke="#6AC1EF" stroke-width="2" stroke-miterlimit="10" stroke-linecap="round" stroke-linejoin="round"/>
<path d="M37.3367 72.0326H48.9281V67.8043H23.6099" stroke="#6AC1EF" stroke-width="2" stroke-miterlimit="10" stroke-linecap="round" stroke-linejoin="round"/>
<path d="M48.9281 67.8044V34.61H5.68262V67.8044" stroke="#6AC1EF" stroke-width="2" stroke-miterlimit="10" stroke-linecap="round" stroke-linejoin="round"/>
<path d="M19.3807 78.781C22.8023 78.781 25.576 76.0073 25.576 72.5857C25.576 69.1641 22.8023 66.3904 19.3807 66.3904C15.9592 66.3904 13.1854 69.1641 13.1854 72.5857C13.1854 76.0073 15.9592 78.781 19.3807 78.781Z" stroke="#6AC1EF" stroke-width="2" stroke-miterlimit="10" stroke-linecap="round" stroke-linejoin="round"/>
<path d="M29.376 41.5337H25.2346C24.4664 41.5337 23.8434 40.9109 23.8434 40.1425V34.61H30.7671V40.1425C30.7671 40.9109 30.1443 41.5337 29.376 41.5337Z" stroke="#6AC1EF" stroke-width="2" stroke-miterlimit="10" stroke-linecap="round" stroke-linejoin="round"/>
<path d="M26.2397 60.5589H12.2185C11.6299 60.5589 11.1528 60.0818 11.1528 59.4932V55.8637C11.1528 55.2751 11.6299 54.7981 12.2185 54.7981H26.2397C26.8283 54.7981 27.3053 55.2751 27.3053 55.8637V59.4932C27.3053 60.0818 26.8283 60.5589 26.2397 60.5589Z" stroke="#6AC1EF" stroke-width="2" stroke-miterlimit="10" stroke-linecap="round" stroke-linejoin="round"/>
<path d="M31.6919 45.4644H43.3547" stroke="#6AC1EF" stroke-width="2" stroke-miterlimit="10" stroke-linecap="round" stroke-linejoin="round"/>
<path d="M78.8077 62.7607H75.0405" stroke="#6AC1EF" stroke-width="2" stroke-miterlimit="10" stroke-linecap="round" stroke-linejoin="round"/>
<path d="M57.7407 58.6323H59.2326" stroke="#6AC1EF" stroke-width="2" stroke-miterlimit="10" stroke-linecap="round" stroke-linejoin="round"/>
<path d="M55.8433 41.6886V51.4538C55.8433 52.2773 56.5109 52.9448 57.3344 52.9448H60.2959" stroke="#6AC1EF" stroke-width="2" stroke-miterlimit="10" stroke-linecap="round" stroke-linejoin="round"/>
<path d="M64.8271 52.9449H69.2534" stroke="#6AC1EF" stroke-width="2" stroke-miterlimit="10" stroke-linecap="round" stroke-linejoin="round"/>
<path d="M8.50375 72.0326V75.5588H1.17188" stroke="#6AC1EF" stroke-width="2" stroke-miterlimit="10" stroke-linecap="round" stroke-linejoin="round"/>
<path d="M43.2983 13.0726H2.39328C1.71875 13.0726 1.17188 13.6195 1.17188 14.294V27.849C1.17188 28.5236 1.71875 29.0703 2.39328 29.0703H51.3823C52.0569 29.0703 52.6036 28.5234 52.6036 27.849V21.2506" stroke="#6AC1EF" stroke-width="2" stroke-miterlimit="10" stroke-linecap="round" stroke-linejoin="round"/>
<path d="M17.5311 17.16H14.3605V24.9832" stroke="#6AC1EF" stroke-width="2" stroke-miterlimit="10" stroke-linecap="round" stroke-linejoin="round"/>
<path d="M14.3605 20.9974H17.2792" stroke="#6AC1EF" stroke-width="2" stroke-miterlimit="10" stroke-linecap="round" stroke-linejoin="round"/>
<path d="M32.2138 17.167H28.9235V24.9759H32.2138" stroke="#6AC1EF" stroke-width="2" stroke-miterlimit="10" stroke-linecap="round" stroke-linejoin="round"/>
<path d="M31.9713 21.0715H28.9235" stroke="#6AC1EF" stroke-width="2" stroke-miterlimit="10" stroke-linecap="round" stroke-linejoin="round"/>
<path d="M39.4149 17.167H36.1246V24.9759H39.4149" stroke="#6AC1EF" stroke-width="2" stroke-miterlimit="10" stroke-linecap="round" stroke-linejoin="round"/>
<path d="M39.1723 21.0715H36.1246" stroke="#6AC1EF" stroke-width="2" stroke-miterlimit="10" stroke-linecap="round" stroke-linejoin="round"/>
<path d="M21.9048 21.2506L25.2153 25.0119" stroke="#6AC1EF" stroke-width="2" stroke-miterlimit="10" stroke-linecap="round" stroke-linejoin="round"/>
<path d="M20.9543 17.1311V25.0119" stroke="#6AC1EF" stroke-width="2" stroke-miterlimit="10" stroke-linecap="round" stroke-linejoin="round"/>
<path d="M25.2153 19.1792C25.2153 20.3103 24.2234 21.2274 23.0512 21.2274C22.4698 21.2274 20.9716 21.2364 20.9716 21.2364C20.9716 21.2364 20.9622 19.7494 20.9622 19.1792C20.9622 18.7109 20.957 17.1311 20.957 17.1311C20.957 17.1311 22.3644 17.1311 23.0512 17.1311C24.2234 17.1311 25.2153 18.0481 25.2153 19.1792Z" stroke="#6AC1EF" stroke-width="2" stroke-miterlimit="10" stroke-linecap="round" stroke-linejoin="round"/>
<path d="M49.6683 11.184L52.2079 13.7658L57.0904 8.45044" stroke="#6AC1EF" stroke-width="2" stroke-miterlimit="10" stroke-linecap="round" stroke-linejoin="round"/>
<path d="M44.6704 6.42012C43.9178 7.81528 43.4901 9.41168 43.4901 11.1081C43.4901 16.5698 47.9178 20.9973 53.3793 20.9973C58.8409 20.9973 63.2686 16.5698 63.2686 11.1081C63.2686 5.64637 58.8409 1.21887 53.3793 1.21887C51.2554 1.21887 49.2898 1.89059 47.6782 3.03012" stroke="#6AC1EF" stroke-width="2" stroke-miterlimit="10" stroke-linecap="round" stroke-linejoin="round"/>
</g>
<defs>
<clipPath id="clip0_17025_8115">
<rect width="80" height="80" fill="white"/>
</clipPath>
</defs>
</svg>
