<svg width="177" height="46" viewBox="0 0 177 46" fill="none" xmlns="http://www.w3.org/2000/svg">
<g clip-path="url(#clip0_13271_23082)">
<path d="M23.5531 44.1219C12.3065 42.3476 4.41616 31.7606 5.88824 20.464C7.36031 9.10815 17.6648 1.36018 28.9115 3.13452C32.9155 3.78512 36.5074 5.50032 39.3927 8.04354C35.9186 4.08084 31.149 1.30103 25.6729 0.473003C13.3075 -1.47878 2.00196 7.09723 0.353236 19.5176C-1.23661 31.9972 7.4192 43.6488 19.7846 45.5414C24.9663 46.3694 30.0303 45.3048 34.211 42.8799C30.9724 44.2402 27.3217 44.7134 23.5531 44.1219Z" fill="white"/>
<path d="M39.9815 35.9599C32.3856 41.697 21.4923 39.9818 15.6629 32.1747C9.83343 24.3675 11.2466 13.3666 18.8425 7.68869C21.5512 5.67777 24.672 4.55401 27.8516 4.31743C23.5532 4.02171 19.1369 5.20461 15.3684 7.98441C7.06593 14.3129 5.47609 26.3193 11.8943 34.9545C18.3126 43.5305 30.2658 45.4231 38.6272 39.0946C42.1602 36.4331 44.4566 32.7661 45.4577 28.7443C44.3978 31.5241 42.5135 34.0081 39.9815 35.9599Z" fill="white"/>
<path d="M44.2799 21.2326C43.2789 29.0989 36.0952 34.481 28.2638 33.2981C20.4323 32.1152 14.9562 24.7221 15.9572 16.8559C16.3105 14.0761 17.4882 11.5328 19.1369 9.58105C16.4872 11.9468 14.6618 15.259 14.1907 19.1034C13.072 27.7385 19.1369 35.8414 27.6749 37.2017C36.3307 38.5029 44.1622 32.5293 45.3398 23.8941C45.8109 20.2271 44.9865 16.6784 43.2789 13.7212C44.2211 16.0278 44.6332 18.6302 44.2799 21.2326Z" fill="white"/>
<path d="M67.7743 33.8309C67.1855 34.3041 66.3023 34.6589 65.1835 34.9547C64.0647 35.2504 62.9459 35.4278 61.8271 35.4278C60.414 35.4278 59.0596 35.1912 57.8231 34.6589C56.5866 34.1266 55.5267 33.3578 54.5845 32.3523C53.6424 31.3468 52.9358 30.0456 52.4059 28.567C51.8759 27.0884 51.6404 25.314 51.6404 23.3623C51.6404 21.4105 51.9348 19.577 52.4647 17.9801C52.9947 16.3832 53.7602 15.0228 54.7023 13.9582C55.5855 12.8936 56.7043 12.0065 57.9409 11.415C59.1774 10.8236 60.5317 10.5278 61.9449 10.5278C63.0637 10.5278 64.1236 10.7053 65.1246 11.001C66.1256 11.2967 66.8911 11.6516 67.3033 12.0065L66.1256 13.7808C65.5957 13.4851 65.0657 13.1894 64.418 13.0119C63.7703 12.7753 62.9459 12.7162 61.9449 12.7162C60.8261 12.7162 59.7662 12.9528 58.883 13.3668C57.9409 13.7808 57.1754 14.4314 56.5277 15.3186C55.88 16.2057 55.35 17.2703 54.9967 18.5715C54.6434 19.8727 54.4668 21.3513 54.4668 23.0665C54.4668 24.7817 54.6434 26.3195 54.9378 27.6207C55.2911 28.9219 55.7622 29.9865 56.4099 30.8737C57.0576 31.7608 57.8231 32.4114 58.8241 32.8846C59.7662 33.2986 60.885 33.5352 62.1804 33.5352C63.2403 33.5352 64.1236 33.4169 64.7713 33.1803C65.419 32.9437 66.0667 32.648 66.5967 32.2931L67.7743 33.8309Z" fill="white"/>
<path d="M71.8961 13.8399C71.8961 13.4259 71.8961 12.9527 71.8372 12.5387C71.7783 12.1247 71.7783 11.6515 71.7194 11.0601H74.6636C74.6047 11.3558 74.6047 11.6515 74.6047 11.8881C74.6047 12.1247 74.6047 12.3612 74.5458 12.5387C74.5458 12.7753 74.4869 12.9527 74.4869 13.1893V13.8399V32.8254H81.3173H81.8473C82.0239 32.8254 82.2595 32.8254 82.4361 32.8254C82.6716 32.8254 82.9072 32.7662 83.2016 32.7662C83.4371 32.7662 83.7315 32.7071 84.0848 32.7071L82.8483 35.1912C82.2006 35.132 81.6706 35.132 81.2585 35.132C80.7874 35.132 80.3752 35.132 79.963 35.132H71.6605C71.7194 34.6589 71.7783 34.1857 71.8372 33.7125C71.8961 33.2394 71.8961 32.8254 71.8961 32.4705V13.8399Z" fill="white"/>
<path d="M104.046 33.2394C103.87 32.7071 103.693 32.234 103.575 31.82L96.5092 11.001H93.5062L86.2636 31.82C86.1458 32.1157 86.028 32.4114 85.9691 32.5888C85.8514 32.8254 85.7925 33.062 85.6747 33.3577C85.557 33.5943 85.4392 33.8309 85.3214 34.1266C85.2037 34.4223 85.0859 34.7181 84.9681 35.0138H88.1478C88.2067 34.6589 88.2656 34.3632 88.3245 34.0675C88.3834 33.7717 88.4422 33.476 88.56 33.2394C88.6189 32.9437 88.6778 32.7071 88.7366 32.4114C88.7955 32.1748 88.9133 31.8791 89.0311 31.5242L89.9732 28.3304H99.5711L100.572 31.5242C100.749 32.1748 100.925 32.8254 101.102 33.3577C101.279 33.89 101.396 34.4815 101.514 35.0138H104.871C104.517 34.3632 104.282 33.7717 104.046 33.2394ZM90.7976 26.1421L93.5651 17.5069C93.6239 17.2112 93.7417 16.9155 93.8595 16.5014C93.9772 16.0874 94.095 15.7326 94.2128 15.3186C94.3305 14.9045 94.4483 14.4314 94.6249 14.0174C94.7427 13.6034 94.9194 13.1893 95.0371 12.7753C95.1549 13.4851 95.3904 14.3131 95.6848 15.2594C95.9204 16.2057 96.1559 16.9746 96.3914 17.5661L99.1001 26.2012H90.7976V26.1421Z" fill="white"/>
<path d="M122.418 28.0346C122.418 28.981 122.241 29.9273 121.829 30.8145C121.417 31.7016 120.828 32.4705 120.062 33.1802C119.297 33.89 118.355 34.4223 117.177 34.8363C116.058 35.2503 114.704 35.4869 113.232 35.4869C112.584 35.4869 111.937 35.4278 111.23 35.3686C110.523 35.2503 109.876 35.132 109.228 34.9546C108.58 34.8363 107.933 34.5997 107.344 34.4223C106.755 34.1857 106.225 33.9491 105.813 33.7126L106.814 31.4059C107.344 31.7016 107.815 31.9382 108.345 32.1748C108.875 32.4114 109.405 32.5888 109.935 32.7662C110.465 32.9437 110.994 33.062 111.583 33.1211C112.172 33.1803 112.761 33.2394 113.409 33.2394C114.292 33.2394 115.116 33.1211 115.882 32.9437C116.588 32.7662 117.236 32.4114 117.707 32.0565C118.237 31.7016 118.59 31.2285 118.885 30.637C119.179 30.0456 119.297 29.4541 119.297 28.6852C119.297 28.1529 119.179 27.6798 119.003 27.2066C118.826 26.7335 118.531 26.3194 118.178 25.9054C117.825 25.5506 117.354 25.1957 116.824 24.9C116.294 24.6042 115.646 24.3677 114.998 24.1311L112.349 23.3622C111.407 23.1256 110.582 22.7708 109.876 22.4159C109.169 22.061 108.58 21.5879 108.109 21.1147C107.638 20.6415 107.285 20.1092 107.049 19.5178C106.814 18.9263 106.696 18.2166 106.696 17.4477C106.696 16.5014 106.873 15.6142 107.285 14.7862C107.697 13.9582 108.227 13.2484 108.875 12.5978C109.581 12.0064 110.347 11.4741 111.348 11.1192C112.29 10.7643 113.35 10.5869 114.586 10.5869C115.234 10.5869 115.882 10.6461 116.529 10.7643C117.177 10.8826 117.825 11.0009 118.473 11.1192C119.061 11.2967 119.65 11.5332 120.18 11.7698C120.71 12.0064 121.24 12.243 121.652 12.4796L120.475 14.6088C120.004 14.3722 119.591 14.1356 119.12 13.899C118.649 13.6624 118.237 13.485 117.766 13.3076C117.295 13.1893 116.765 13.071 116.294 13.0119C115.823 12.9527 115.293 12.8936 114.704 12.8936C113.939 12.8936 113.232 13.0119 112.643 13.1893C112.054 13.3667 111.524 13.6624 111.112 13.9582C110.641 14.313 110.347 14.7271 110.111 15.2594C109.876 15.7325 109.758 16.324 109.758 16.9154C109.758 17.5069 109.876 17.98 110.052 18.394C110.229 18.8081 110.523 19.1629 110.877 19.4586C111.171 19.7544 111.583 20.0501 112.054 20.2275C112.525 20.4641 112.996 20.5824 113.526 20.7598L116.765 21.7061C117.707 22.0019 118.531 22.2976 119.238 22.7116C119.945 23.1256 120.534 23.5988 121.063 24.0719C121.535 24.6042 121.888 25.1957 122.123 25.8463C122.3 26.4969 122.418 27.2066 122.418 28.0346Z" fill="white"/>
<path d="M140.495 28.0346C140.495 28.981 140.318 29.9273 139.906 30.8145C139.494 31.7016 138.905 32.4705 138.14 33.1802C137.374 33.89 136.373 34.4223 135.254 34.8363C134.136 35.2503 132.781 35.4869 131.309 35.4869C130.661 35.4869 130.014 35.4278 129.307 35.3686C128.601 35.2503 127.953 35.132 127.305 34.9546C126.657 34.8363 126.01 34.5997 125.421 34.4223C124.832 34.1857 124.302 33.9491 123.89 33.7126L124.891 31.4059C125.421 31.7016 125.892 31.9382 126.422 32.1748C126.952 32.4114 127.482 32.5888 128.012 32.7662C128.542 32.9437 129.072 33.062 129.66 33.1211C130.249 33.1803 130.838 33.2394 131.486 33.2394C132.369 33.2394 133.193 33.1211 133.959 32.9437C134.665 32.7662 135.313 32.4114 135.784 32.0565C136.314 31.7016 136.668 31.2285 136.962 30.637C137.256 30.0456 137.374 29.4541 137.374 28.6852C137.374 28.1529 137.256 27.6798 137.08 27.2066C136.903 26.7335 136.609 26.3194 136.255 25.9054C135.902 25.5506 135.431 25.1957 134.901 24.9C134.371 24.6042 133.723 24.3677 133.017 24.1311L130.367 23.3622C129.425 23.1256 128.601 22.7708 127.894 22.4159C127.187 22.061 126.599 21.5879 126.127 21.1147C125.656 20.6415 125.303 20.1092 125.068 19.5178C124.832 18.9263 124.714 18.2166 124.714 17.4477C124.714 16.5014 124.891 15.6142 125.303 14.7862C125.656 13.9582 126.245 13.2484 126.893 12.5978C127.541 12.0064 128.365 11.4741 129.366 11.1192C130.308 10.7643 131.368 10.5869 132.605 10.5869C133.252 10.5869 133.9 10.6461 134.548 10.7643C135.195 10.8826 135.843 11.0009 136.491 11.1192C137.08 11.2967 137.669 11.5332 138.198 11.7698C138.728 12.0064 139.199 12.243 139.671 12.4796L138.493 14.6088C138.022 14.3722 137.61 14.1356 137.139 13.899C136.668 13.6624 136.255 13.485 135.784 13.3076C135.313 13.1893 134.783 13.071 134.312 13.0119C133.841 12.9527 133.311 12.8936 132.722 12.8936C131.957 12.8936 131.25 13.0119 130.661 13.1893C130.073 13.3667 129.543 13.6624 129.13 13.9582C128.659 14.313 128.365 14.7271 128.129 15.2594C127.894 15.7325 127.776 16.324 127.776 16.9154C127.776 17.5069 127.894 17.98 128.071 18.394C128.247 18.8081 128.542 19.1629 128.895 19.4586C129.189 19.7544 129.602 20.0501 130.073 20.2275C130.544 20.4641 131.015 20.5824 131.545 20.7598L134.783 21.7061C135.725 22.0019 136.55 22.2976 137.256 22.7116C137.963 23.1256 138.552 23.5988 139.082 24.0719C139.553 24.6042 139.906 25.1957 140.142 25.8463C140.377 26.4969 140.495 27.2066 140.495 28.0346Z" fill="white"/>
<path d="M151.624 25.3732V31.82C151.624 32.4114 151.624 32.9437 151.683 33.4169C151.683 33.89 151.742 34.4815 151.8 35.0138H148.738C148.797 34.4815 148.797 33.9492 148.856 33.4169C148.856 32.9437 148.915 32.3523 148.915 31.82V25.314L142.615 13.6625C142.438 13.3668 142.202 12.8936 141.908 12.3613C141.614 11.829 141.319 11.3558 141.143 11.0601H144.676C144.852 11.5333 145.029 12.0656 145.264 12.5387C145.5 13.071 145.735 13.5442 145.971 14.0174L148.326 18.6307C148.444 18.8672 148.621 19.163 148.738 19.5178C148.915 19.8727 149.092 20.2276 149.268 20.5824C149.445 20.9373 149.622 21.2922 149.857 21.647C150.034 22.0019 150.269 22.3568 150.387 22.6525C150.564 22.3568 150.741 22.0019 150.917 21.7062C151.094 21.4105 151.27 21.0556 151.447 20.7599C151.565 20.4642 151.742 20.1684 151.918 19.8136C152.095 19.4587 152.271 19.1038 152.448 18.749L154.686 14.1357C154.921 13.6033 155.157 13.071 155.451 12.5387C155.687 12.0064 155.922 11.4741 156.099 11.001H159.455C159.22 11.2967 158.984 11.7107 158.69 12.243C158.395 12.7753 158.16 13.1893 158.042 13.4259L151.624 25.3732Z" fill="white"/>
<path d="M176.767 28.0346C176.767 28.981 176.59 29.9273 176.178 30.8145C175.766 31.7016 175.177 32.4705 174.411 33.1802C173.646 33.89 172.645 34.4223 171.526 34.8363C170.407 35.2503 169.053 35.4869 167.581 35.4869C166.933 35.4869 166.285 35.4278 165.579 35.3686C164.872 35.2503 164.166 35.132 163.577 34.9546C162.929 34.8363 162.281 34.5997 161.693 34.4223C161.104 34.1857 160.574 33.9491 160.162 33.7126L161.163 31.4059C161.693 31.7016 162.164 31.9382 162.694 32.1748C163.224 32.4114 163.753 32.5888 164.283 32.7662C164.813 32.9437 165.343 33.062 165.932 33.1211C166.521 33.1803 167.11 33.2394 167.758 33.2394C168.641 33.2394 169.465 33.1211 170.231 32.9437C170.937 32.7662 171.585 32.4114 172.056 32.0565C172.586 31.7016 172.939 31.2285 173.234 30.637C173.528 30.0456 173.646 29.4541 173.646 28.6852C173.646 28.1529 173.528 27.6798 173.351 27.2066C173.175 26.7335 172.88 26.3194 172.527 25.9054C172.174 25.5506 171.703 25.1957 171.173 24.9C170.643 24.6042 169.995 24.3677 169.347 24.1311L166.698 23.3622C165.756 23.1256 164.931 22.7708 164.225 22.4159C163.518 22.061 162.929 21.5879 162.458 21.1147C161.987 20.6415 161.634 20.1092 161.398 19.5178C161.163 18.9263 161.045 18.2166 161.045 17.4477C161.045 16.5014 161.222 15.6142 161.634 14.7862C162.046 13.9582 162.576 13.2484 163.224 12.5978C163.93 12.0064 164.696 11.4741 165.697 11.1192C166.639 10.7643 167.758 10.5869 168.935 10.5869C169.583 10.5869 170.231 10.6461 170.878 10.7643C171.526 10.8826 172.174 11.0009 172.821 11.1192C173.41 11.2967 173.999 11.5332 174.529 11.7698C175.059 12.0064 175.589 12.243 176.001 12.4796L174.823 14.6088C174.352 14.3722 173.94 14.1356 173.469 13.899C172.998 13.6624 172.586 13.485 172.115 13.3076C171.644 13.1893 171.114 13.071 170.643 13.0119C170.113 12.9527 169.583 12.8936 169.053 12.8936C168.287 12.8936 167.581 13.0119 166.992 13.1893C166.403 13.3667 165.873 13.6624 165.461 13.9582C164.99 14.313 164.696 14.7271 164.46 15.2594C164.225 15.7325 164.107 16.324 164.107 16.9154C164.107 17.5069 164.225 17.98 164.401 18.394C164.578 18.8081 164.872 19.1629 165.226 19.4586C165.52 19.7544 165.932 20.0501 166.403 20.2275C166.874 20.4641 167.345 20.5824 167.875 20.7598L171.114 21.7061C172.056 22.0019 172.88 22.2976 173.587 22.7116C174.294 23.1256 174.882 23.5988 175.412 24.0719C175.883 24.6042 176.237 25.1957 176.472 25.8463C176.649 26.4969 176.767 27.2066 176.767 28.0346Z" fill="white"/>
</g>
<defs>
<clipPath id="clip0_13271_23082">
<rect width="177" height="46" fill="white"/>
</clipPath>
</defs>
</svg>
