<svg width="191" height="46" viewBox="0 0 191 46" fill="none" xmlns="http://www.w3.org/2000/svg">
<path d="M0 23.0357C0 10.7953 3.9302 7.24914 11.3243 7.24914C13.0134 7.24914 14.7454 7.4583 16.4345 7.7958V9.14581C15.1689 8.97468 13.7319 8.85109 12.4187 8.85109C6.33304 8.85109 4.30609 11.6367 4.30609 22.9929C4.30609 34.3919 6.33304 37.1774 12.4187 37.1774C13.77 37.1774 15.1213 37.0491 16.4345 36.8399V38.2755C14.7454 38.613 13.0563 38.8222 11.3243 38.8222C3.9302 38.8222 0 35.3188 0 23.0357Z" fill="white"/>
<path d="M29.9569 26.7909L22.1822 7.4583H26.7452L33.3352 24.1765L39.968 7.4583H41.8284L34.1393 26.7054V38.6082H29.9569V26.7909Z" fill="white"/>
<path d="M48.6754 14.465V38.6082H46.9434V7.4583H49.5651L62.5786 31.1832V7.4583H64.3533V38.6082H61.9029L48.6754 14.465Z" fill="white"/>
<path d="M71.2811 23.0357C71.2811 11.6794 75.0829 7.16358 81.6729 7.16358C88.3057 7.16358 92.1074 11.6794 92.1074 23.0357C92.1074 34.3919 88.3057 38.9077 81.6729 38.9077C75.0829 38.9077 71.2811 34.3919 71.2811 23.0357ZM87.8013 22.9929C87.8013 11.5939 86.0694 8.68471 81.6729 8.68471C77.2811 8.68471 75.5872 11.6794 75.5872 22.9929C75.5872 34.3491 77.2764 37.3866 81.6729 37.3866C86.0694 37.3866 87.8013 34.3491 87.8013 22.9929Z" fill="white"/>
<path d="M117.126 29.1962V7.4583H121.351V29.3246C121.351 34.9385 122.788 36.8399 127.179 36.8399C131.742 36.8399 133.346 34.9813 133.346 29.3246V7.4583H135.164V29.239C135.164 36.4549 132.418 38.9077 126.209 38.9077C120.209 38.8222 117.126 36.2457 117.126 29.1962Z" fill="white"/>
<path d="M150.123 25.6929H146.193V38.6082H142.139V7.4583H150.294C155.914 7.4583 159.844 9.65443 159.844 16.4472C159.844 21.3862 157.688 24.129 154.31 25.1843L159.93 38.6082H155.533L150.123 25.6929ZM150.252 24.0482C154.01 24.0482 155.619 22.4462 155.619 16.4092C155.619 10.5433 153.972 8.97943 150.085 8.97943H146.198V24.0482H150.252Z" fill="white"/>
<path d="M104.636 19.7747C101.6 13.1198 100.006 8.57538 102.009 3.37026C102.551 1.96796 103.289 0.841376 104.174 0C102.247 1.35951 100.662 3.37976 99.6062 6.07027C96.994 12.6967 98.8401 18.3629 102.104 25.4885C105.744 33.3413 106.439 37.0681 104.531 41.9167C103.731 43.8752 102.728 45.1919 101.567 46C104.164 44.6452 106.187 42.2209 107.471 38.8792C109.808 32.8184 108.761 28.816 104.636 19.7747Z" fill="white"/>
<path d="M166.772 7.4583H182.15V8.97943H170.911V21.852H180.799V23.3304H170.911V37.0919H182.15V38.613H166.772V7.4583Z" fill="white"/>
<path d="M191 10.1013C191 11.6604 189.749 12.9201 188.178 12.9201C186.604 12.9201 185.343 11.6604 185.343 10.1013C185.343 8.52785 186.608 7.28242 188.178 7.28242C189.749 7.27766 191 8.54211 191 10.1013ZM190.553 10.1013C190.553 8.77028 189.525 7.68647 188.178 7.68647C186.832 7.68647 185.79 8.76552 185.79 10.1013C185.79 11.4323 186.813 12.5161 188.178 12.5161C189.525 12.5113 190.553 11.4323 190.553 10.1013ZM188.545 10.358L189.263 11.2944H188.797L188.112 10.3675H187.722V11.2944H187.331V8.85109H188.374C188.902 8.85109 189.197 9.1363 189.197 9.61641C189.197 10.0585 188.954 10.3104 188.545 10.358ZM187.722 9.25038V10.0157H188.35C188.626 10.0157 188.797 9.87785 188.797 9.62591C188.797 9.38824 188.635 9.25038 188.35 9.25038H187.722Z" fill="white"/>
</svg>
