<svg width="314" height="46" viewBox="0 0 314 46" fill="none" xmlns="http://www.w3.org/2000/svg">
<path d="M192.028 36.5856H171.56V1.9776H162.787V44.6196H192.028V36.5856ZM264.034 9.5172V10.2588H277.071V44.6196H285.843V10.2588H298.88V9.5172V1.9776H264.034V9.5172ZM310.82 9.5172C309.967 10.3824 308.748 11.0004 307.53 11.0004C306.19 11.0004 305.093 10.506 304.24 9.5172C303.388 8.652 302.9 7.416 302.9 6.0564C302.9 4.6968 303.388 3.4608 304.24 2.5956C305.093 1.854 306.19 1.236 307.53 1.236C308.87 1.236 309.967 1.7304 310.82 2.7192C311.672 3.5844 312.16 4.8204 312.16 6.18C312.16 7.5396 311.672 8.652 310.82 9.5172ZM311.794 1.854C310.698 0.7416 309.236 0 307.53 0C305.946 0 304.362 0.7416 303.266 1.854C302.169 2.9664 301.56 4.4496 301.56 6.18C301.56 7.9104 302.169 9.3936 303.266 10.506C304.362 11.6184 305.824 12.36 307.53 12.36C309.114 12.36 310.698 11.6184 311.794 10.506C312.891 9.3936 313.5 7.9104 313.5 6.18C313.5 4.4496 312.769 2.9664 311.794 1.854ZM308.505 5.6856C308.261 5.9328 307.896 6.0564 307.53 6.0564H306.312V3.9552H307.53C308.017 3.9552 308.505 4.0788 308.626 4.4496C308.748 4.6968 308.748 4.8204 308.748 4.944C308.748 5.1912 308.627 5.4384 308.505 5.6856ZM309.601 6.4272C309.967 6.0564 310.21 5.562 310.21 4.944C310.21 4.5732 310.089 4.326 309.967 3.9552C309.479 3.09 308.505 2.7192 307.53 2.7192H304.971V9.27H306.312V7.1688H307.652L309.114 9.3936H310.698L308.992 6.9216C309.236 6.798 309.479 6.5508 309.601 6.4272ZM240.276 44.6196H249.048V10.2588H262.085V9.5172V1.9776H227.239V9.5172V10.2588H240.276V44.6196ZM11.709 13.1016C11.709 7.7868 19.0193 8.7756 22.187 9.5172C24.6238 10.1352 27.7916 11.124 29.8628 12.6072L29.9846 12.7308L34.0053 6.0564L33.8834 5.9328C30.5938 3.2136 26.2077 1.7304 22.0652 1.1124C16.3388 0.2472 8.54126 1.1124 4.64247 6.0564C3.05858 8.034 2.32756 10.506 2.32756 13.1016C2.32756 28.7988 25.3548 25.2144 25.3548 32.0124C25.3548 33.372 24.9893 34.608 24.1364 35.5968C21.5779 38.5632 15.9733 37.9452 12.6837 36.9564C10.1251 36.2148 7.07921 34.9788 5.00798 33.1248L4.88614 33.0012L0.5 39.9228L0.621837 40.0464C7.81024 46.35 20.3595 48.204 28.5226 42.8892C32.2995 40.4172 34.7363 36.5856 34.7363 32.0124C34.7363 16.9332 11.709 20.8884 11.709 13.1016ZM195.318 44.6196H225.777V36.5856H204.09V27.192H214.934V18.7872H204.09V10.1352H225.29V1.9776H195.318V18.9108H185.083V27.192H195.318V44.6196ZM70.0691 34.3608C67.0232 36.462 63.8554 37.8216 60.0784 37.8216C51.6717 37.8216 45.8235 32.136 45.8235 23.3604C45.8235 14.5848 51.6717 8.7756 60.0784 8.7756C63.4899 8.7756 66.9013 10.1352 69.7036 11.8656L73.6024 5.0676C69.5817 2.1012 64.3427 0.618 59.4693 0.618C46.5545 0.618 36.6857 9.5172 36.6857 23.2368C36.6857 36.9564 46.4327 45.8556 59.4693 45.8556C64.4646 45.8556 69.9473 44.2488 73.9679 40.9116L74.2116 40.6644L70.0691 34.3608ZM90.2941 28.3044L96.9951 11.6184L103.696 28.3044H90.2941ZM110.032 44.6196H119.413L102.234 1.9776H91.6343L74.5771 44.6196H83.9585L87.1263 36.3384H106.864L110.032 44.6196ZM144.877 20.394C143.171 21.8772 140.978 22.4952 138.785 22.4952H130.744V9.6408H138.785C141.588 9.6408 144.877 10.3824 146.217 13.1016C146.705 13.9668 146.827 14.9556 146.827 16.068C146.948 17.7984 146.096 19.2816 144.877 20.394ZM148.41 28.3044C149.751 27.6864 150.969 26.8212 152.066 25.7088C154.746 23.1132 155.964 19.8996 155.964 16.068C155.964 13.8432 155.477 11.742 154.502 9.7644C151.456 3.8316 144.755 1.9776 138.785 1.9776H121.972V44.6196H130.744V30.4056H139.516L149.263 44.6196H159.498L148.41 28.3044Z" fill="white"/>
</svg>
