<svg width="99" height="46" viewBox="0 0 99 46" fill="none" xmlns="http://www.w3.org/2000/svg">
<g clip-path="url(#clip0_13271_23105)">
<path d="M84.1627 22.3323L81.7077 19.8889L77.3074 24.2684L70.4982 17.4917L67.8579 20.1195L77.1682 29.3395L84.1627 22.3323Z" fill="white"/>
<path d="M25.1978 16.5234C23.5766 14.8637 21.2608 15.5092 19.454 17.3071L14.7756 21.9171L24.1323 31.2295L28.8107 26.5733C31.034 24.3605 31.2193 21.7789 29.7833 20.3497C28.5867 19.1588 27.3475 19.1199 26.0797 19.5925C26.3082 18.5272 26.123 17.4446 25.1978 16.5234ZM20.9827 19.6123C21.7701 18.8286 22.5111 18.7824 23.0672 19.3355C23.6694 19.9348 23.5305 20.7185 22.8356 21.456L21.0731 23.2695L19.1826 21.3768L20.9827 19.6119V19.6123ZM26.8654 24.591L24.6075 26.8084L22.7058 24.9046L24.9197 22.7011C25.6607 21.9636 26.4021 21.9636 27.0042 22.5629C27.6064 23.116 27.4675 23.9921 26.8654 24.5914V24.591Z" fill="white"/>
<path d="M36.2567 27.6227L23.1252 40.6924L5.37295 23.0241L23.1172 5.36421L36.272 18.4565L38.9702 15.7711L23.1287 0.00488281L0 23.0241L23.1203 46.0351L38.9384 30.2918L36.2567 27.6227Z" fill="white"/>
<path d="M49.145 14.4492L40.9929 22.5627L43.494 25.0061L46.25 22.263L53.1287 29.1092L55.7226 26.5276L48.8439 19.6815L51.6 16.9384L49.145 14.4492Z" fill="white"/>
<path d="M38.9548 10.4384L41.6411 13.112L49.423 5.3673L62.5779 18.4599L65.2642 15.786L49.423 0.0197754L38.9548 10.4384Z" fill="white"/>
<path d="M49.4 40.7031L41.6411 32.9813L38.9548 35.6552L49.4011 46.0499L65.29 30.241L62.6026 27.5664L49.4 40.7031Z" fill="white"/>
<path d="M75.7589 0L65.314 10.3958L67.9979 13.0669L75.7564 5.3451L93.5191 23.0238L75.7787 40.6802L67.9972 32.9355L65.3105 35.6091L75.7787 46.0278L98.8924 23.0238L75.7589 0Z" fill="white"/>
</g>
<defs>
<clipPath id="clip0_13271_23105">
<rect width="99" height="46" fill="white"/>
</clipPath>
</defs>
</svg>
