<svg width="281" height="46" viewBox="0 0 281 46" fill="none" xmlns="http://www.w3.org/2000/svg">
<path d="M62.0779 46C58.217 46 54.9221 45.2424 52.1894 43.7284C49.4567 42.2157 47.3643 40.0606 45.912 37.2669C44.4585 34.4744 43.7324 31.115 43.7324 27.19V14.5215C43.7324 12.9449 43.7324 11.3554 43.7324 9.75568C43.7324 8.15596 43.7428 6.59977 43.7649 5.0858C43.7857 3.57183 43.7753 2.13209 43.7324 0.766581H49.9772C49.9772 2.13209 49.9877 3.57183 50.0098 5.0858C50.0319 6.59977 50.0319 8.15596 50.0098 9.75568C49.9877 11.3554 49.9772 12.9449 49.9772 14.5215V27.4446C49.9772 30.1322 50.4535 32.446 51.4087 34.3861C52.3625 36.3275 53.7393 37.7992 55.5389 38.8013C57.3386 39.8034 59.517 40.305 62.0766 40.305C64.5907 40.305 66.7599 39.8046 68.5817 38.8013C70.4035 37.7992 71.779 36.3275 72.7133 34.3861C73.6451 32.446 74.1122 30.1322 74.1122 27.4446V14.5228C74.1122 12.9461 74.1122 11.3567 74.1122 9.75696C74.1122 8.15724 74.1226 6.60105 74.1448 5.08708C74.1656 3.57311 74.1552 2.13337 74.1122 0.767861H80.4222C80.4222 2.13337 80.4222 3.57311 80.4222 5.08708C80.4222 6.60105 80.4222 8.15724 80.4222 9.75696C80.4222 11.3567 80.4222 12.9461 80.4222 14.5228V27.1912C80.4222 31.1163 79.696 34.4744 78.2425 37.2681C76.789 40.0619 74.6978 42.217 71.9651 43.7297C69.2337 45.2424 65.9375 46 62.0779 46Z" fill="white"/>
<path d="M112.478 45.2334L97.5146 7.2934H97.3194V31.4772C97.3194 33.0551 97.3194 34.6344 97.3194 36.211C97.3194 37.789 97.3194 39.3362 97.3194 40.8489C97.3194 42.3629 97.3194 43.8244 97.3194 45.2321H91.1396C91.1396 43.8244 91.15 42.3642 91.1721 40.8489C91.1929 39.3362 91.1929 37.789 91.1721 36.211C91.15 34.6331 91.1396 33.0551 91.1396 31.4772V14.5228C91.1396 12.9461 91.15 11.3567 91.1721 9.75696C91.1929 8.15725 91.1929 6.60105 91.1721 5.08708C91.15 3.57311 91.1396 2.13337 91.1396 0.767861H101.158L115.925 38.3867H116.12L130.822 0.767861H140.516C140.516 2.13337 140.504 3.57311 140.483 5.08708C140.461 6.60105 140.461 8.15725 140.483 9.75696C140.504 11.3567 140.516 12.9461 140.516 14.5228V31.4772C140.516 33.0551 140.504 34.6344 140.483 36.211C140.461 37.789 140.461 39.3362 140.483 40.8489C140.504 42.3629 140.516 43.8244 140.516 45.2321H134.269C134.269 43.8244 134.269 42.3642 134.269 40.8489C134.269 39.3362 134.269 37.789 134.269 36.211C134.269 34.6331 134.269 33.0551 134.269 31.4772V7.67733H134.074L119.374 45.2334H112.478Z" fill="white"/>
<path d="M182.178 39.8584V45.2321H152.253C152.253 43.9101 152.264 42.5126 152.286 41.0422C152.307 39.5704 152.307 38.0565 152.286 36.499C152.264 34.9428 152.253 33.3956 152.253 31.8611V14.5228C152.253 12.9461 152.264 11.3567 152.286 9.75696C152.307 8.15725 152.307 6.60105 152.286 5.08708C152.264 3.57311 152.253 2.13337 152.253 0.767861H181.722V6.2056C180.724 6.16337 179.673 6.14161 178.567 6.14161C177.46 6.14161 176.257 6.15185 174.956 6.1736C173.654 6.19536 172.223 6.2056 170.663 6.2056H158.563V20.0885H167.801C169.406 20.0885 170.858 20.0885 172.159 20.0885C173.46 20.0885 174.664 20.0783 175.769 20.0565C176.875 20.0361 177.926 20.0245 178.924 20.0245V25.3983C177.926 25.3983 176.875 25.4085 175.769 25.4303C174.663 25.452 173.459 25.4623 172.159 25.4623C170.858 25.4623 169.426 25.4623 167.865 25.4623H158.562V39.7931H171.117C172.678 39.7931 174.11 39.8034 175.411 39.8251C176.712 39.8469 177.925 39.8571 179.055 39.8571C180.181 39.8571 181.243 39.8571 182.241 39.8571L182.178 39.8584Z" fill="white"/>
<path d="M189.715 40.9142C189.693 39.4015 189.693 37.844 189.715 36.2443C189.736 34.6446 189.747 33.0564 189.747 31.4785V1.6637L189.682 0.767861H198.985L220.452 38.1307H220.648V14.5228C220.648 12.9461 220.658 11.3567 220.68 9.75696C220.701 8.15725 220.701 6.60105 220.68 5.08708C220.658 3.57311 220.648 2.13337 220.648 0.767861H226.892C226.892 2.13337 226.892 3.57311 226.892 5.08708C226.892 6.60105 226.892 8.15725 226.892 9.75696C226.892 11.3567 226.892 12.9461 226.892 14.5228V45.2321H217.785L196.187 7.61334H195.927V31.4772C195.927 33.0551 195.927 34.6433 195.927 36.243C195.927 37.8428 195.927 39.4002 195.927 40.9129C195.927 42.4269 195.927 43.8666 195.927 45.2321H189.747C189.747 43.8679 189.736 42.4282 189.715 40.9142Z" fill="white"/>
<path d="M238.694 40.9142C238.694 39.4015 238.694 37.844 238.694 36.2443C238.694 34.6446 238.694 33.0564 238.694 31.4785V14.5228C238.694 12.9461 238.694 11.3567 238.694 9.75696C238.694 8.15725 238.694 6.60105 238.694 5.08708C238.694 3.57311 238.694 2.13337 238.694 0.767861H245.004C245.004 2.13337 244.992 3.57311 244.971 5.08708C244.949 6.60105 244.949 8.15725 244.971 9.75696C244.992 11.3567 245.004 12.9461 245.004 14.5228V31.4772C245.004 33.0551 244.992 34.6433 244.971 36.243C244.949 37.8428 244.949 39.4002 244.971 40.9129C244.992 42.4269 245.004 43.8666 245.004 45.2321H238.694C238.694 43.8679 238.694 42.4282 238.694 40.9142Z" fill="white"/>
<path d="M265.585 46C263.243 46 260.911 45.6161 258.592 44.8482C256.27 44.0803 254.243 43.0361 252.508 41.7128V35.8271C254.806 37.4486 256.986 38.6209 259.046 39.3465C261.106 40.0721 263.111 40.4343 265.063 40.4343C266.841 40.4343 268.445 40.1783 269.877 39.6664C271.308 39.1545 272.447 38.3662 273.292 37.2989C274.138 36.2328 274.561 34.953 274.561 33.4595C274.561 32.0109 274.094 30.804 273.162 29.8455C272.229 28.8857 270.788 27.9796 268.836 27.126L263.046 24.5664C259.924 23.2022 257.582 21.527 256.02 19.5446C254.459 17.561 253.678 15.3329 253.678 12.8591C253.678 10.5133 254.329 8.37097 255.63 6.42956C256.931 4.48943 258.741 2.93323 261.062 1.75968C263.382 0.587414 265.995 0 268.901 0C270.983 0 272.976 0.299466 274.885 0.895838C276.793 1.49349 278.354 2.21912 279.569 3.07144V8.63716C277.877 7.61334 276.185 6.84548 274.495 6.33357C272.803 5.82167 271.089 5.56571 269.356 5.56571C267.534 5.56571 265.918 5.83318 264.51 6.36557C263.099 6.89923 262.005 7.68885 261.224 8.73314C260.444 9.77871 260.053 11.0265 260.053 12.4765C260.053 13.8842 260.497 15.1217 261.387 16.1865C262.276 17.2538 263.697 18.2124 265.647 19.066L271.502 21.6895C274.668 23.0973 277.041 24.6867 278.625 26.4554C280.208 28.2253 281 30.4329 281 33.0769C281 35.5507 280.317 37.78 278.95 39.7624C277.584 41.746 275.719 43.2818 273.356 44.3683C270.996 45.4574 268.405 46 265.585 46Z" fill="white"/>
<path d="M0 43.5697C4.89544 42.519 5.9586 39.9646 6.82655 37.0442L15.2212 8.89439C16.5641 4.50606 14.7045 3.01897 11.2848 2.43284V0.769141H28.8951V2.43284C25.1214 2.82957 23.1798 4.48687 21.9827 8.84192L12.0929 41.8433H23.8032C29.6316 41.8433 33.1711 36.5374 33.1711 29.9619H35.4666V45.2334H0V43.5697Z" fill="white"/>
</svg>
