<svg width="382" height="44" viewBox="0 0 382 44" fill="none" xmlns="http://www.w3.org/2000/svg">
<path d="M0 22.0341C0 10.3259 3.81607 6.93396 10.9955 6.93396C12.6355 6.93396 14.3172 7.13403 15.9573 7.45685V8.74816C14.7284 8.58448 13.3332 8.46626 12.0581 8.46626C6.14914 8.46626 4.18105 11.1307 4.18105 21.9932C4.18105 32.8966 6.14914 35.561 12.0581 35.561C13.3701 35.561 14.6822 35.4383 15.9573 35.2382V36.6113C14.3172 36.9342 12.6771 37.1342 10.9955 37.1342C3.81607 37.1342 0 33.7832 0 22.0341Z" fill="white"/>
<path d="M29.0871 25.6261L21.5381 7.13402H25.9686L32.3672 23.1253L38.8074 7.13402H40.6138L33.148 25.5443V36.9296H29.0871V25.6261Z" fill="white"/>
<path d="M47.2619 13.8361V36.9296H45.5803V7.13402H48.1258L60.7614 29.8274V7.13402H62.4846V36.9296H60.1054L47.2619 13.8361Z" fill="white"/>
<path d="M69.2113 22.0341C69.2113 11.1716 72.9026 6.85212 79.3012 6.85212C85.7414 6.85212 89.4328 11.1716 89.4328 22.0341C89.4328 32.8966 85.7414 37.2161 79.3012 37.2161C72.9026 37.2161 69.2113 32.8966 69.2113 22.0341ZM85.2517 21.9932C85.2517 11.0898 83.5701 8.30712 79.3012 8.30712C75.037 8.30712 73.3923 11.1716 73.3923 21.9932C73.3923 32.8556 75.0324 35.7611 79.3012 35.7611C83.5701 35.7611 85.2517 32.8556 85.2517 21.9932Z" fill="white"/>
<path d="M113.724 27.9268V7.13402H117.827V28.0496C117.827 33.4194 119.222 35.2382 123.486 35.2382C127.917 35.2382 129.474 33.4604 129.474 28.0496V7.13402H131.239V27.9678C131.239 34.8699 128.573 37.2161 122.544 37.2161C116.718 37.1342 113.724 34.6698 113.724 27.9268Z" fill="white"/>
<path d="M145.764 24.5758H141.948V36.9296H138.011V7.13402H145.93C151.386 7.13402 155.202 9.23468 155.202 15.7321C155.202 20.4563 153.109 23.0799 149.829 24.0893L155.285 36.9296H151.017L145.764 24.5758ZM145.889 23.0026C149.538 23.0026 151.1 21.4703 151.1 15.6958C151.1 10.0849 149.501 8.58902 145.727 8.58902H141.952V23.0026H145.889Z" fill="white"/>
<path d="M101.597 18.9149C98.6496 12.5493 97.1019 8.20254 99.0469 3.22373C99.5735 1.8824 100.29 0.804794 101.149 0C99.2779 1.3004 97.7394 3.23282 96.7138 5.80634C94.1775 12.1447 95.97 17.5645 99.1393 24.3803C102.674 31.8917 103.348 35.4564 101.495 40.0942C100.719 41.9675 99.7445 43.227 98.6172 44C101.14 42.7041 103.103 40.3852 104.351 37.1888C106.619 31.3915 105.603 27.5631 101.597 18.9149Z" fill="white"/>
<path d="M161.929 7.13402H176.861V8.58902H165.948V20.9019H175.549V22.316H165.948V35.4792H176.861V36.9342H161.929V7.13402Z" fill="white"/>
<path d="M357.048 22.2614C357.048 10.4987 360.882 7.0931 368.094 7.0931C369.743 7.0931 371.434 7.29316 373.079 7.62054V8.92094C371.841 8.75726 370.441 8.63904 369.166 8.63904C363.229 8.63904 361.252 11.3171 361.252 22.2251C361.252 33.1785 363.229 35.852 369.166 35.852C370.483 35.852 371.804 35.7293 373.079 35.5292V36.9069C371.43 37.2297 369.78 37.4343 368.094 37.4343C360.882 37.4298 357.048 34.0651 357.048 22.2614Z" fill="white"/>
<path d="M331.352 7.08856V29.8865L318.656 7.08856H316.101V37.0251H317.792V13.8225L330.691 37.0251H333.079V7.08856H331.352Z" fill="white"/>
<path d="M347.762 7.08856H343.747V37.0842H347.762V7.08856Z" fill="white"/>
<path d="M303.812 22.3024C303.812 11.349 302.121 8.55265 297.834 8.55265C293.547 8.55265 291.902 11.4308 291.902 22.3024C291.902 33.2148 293.551 36.1339 297.834 36.1339C302.121 36.1339 303.812 33.2103 303.812 22.3024ZM287.698 22.3433C287.698 11.4308 291.408 7.0931 297.834 7.0931C304.306 7.0931 308.016 11.4308 308.016 22.3433C308.016 33.2558 304.306 37.5935 297.834 37.5935C291.408 37.5935 287.698 33.2512 287.698 22.3433Z" fill="white"/>
<path d="M271.288 23.0299C274.956 23.0299 276.522 21.4885 276.522 15.6867C276.522 10.0486 274.914 8.5481 271.121 8.5481H267.328V23.0299H271.288ZM271.163 24.6122H267.328V37.0251H263.374V7.08856H271.329C276.808 7.08856 280.643 9.1983 280.643 15.7276C280.643 20.4745 278.541 23.1117 275.242 24.1257L280.726 37.0251H276.439L271.163 24.6122Z" fill="white"/>
<path d="M216.745 27.9814V7.0931H220.866V28.1042C220.866 33.4967 222.265 35.3246 226.553 35.3246C231.002 35.3246 232.568 33.5377 232.568 28.1042V7.0931H234.342V28.0223C234.342 34.9608 231.662 37.3116 225.606 37.3116C219.752 37.2252 216.745 34.7517 216.745 27.9814Z" fill="white"/>
<path d="M196.412 7.08856V37.0251H212.342V35.1063H200.45L200.455 7.08856H196.412Z" fill="white"/>
<path d="M240.034 7.08856V8.46626H246.294V37.3161H250.835V8.46626H257.091V7.08856H240.034Z" fill="white"/>
<path d="M185.454 9.66208C185.454 11.1535 184.239 12.3584 182.714 12.3584C181.185 12.3584 179.961 11.1535 179.961 9.66208C179.961 8.15707 181.19 6.96579 182.714 6.96579C184.239 6.96124 185.454 8.17071 185.454 9.66208ZM185.019 9.66208C185.019 8.38896 184.022 7.35227 182.714 7.35227C181.407 7.35227 180.395 8.38441 180.395 9.66208C180.395 10.9352 181.388 11.9719 182.714 11.9719C184.022 11.9673 185.019 10.9352 185.019 9.66208ZM183.07 9.90761L183.767 10.8033H183.315L182.649 9.91671H182.271V10.8033H181.892V8.46626H182.904C183.416 8.46626 183.703 8.73907 183.703 9.1983C183.703 9.62116 183.467 9.86214 183.07 9.90761ZM182.271 8.84819V9.58024H182.88C183.148 9.58024 183.315 9.44838 183.315 9.2074C183.315 8.98005 183.158 8.84819 182.88 8.84819H182.271Z" fill="white"/>
<path d="M382 9.55296C382 11.0443 380.785 12.2492 379.26 12.2492C377.731 12.2492 376.507 11.0443 376.507 9.55296C376.507 8.04794 377.736 6.85667 379.26 6.85667C380.785 6.85667 382 8.06159 382 9.55296ZM381.566 9.55296C381.566 8.27983 380.568 7.24315 379.26 7.24315C377.953 7.24315 376.941 8.27529 376.941 9.55296C376.941 10.8261 377.934 11.8628 379.26 11.8628C380.568 11.8582 381.566 10.8261 381.566 9.55296ZM379.616 9.79849L380.314 10.6942H379.861L379.196 9.80758H378.817V10.6942H378.438V8.35713H379.45C379.963 8.35713 380.249 8.62994 380.249 9.08918C380.249 9.51658 380.013 9.75302 379.616 9.79849ZM378.817 8.73907V9.47111H379.427C379.695 9.47111 379.861 9.33925 379.861 9.09827C379.861 8.87093 379.704 8.73907 379.427 8.73907H378.817Z" fill="white"/>
</svg>
