<svg width="150" height="46" viewBox="0 0 150 46" fill="none" xmlns="http://www.w3.org/2000/svg">
<g clip-path="url(#clip0_13271_23117)">
<path fill-rule="evenodd" clip-rule="evenodd" d="M145.888 2.8796H146.651C146.761 2.8796 146.87 2.87385 146.974 2.86465C147.065 2.85714 147.155 2.83256 147.237 2.7922L147.416 2.62545C147.463 2.53291 147.485 2.4299 147.48 2.32645C147.486 2.22588 147.462 2.12578 147.411 2.03895L147.226 1.8768C147.143 1.83741 147.053 1.81289 146.961 1.80435C146.858 1.7946 146.755 1.78961 146.652 1.7894H145.888V2.8796ZM146.526 3.289H145.888V4.8185H145.426V1.38H146.811C147.208 1.38 147.495 1.46165 147.675 1.62265C147.854 1.7848 147.943 2.02055 147.943 2.3345C147.947 2.46892 147.923 2.60271 147.874 2.7278C147.832 2.83447 147.766 2.93037 147.682 3.0084C147.599 3.08474 147.503 3.14621 147.399 3.1901C147.292 3.23596 147.18 3.26916 147.065 3.289L148.12 4.8185H147.549L146.526 3.289ZM144.084 3.105C144.084 3.4431 144.149 3.7605 144.278 4.05605C144.405 4.3516 144.581 4.60805 144.805 4.82655C145.03 5.04735 145.29 5.21985 145.59 5.34635C145.894 5.4717 146.214 5.53495 146.558 5.53495C147.213 5.53733 147.842 5.28331 148.31 4.8277C148.532 4.6092 148.71 4.3516 148.839 4.05605C148.972 3.7605 149.037 3.4431 149.037 3.105C149.037 2.76805 148.972 2.4518 148.839 2.1574C148.714 1.86816 148.535 1.60545 148.31 1.38345C147.842 0.926988 147.213 0.670369 146.558 0.66815C146.226 0.666693 145.897 0.733236 145.591 0.86365C145.291 0.99015 145.03 1.16495 144.805 1.38345C144.58 1.60455 144.401 1.86752 144.278 2.1574C144.148 2.45642 144.082 2.77914 144.084 3.105ZM143.622 3.0981C143.622 2.7002 143.701 2.3253 143.854 1.9757C144.156 1.28267 144.716 0.733132 145.416 0.44275C145.768 0.29095 146.152 0.21505 146.559 0.21505C146.964 0.21505 147.345 0.29095 147.698 0.44275C148.402 0.73157 148.965 1.28123 149.269 1.9757C149.423 2.3253 149.5 2.7002 149.5 3.0981C149.5 3.49715 149.423 3.8709 149.269 4.2228C148.964 4.91858 148.401 5.47052 147.698 5.7638C147.338 5.91596 146.95 5.99268 146.558 5.9892C146.152 5.9892 145.768 5.91445 145.415 5.76265C145.066 5.6184 144.749 5.40741 144.482 5.14165C144.217 4.8771 144.004 4.56497 143.854 4.22165C143.699 3.86727 143.619 3.48456 143.622 3.0981ZM104.508 14.0933H93.5788V21.1933L104.508 21.1957C107.696 21.1957 110.105 20.5677 110.105 17.5743C110.105 14.9293 107.911 14.0933 104.508 14.0933ZM88.5382 14.0933V9.9889H104.369C107.661 9.9889 109.113 9.18735 109.113 7.06445C109.113 4.90705 107.661 4.10665 104.369 4.10665H88.5371V0H104.049C110.104 0 114.136 1.6698 114.136 6.4745C114.136 9.67495 112.545 10.8606 111.161 11.7277C112.974 12.4948 115.133 14.6521 115.133 17.9595C115.133 22.7263 111.268 25.3 105.003 25.3H88.5382V14.0933ZM142.84 25.2977L140.148 19.489L138.154 15.2444L132.788 3.96865L127.451 15.1489L125.323 19.489L122.59 25.2977H117.242L129.92 0H135.653L148.151 25.2977H142.84ZM77.1183 25.3H82.1439V0H77.1172L77.1183 25.3ZM45.3363 25.2977H57.9378C66.4354 25.2977 72.3838 21.1266 72.3838 12.4947C72.3838 3.37525 65.8694 0.0023 57.7287 0.0023H45.3363V25.2977ZM50.3607 21.0542V4.24695H55.4614C63.8908 4.24695 67.3559 6.3687 67.3559 12.5626C67.3559 18.4793 64.0294 21.0519 55.4614 21.0519H50.363L50.3607 21.0542ZM11.928 25.2977H16.741V6.371L34.6556 25.3H39.2631V0H34.442V18.2712L17.2388 0H11.928V25.2977ZM0.5 25.3H5.52904V0H0.5V25.3ZM4.79674 34.577C4.63295 34.5439 4.46807 34.5163 4.30239 34.4943C4.14883 34.4738 3.99413 34.4631 3.83922 34.462C3.03878 34.462 2.4474 34.7116 2.06508 35.2095C1.6816 35.7075 1.48871 36.4918 1.48871 37.5636V42.0923H0.5V33.7076H1.32932L1.4737 35.0198C1.97383 34.0687 2.82278 33.5938 4.01478 33.5938C4.18804 33.5938 4.35898 33.6064 4.53455 33.6329C4.70896 33.6605 4.85565 33.6916 4.97346 33.7238L4.79674 34.577ZM7.01904 38.2536C7.02828 38.8321 7.08257 39.3231 7.17843 39.7221C7.27546 40.1212 7.44409 40.4489 7.6855 40.7077C7.92112 40.9653 8.24107 41.1504 8.64187 41.2654C9.04036 41.3804 9.54395 41.438 10.1527 41.438C10.4818 41.438 10.8341 41.4138 11.2072 41.3643C11.578 41.3149 11.9002 41.2574 12.1659 41.1896L12.0388 41.9945C11.7293 42.0977 11.41 42.169 11.0859 42.2073C10.713 42.2618 10.3367 42.2899 9.95977 42.2913C9.2344 42.2913 8.62223 42.2062 8.1221 42.0359C7.62197 41.8657 7.21886 41.615 6.91508 41.2815C6.59737 40.9223 6.37256 40.4912 6.26018 40.0257C6.12619 39.522 6.06036 38.931 6.06036 38.2536V37.613C6.06036 36.9909 6.12388 36.4251 6.25325 35.9226C6.3803 35.42 6.58243 34.9865 6.85964 34.6277C7.13801 34.2654 7.4926 33.9883 7.93152 33.7973C8.36581 33.6076 8.89598 33.5098 9.51161 33.5098C10.0556 33.5098 10.5234 33.5949 10.9184 33.7651C11.3123 33.9353 11.638 34.1711 11.8945 34.4712C12.1497 34.7714 12.3345 35.1268 12.4523 35.5384C12.569 35.9467 12.6291 36.3998 12.6291 36.892V37.3681C12.6291 37.6959 12.5852 37.9258 12.4928 38.0558C12.4015 38.188 12.2017 38.2536 11.8945 38.2536H7.01904ZM9.44808 34.3643C9.04382 34.3643 8.68922 34.4195 8.38545 34.5287C8.08167 34.6368 7.82872 34.8151 7.62543 35.0624C7.4233 35.3073 7.27084 35.627 7.1715 36.0226C7.06871 36.4159 7.01904 36.9012 7.01904 37.4831H11.7166V36.9081C11.7166 36.0663 11.5375 35.4315 11.1737 35.0048C10.8122 34.5782 10.237 34.3643 9.44808 34.3643ZM14.1306 33.7065H15.2337L17.9665 41.0584L20.7166 33.7065H21.7885L18.4967 42.0934H17.4063L14.1306 33.7065ZM24.2649 30.4578C24.7443 30.4578 24.9845 30.705 24.9845 31.1972C24.9845 31.6768 24.7443 31.9182 24.2649 31.9182C23.7948 31.9182 23.5627 31.6768 23.5627 31.1972C23.5627 30.705 23.7948 30.4578 24.2649 30.4578ZM23.7856 42.0934V33.7065H24.7766V42.0934H23.7856ZM29.1704 34.577V39.4347C29.1704 39.8279 29.2073 40.1534 29.2755 40.411C29.3436 40.6674 29.451 40.871 29.5954 41.017C29.7431 41.1674 29.9305 41.273 30.136 41.3218C30.3554 41.377 30.6084 41.4046 30.896 41.4046C31.0773 41.4046 31.2564 41.3908 31.4331 41.3632C31.6087 41.3356 31.7761 41.3057 31.9355 41.2724L31.7912 42.0774C31.4158 42.2045 31.021 42.2652 30.6246 42.2567C30.2307 42.2567 29.8819 42.2108 29.5781 42.1187C29.287 42.0332 29.0244 41.8712 28.8181 41.6495C28.5993 41.3999 28.4437 41.1018 28.3642 40.7801C28.2614 40.419 28.2117 39.966 28.2117 39.4185V34.577H26.5646L26.7101 33.7076H28.2117V31.5238L29.1704 31.3444V33.7076H31.9032L31.7438 34.577H29.1704ZM33.4533 39.5163C33.4533 38.6101 33.7166 37.9431 34.2445 37.5222C34.7735 37.1013 35.5762 36.8897 36.6504 36.8897C37.2048 36.8897 37.6899 36.9576 38.1057 37.0875C38.5216 37.2186 38.8404 37.4164 39.0644 37.6786V36.8586C39.0644 35.9616 38.8519 35.3211 38.4326 34.9381C38.011 34.5541 37.3642 34.3632 36.4899 34.3632C36.1168 34.3632 35.7275 34.3907 35.3233 34.4459C34.919 34.5011 34.5448 34.5667 34.204 34.6437L34.3634 33.8387C35.0857 33.6271 35.834 33.5168 36.5869 33.511C37.0986 33.511 37.5606 33.5685 37.9775 33.6835C38.3922 33.7985 38.7514 33.9813 39.0563 34.232C39.3578 34.4827 39.5923 34.8128 39.7586 35.2164C39.9238 35.6213 40.0069 36.11 40.0069 36.6769V42.0934H39.1603L39.0794 41.1091C38.8022 41.5116 38.45 41.8048 38.0237 41.9865C37.5987 42.167 37.087 42.2579 36.4899 42.2579C35.4873 42.2579 34.7319 42.0543 34.2214 41.6507C33.7097 41.2459 33.4533 40.5996 33.4533 39.7141V39.5163ZM34.4119 39.6152C34.4119 40.25 34.576 40.71 34.9005 40.9929C35.2239 41.277 35.776 41.4195 36.5534 41.4195C36.9473 41.4277 37.3403 41.3785 37.72 41.2735C38.0399 41.1746 38.301 41.0401 38.4962 40.871C38.6925 40.7008 38.8369 40.4984 38.927 40.2638C39.0194 40.028 39.0633 39.7739 39.0633 39.5013V39.368C39.0633 39.0402 39.0044 38.7677 38.8866 38.548C38.7711 38.3295 38.6093 38.1547 38.4072 38.0224C38.188 37.8853 37.9446 37.7909 37.6899 37.7441C37.3948 37.689 37.0951 37.662 36.7948 37.6636H36.5407C36.1225 37.6636 35.7783 37.7027 35.5069 37.7855C35.2355 37.866 35.016 37.9868 34.8543 38.1467C34.6889 38.3033 34.5692 38.5016 34.5078 38.7205C34.4403 38.9752 34.408 39.2379 34.4119 39.5013V39.6152ZM42.6427 42.0934V29.9H43.6176V42.0934H42.6427ZM46.8147 30.4578C47.2941 30.4578 47.5343 30.705 47.5343 31.1972C47.5343 31.6768 47.2941 31.9182 46.8147 31.9182C46.3446 31.9182 46.1125 31.6768 46.1125 31.1972C46.1125 30.705 46.3446 30.4578 46.8147 30.4578ZM46.3354 42.0934V33.7065H47.3264V42.0934H46.3354ZM50.6506 41.2724H55.9719L55.8425 42.0923H49.4667V41.3712L54.6286 34.5287H49.5776L49.722 33.7076H55.8113V34.4287L50.6483 41.2724H50.6506ZM58.5615 30.4578C59.0397 30.4578 59.2811 30.705 59.2811 31.1972C59.2811 31.6768 59.0397 31.9182 58.5615 31.9182C58.0914 31.9182 57.8581 31.6768 57.8581 31.1972C57.8581 30.705 58.0914 30.4578 58.5615 30.4578ZM58.0821 42.0934V33.7065H59.0732V42.0934H58.0821ZM61.7898 42.0934V33.7065H62.6214L62.7485 34.8876C62.9945 34.4735 63.3526 34.1389 63.8273 33.887C64.3009 33.6363 64.883 33.5098 65.5772 33.5098C66.5266 33.5098 67.2497 33.7617 67.7521 34.2654C68.2499 34.7691 68.5006 35.5189 68.5006 36.5136V42.0934H67.5246V37.0059C67.5246 36.0755 67.3617 35.4073 67.0325 35.0048C66.701 34.5989 66.1316 34.3954 65.3208 34.3954C64.4476 34.3954 63.8031 34.6208 63.3872 35.0693C62.9714 35.5177 62.7658 36.2123 62.7658 37.153V42.0934H61.7898ZM77.7709 41.929C77.7709 42.5534 77.7016 43.117 77.5642 43.6195C77.44 44.09 77.2172 44.5289 76.9104 44.9075C76.6078 45.2628 76.2255 45.5331 75.7577 45.7194C75.2876 45.9057 74.7274 46 74.0794 46C73.0976 46 72.139 45.8516 71.2022 45.5549L71.4101 44.7189C71.8698 44.85 72.3064 44.9489 72.728 45.0133C73.1519 45.0788 73.6151 45.1122 74.1279 45.1122C74.6373 45.1122 75.067 45.0351 75.4054 44.8833C75.7461 44.7292 76.0211 44.5061 76.229 44.2094C76.4392 43.9151 76.5847 43.5551 76.6702 43.1342C76.7545 42.7133 76.7949 42.2349 76.7949 41.7001V40.7318C76.684 40.9123 76.553 41.0797 76.4045 41.2309C76.2385 41.3986 76.05 41.5426 75.8443 41.6587C75.6283 41.7852 75.3673 41.883 75.0728 41.9531C74.7267 42.0298 74.3727 42.0653 74.0182 42.059C73.5481 42.059 73.1196 41.9922 72.7384 41.8554C72.3555 41.7179 72.0137 41.486 71.7451 41.1815C71.4702 40.8699 71.2519 40.4662 71.0983 39.9683C70.9447 39.4703 70.8673 38.8539 70.8673 38.1213V37.5636C70.8673 36.8736 70.9574 36.279 71.141 35.7753C71.32 35.2716 71.5776 34.8507 71.9126 34.5103C72.2504 34.1726 72.6601 33.9147 73.1115 33.756C73.6087 33.5864 74.1314 33.5031 74.657 33.5098C75.261 33.5098 75.827 33.5788 76.3502 33.7169C76.87 33.8526 77.3459 34.04 77.7709 34.2803V41.929ZM71.8583 37.9247C71.8583 38.4514 71.8952 38.9172 71.9703 39.3277C72.0431 39.7371 72.1759 40.0832 72.3607 40.3627C72.5479 40.641 72.7916 40.8514 73.0965 40.9952C73.4003 41.1366 73.7826 41.208 74.24 41.208C75.1016 41.208 75.7438 40.9745 76.1631 40.5099C76.587 40.0442 76.7949 39.299 76.7949 38.2686V34.8404C76.5045 34.6896 76.197 34.5738 75.879 34.4954C75.4929 34.4112 75.0983 34.3726 74.7031 34.3804C73.7329 34.3804 73.0156 34.6403 72.5536 35.159C72.0893 35.6787 71.8583 36.5355 71.8583 37.728V37.9247ZM84.6446 42.0934V29.9H85.6194V42.0934H84.6446ZM88.8143 30.4578C89.2936 30.4578 89.5339 30.705 89.5339 31.1972C89.5339 31.6768 89.2936 31.9182 88.8143 31.9182C88.3442 31.9182 88.112 31.6768 88.112 31.1972C88.112 30.705 88.3442 30.4578 88.8143 30.4578ZM88.3349 42.0934V33.7065H89.3283V42.0934H88.3349ZM91.323 33.7065H92.4261L95.1589 41.0584L97.9079 33.7065H98.9821L95.6879 42.0934H94.5987L91.323 33.7065ZM101.296 38.2536C101.307 38.8321 101.359 39.3231 101.455 39.7221C101.553 40.1212 101.721 40.4489 101.962 40.7077C102.2 40.9653 102.52 41.1504 102.921 41.2654C103.318 41.3804 103.822 41.438 104.43 41.438C104.76 41.438 105.111 41.4138 105.486 41.3643C105.857 41.3149 106.177 41.2574 106.445 41.1896L106.315 41.9945C106.068 42.0831 105.753 42.1555 105.363 42.2073C104.973 42.2636 104.6 42.2913 104.236 42.2913C103.511 42.2913 102.899 42.2062 102.399 42.0359C101.899 41.8657 101.495 41.615 101.192 41.2815C100.888 40.948 100.672 40.5306 100.538 40.0257C100.403 39.522 100.337 38.931 100.337 38.2536V37.613C100.337 36.9909 100.4 36.4251 100.53 35.9226C100.657 35.42 100.859 34.9865 101.136 34.6277C101.415 34.2654 101.769 33.9883 102.208 33.7973C102.642 33.6076 103.173 33.5098 103.788 33.5098C104.332 33.5098 104.8 33.5949 105.195 33.7651C105.572 33.9214 105.907 34.1631 106.173 34.471C106.439 34.7789 106.63 35.1444 106.729 35.5384C106.848 35.9467 106.906 36.3998 106.906 36.892V37.3681C106.906 37.6959 106.862 37.9258 106.772 38.0558C106.68 38.188 106.478 38.2536 106.171 38.2536H101.296ZM103.727 34.3643C103.323 34.3643 102.966 34.4195 102.662 34.5287C102.365 34.6342 102.103 34.8188 101.904 35.0624C101.7 35.3073 101.55 35.627 101.448 36.0226C101.345 36.4159 101.296 36.9012 101.296 37.4831H105.997V36.9081C105.997 36.0663 105.814 35.4315 105.451 35.0048C105.091 34.5782 104.516 34.3643 103.727 34.3643ZM111.221 38.1547C110.38 38.034 109.785 37.7982 109.439 37.4417C109.094 37.0852 108.919 36.5792 108.919 35.9237V35.857C108.919 35.4637 109.005 35.121 109.178 34.8312C109.346 34.5425 109.58 34.3022 109.878 34.1101C110.176 33.9181 110.534 33.7766 110.942 33.6824C111.351 33.5903 111.802 33.542 112.292 33.542C112.749 33.542 113.174 33.58 113.563 33.649C113.953 33.7226 114.302 33.8054 114.61 33.9043L114.418 34.7243C114.099 34.6215 113.773 34.5423 113.442 34.4874C113.014 34.4213 112.581 34.3906 112.148 34.3954C111.839 34.3954 111.548 34.4218 111.276 34.4712C111.006 34.5207 110.768 34.6 110.567 34.7081C110.37 34.8108 110.204 34.9636 110.085 35.1509C109.97 35.3372 109.91 35.5683 109.91 35.8409C109.91 36.0479 109.932 36.2307 109.976 36.3814C110.015 36.5321 110.095 36.6689 110.209 36.7758C110.319 36.8862 110.47 36.9771 110.661 37.0461C110.856 37.1197 111.1 37.1772 111.396 37.2197L112.694 37.4003C113.415 37.4992 113.956 37.7326 114.314 38.0972C114.67 38.4629 114.849 39.0034 114.849 39.7141V39.813C114.849 40.6111 114.557 41.2183 113.97 41.6346C113.384 42.0497 112.569 42.2579 111.525 42.2579C111.035 42.2579 110.566 42.2222 110.118 42.1509C109.701 42.087 109.29 41.9909 108.889 41.8634L109.063 41.0596C109.468 41.1803 109.864 41.2666 110.255 41.3229C110.643 41.3781 111.076 41.4034 111.556 41.4034C112.312 41.4034 112.884 41.2792 113.266 41.0262C113.65 40.7755 113.843 40.3604 113.843 39.7796C113.843 39.5818 113.827 39.4059 113.794 39.246C113.762 39.0888 113.69 38.9421 113.586 38.8194C113.466 38.6833 113.316 38.5769 113.147 38.5089C112.904 38.4113 112.648 38.3475 112.387 38.3191L111.221 38.1547Z" fill="white"/>
</g>
<defs>
<clipPath id="clip0_13271_23117">
<rect width="149" height="46" fill="white" transform="translate(0.5)"/>
</clipPath>
</defs>
</svg>
