<svg width="232" height="46" viewBox="0 0 232 46" fill="none" xmlns="http://www.w3.org/2000/svg">
<g clip-path="url(#clip0_13271_23147)">
<path d="M24.4351 29.1255L33.2331 13.8486L35.7265 15.2764L26.9284 30.5532L37.2225 24.5924L38.6473 27.0909L28.3532 33.0518H43.6696C45.1656 30.0178 45.9849 26.5912 45.9849 22.9862C45.9849 10.7433 36.4745 0.749076 24.4351 -0.000488281V29.1255Z" fill="white"/>
<path d="M3.98938 35.9429C8.12125 42.0108 15.1027 46.0085 22.9746 46.0085C30.8821 46.0085 37.828 42.0108 41.9598 35.9429H3.98938Z" fill="white"/>
<path d="M19.5194 33.0874L9.79526 23.3431L11.8256 21.3085L21.5497 31.0529V0.0351562C9.54592 0.784721 -0.00012207 10.7789 -0.00012207 23.0218C-0.00012207 26.6269 0.819128 30.0534 2.31515 33.0874H19.5194Z" fill="white"/>
<path d="M70.4199 18.846C71.2391 21.4516 72.1296 24.6998 72.842 27.5552H72.9133C73.6969 24.6998 74.623 21.4873 75.4423 18.846L78.7549 8.67334H88.0872V34.4084H82.2812V24.0573C82.2812 20.8805 82.3168 16.3832 82.3881 12.9209H82.3168C81.4976 15.8121 80.1797 20.3094 79.396 22.4868L75.2642 34.4084H69.8856L65.8606 22.5224C65.4688 21.3446 63.5809 15.2767 62.9042 12.9209H62.8329C62.9042 16.3832 62.9754 20.8805 62.9754 24.0573V34.4084H57.49V8.67334H67.2141L70.4199 18.846Z" fill="white"/>
<path d="M96.9567 26.4847C97.0991 28.9832 99.2363 30.7322 102.691 30.7322C104.722 30.7322 106.645 30.2682 108.391 29.2688L108.497 33.6234C106.895 34.4444 104.544 34.9084 102.015 34.9084C95.5319 34.9084 91.1863 31.2319 91.1863 24.8428C91.1863 18.989 95.2113 14.8843 101.195 14.8843C106.823 14.8843 109.993 18.2038 109.993 25.1283C109.993 25.4139 109.958 26.2348 109.922 26.4847H96.9567ZM104.793 22.8796C104.793 20.0242 103.368 18.7749 101.089 18.7749C98.987 18.7749 97.2416 20.1669 96.921 22.8796H104.793Z" fill="white"/>
<path d="M118.577 34.4084H112.771V6.56738H118.577V34.4084Z" fill="white"/>
<path d="M135.141 19.9884C133.36 19.1675 131.828 18.8105 130.225 18.8105C128.587 18.8105 127.482 19.4887 127.482 20.6309C127.482 21.7017 128.124 22.0943 130.973 22.8796C134.215 23.7719 136.708 24.9498 136.708 28.6619C136.708 32.6953 133.395 34.9083 128.409 34.9083C126.414 34.9083 124.099 34.6228 122.033 33.9089L122.318 29.5543C124.384 30.518 126.449 30.9106 128.159 30.9106C129.691 30.9106 131.044 30.2682 131.044 29.0903C131.044 27.9838 130.439 27.5554 127.376 26.6274C123.529 25.5209 121.926 24.0932 121.926 20.9878C121.926 17.2757 124.989 14.9199 129.905 14.9199C132.149 14.9199 134.036 15.2055 135.604 15.8836L135.141 19.9884Z" fill="white"/>
<path d="M157.795 15.3477L150.208 35.5503C148.498 40.119 145.969 42.5819 141.659 42.5819C140.377 42.5819 139.13 42.4034 138.061 42.1179L138.453 37.7633C139.379 38.0131 140.092 38.1202 140.911 38.1202C142.3 38.1202 143.547 37.3706 144.259 35.0506L136.886 15.312H143.155L147.323 29.8036L151.846 15.312L157.795 15.3477Z" fill="white"/>
<path d="M158.828 15.3481H162.639V11.172L168.089 9.31592V15.3124H172.648V19.4172H168.089V26.9129C168.089 28.9117 168.481 30.4465 170.831 30.4465C171.508 30.4465 172.185 30.3751 172.791 30.1967L172.933 34.2657C171.829 34.5513 170.44 34.694 169.229 34.694C164.527 34.694 162.461 32.5524 162.461 27.6624V19.4529H158.828V15.3481Z" fill="white"/>
<path d="M179.986 26.4847C180.128 28.9832 182.265 30.7322 185.72 30.7322C187.751 30.7322 189.674 30.2682 191.42 29.2688L191.526 33.6234C189.924 34.4444 187.573 34.9084 185.044 34.9084C178.561 34.9084 174.215 31.2319 174.215 24.8428C174.215 18.989 178.24 14.8843 184.224 14.8843C189.852 14.8843 193.022 18.2038 193.022 25.1283C193.022 25.4139 192.987 26.2348 192.951 26.4847H179.986ZM187.822 22.8796C187.822 20.0242 186.397 18.7749 184.118 18.7749C182.016 18.7749 180.271 20.1669 179.95 22.8796H187.822Z" fill="white"/>
<path d="M209.372 19.9882C208.339 19.5955 207.306 19.3457 206.13 19.3457C202.853 19.3457 200.894 21.5587 200.894 24.8782C200.894 28.2334 202.746 30.3393 206.237 30.3393C207.377 30.3393 208.41 30.1965 209.585 29.6611L209.799 34.0514C208.303 34.5154 207.092 34.7296 205.418 34.7296C199.042 34.7296 194.946 30.9818 194.946 24.8782C194.946 18.8817 199.434 15.0981 205.275 15.0981C207.056 15.0981 208.446 15.2409 209.764 15.7049L209.372 19.9882Z" fill="white"/>
<path d="M218.526 18.5604C219.915 16.3831 222.052 14.884 224.795 14.884C229.639 14.884 231.955 17.9893 231.955 23.1649V34.4084H226.22V25.3065C226.22 21.7372 225.721 19.5242 222.907 19.5242C219.595 19.5242 218.597 22.4867 218.597 26.0204V34.4084H212.863V6.56738H218.562V14.2058C218.562 15.5265 218.526 17.2398 218.455 18.5961L218.526 18.5604Z" fill="white"/>
</g>
<defs>
<clipPath id="clip0_13271_23147">
<rect width="232" height="46" fill="white"/>
</clipPath>
</defs>
</svg>
