<svg width="265" height="46" viewBox="0 0 265 46" fill="none" xmlns="http://www.w3.org/2000/svg">
<path d="M197.317 16.7944V14.8862H191.667V24.3594H193.708V20.7325H196.966V18.8785H193.708V16.7944H197.317ZM202.107 24.5759C204.365 24.5759 206.054 22.9114 206.054 20.7055C206.054 18.4996 204.365 16.8485 202.107 16.8485C199.85 16.8485 198.16 18.4996 198.16 20.7055C198.16 22.9114 199.85 24.5759 202.107 24.5759ZM202.107 22.7084C200.972 22.7084 200.161 21.8964 200.161 20.7055C200.161 19.5281 200.972 18.7026 202.107 18.7026C203.243 18.7026 204.054 19.5281 204.054 20.7055C204.054 21.8964 203.243 22.7084 202.107 22.7084ZM211.208 17.0109C210.262 17.0109 209.613 17.3087 209.086 17.9582L208.735 17.0515H207.477V24.3594H209.451V20.5701C209.451 19.3792 209.883 18.8785 210.992 18.8785H211.857V17.0109H211.208ZM223.57 14.8862H221.381L219.191 18.689L217.015 14.8862H214.839L218.137 20.5295V24.3594H220.232V20.5431L223.57 14.8862ZM226.95 24.5759C229.207 24.5759 230.897 22.9114 230.897 20.7055C230.897 18.4996 229.207 16.8485 226.95 16.8485C224.692 16.8485 223.003 18.4996 223.003 20.7055C223.003 22.9114 224.692 24.5759 226.95 24.5759ZM226.95 22.7084C225.814 22.7084 225.003 21.8964 225.003 20.7055C225.003 19.5281 225.814 18.7026 226.95 18.7026C228.085 18.7026 228.896 19.5281 228.896 20.7055C228.896 21.8964 228.085 22.7084 226.95 22.7084ZM235.645 24.5759C237.713 24.5759 239.078 23.2497 239.078 21.2739V17.0515H237.105V21.0573C237.105 22.0859 236.564 22.7084 235.645 22.7084C234.739 22.7084 234.185 22.0994 234.185 21.0573V17.0515H232.212V21.2739C232.212 23.2497 233.59 24.5759 235.645 24.5759ZM240.685 24.3594H242.78V22.2482H240.685V24.3594ZM197.317 33.0341V31.126H191.667V40.5992H193.708V36.9723H196.966V35.1182H193.708V33.0341H197.317ZM202.107 40.8157C204.365 40.8157 206.054 39.1511 206.054 36.9452C206.054 34.7393 204.365 33.0883 202.107 33.0883C199.85 33.0883 198.16 34.7393 198.16 36.9452C198.16 39.1511 199.85 40.8157 202.107 40.8157ZM202.107 38.9481C200.972 38.9481 200.161 38.1361 200.161 36.9452C200.161 35.7678 200.972 34.9423 202.107 34.9423C203.243 34.9423 204.054 35.7678 204.054 36.9452C204.054 38.1361 203.243 38.9481 202.107 38.9481ZM211.208 33.2507C210.262 33.2507 209.613 33.5484 209.086 34.198L208.735 33.2913H207.477V40.5992H209.451V36.8099C209.451 35.619 209.883 35.1182 210.992 35.1182H211.857V33.2507H211.208ZM218.035 38.7045V31.126H215.994V40.5992H221.671V38.7045H218.035ZM222.922 32.3169H224.882V30.4899H222.922V32.3169ZM222.922 40.5992H224.895V33.2913H222.922V40.5992ZM231.249 33.3995H229.37V32.777C229.37 32.2628 229.641 31.9921 230.168 31.9921H231.236V30.4358H229.776C228.235 30.4358 227.451 31.329 227.451 32.7364V33.3995H226.181V35.0235H227.438V40.5992H229.411V35.0235H231.249V33.3995ZM239.336 36.9317C239.336 34.8205 237.795 33.0883 235.552 33.0883C233.389 33.0883 231.767 34.7528 231.767 36.9452C231.767 39.1376 233.403 40.8157 235.552 40.8157C237.255 40.8157 238.647 39.8007 239.174 38.2038H237.106C236.809 38.7316 236.241 39.0564 235.552 39.0564C234.592 39.0564 233.943 38.5015 233.767 37.5001H239.296C239.323 37.3106 239.336 37.1211 239.336 36.9317ZM235.552 34.7799C236.444 34.7799 237.079 35.2671 237.363 36.1603H233.822C234.051 35.2942 234.673 34.7799 235.552 34.7799ZM240.553 40.5992H242.648V38.488H240.553V40.5992Z" fill="white"/>
<path d="M77.4942 0H70.3444L70.3301 39.2197L79.4186 39.1619L79.3682 1.48652C79.3682 0.555641 78.4888 0 77.4942 0Z" fill="white"/>
<path d="M184.342 3.80811L182.951 7.09867L181.459 3.80811H180.624V8.83053H181.402V5.65544L182.504 8.11614H183.312L184.357 5.61936V8.83053H185.186V3.80811H184.335H184.342ZM175.701 3.80811V4.49364H177.438V8.83053H178.316V4.49364H180.04V3.80811H175.701Z" fill="white"/>
<path d="M161.811 24.081C161.782 28.8219 157.875 32.3578 152.585 32.3578C147.296 32.3578 143.424 28.8147 143.461 24.081C143.489 19.3472 147.404 15.8113 152.701 15.8113C157.998 15.8113 161.846 19.3399 161.818 24.081M169.494 8.99205H163.051V11.8785C160.153 9.5549 156.333 8.18384 152.009 8.18384C141.875 8.18384 134.293 14.9814 134.235 24.081C134.17 33.2166 141.666 40.0718 151.799 40.0718C156.052 40.0718 159.828 38.7441 162.74 36.4711L162.711 39.1699H170.777V10.1033C170.777 9.48996 170.143 8.99205 169.501 8.99205" fill="white"/>
<path d="M22.0988 24.064L15.1653 38.7344H24.4917L30.3224 25.3918C27.4755 25.067 24.7296 24.6196 22.0988 24.064Z" fill="white"/>
<path d="M69.0178 16.0487C69.0178 14.2663 67.5042 12.823 65.6303 12.823C65.2339 12.823 64.8375 12.888 64.4844 13.0107C57.0247 16.2146 47.6623 18.531 37.3991 19.3897C35.8927 19.5125 34.4008 19.6062 32.916 19.6712L38.4657 6.81202L43.0712 17.5208C47.5903 16.5538 51.8426 15.2621 55.7346 13.7107L50.0984 1.63085C49.7165 0.837071 48.7218 0.0360806 47.7272 0H33.4638L24.296 19.6495C12.4399 19.0722 5.58571 17.9321 0 12.0076C6.50825 20.0825 14.6886 23.3297 33.5503 24.2172C37.8027 24.4121 41.9253 24.3255 45.8533 23.9937L52.3976 39.2197H67.6339L59.432 21.6484C62.2789 20.869 64.9168 19.9382 67.2807 18.8773C68.333 18.329 69.0249 17.2898 69.0249 16.0631" fill="white"/>
<path d="M131.608 39.1184L131.731 20.1906C131.774 13.1187 127.19 8.21899 120.61 8.21899C116.567 8.21899 112.495 10.1168 110.304 13.0466C108.48 10.0086 105.583 8.21899 101.539 8.21899C97.7916 8.21899 94.3032 9.97252 92.0256 12.6786L90.9589 10.1601C90.6275 9.38801 90.022 8.94061 89.3661 8.94061H84.5876V39.1184H92.84L92.941 22.7956C92.9698 18.069 95.3122 15.3846 99.1969 15.3846C102.275 15.3846 103.882 17.5062 103.853 21.54L103.802 39.1329H112.127L112.228 22.7956C112.257 18.069 114.549 15.3846 118.39 15.3846C121.504 15.3846 123.154 17.5062 123.133 21.54L123.176 39.0751L131.616 39.1256L131.608 39.1184Z" fill="white"/>
</svg>
