<svg width="98" height="46" viewBox="0 0 98 46" fill="none" xmlns="http://www.w3.org/2000/svg">
<g clip-path="url(#clip0_13271_23134)">
<mask id="mask0_13271_23134" style="mask-type:luminance" maskUnits="userSpaceOnUse" x="0" y="0" width="99" height="46">
<path d="M98.0769 0.410156H0V45.5533H98.0769V0.410156Z" fill="white"/>
</mask>
<g mask="url(#mask0_13271_23134)">
<path d="M6.79775 41.8204C6.76613 42.2282 6.67128 42.6047 6.54481 42.8243C6.1654 43.483 5.40659 43.7654 4.67939 43.734C3.95219 43.7027 3.25662 43.3262 2.94044 42.6988C2.75073 42.2909 2.59265 41.6635 2.59265 41.0361C2.62426 40.3774 2.78236 39.7185 3.31985 39.1225C3.73087 38.6833 4.26837 38.4637 4.80586 38.4637C5.34336 38.4637 5.84924 38.6205 6.22864 38.9029C6.60805 39.1538 6.79775 39.6872 6.82937 40.2519H6.03893C5.94408 39.7499 5.84923 39.499 5.50144 39.3421C5.37497 39.2793 5.12204 39.1538 4.83748 39.1852C4.52131 39.2166 4.17351 39.3107 3.85734 39.6872C3.63602 39.9382 3.50956 40.4087 3.47793 40.9106C3.44632 41.4126 3.50956 41.9145 3.66764 42.2282C3.98381 42.8243 4.45807 43.0125 4.90071 42.9811C5.34336 42.9498 5.72277 42.7301 5.84924 42.4478C5.9757 42.2596 6.03893 42.0087 6.10217 41.789L6.79775 41.8204ZM8.3786 36.6755H9.16901V39.1852C9.32716 38.997 9.61167 38.746 10.0227 38.5892C10.2124 38.5264 10.4337 38.4637 10.6867 38.4637C10.9396 38.4637 11.1926 38.495 11.4771 38.6519C12.2043 38.9029 12.2991 39.6558 12.2675 39.8127V43.5458H11.4771V40.1891C11.5087 39.5617 11.2241 39.4048 11.0661 39.3107C10.7499 39.1852 10.497 39.1225 10.2124 39.1852C9.95951 39.2166 9.70656 39.3735 9.42197 39.593C9.23227 39.7813 9.10584 39.9067 9.10584 40.3146V43.5145H8.31542L8.3786 36.6755ZM16.2513 43.734C15.3345 43.734 14.0065 43.2948 14.0065 41.0988C14.0065 38.9029 15.3345 38.4637 16.2513 38.4637C17.1682 38.4637 18.4961 38.9029 18.4961 41.0988C18.4961 43.2948 17.1682 43.734 16.2513 43.734ZM16.2513 39.248C15.2079 39.248 14.8285 40.2832 14.8285 41.0988C14.8285 41.9145 15.2079 42.9498 16.2513 42.9498C17.2947 42.9498 17.6741 41.9145 17.6741 41.0988C17.7057 40.2832 17.3263 39.248 16.2513 39.248ZM22.227 43.734C21.3101 43.734 19.9822 43.2948 19.9822 41.0988C19.9822 38.9029 21.3101 38.4637 22.227 38.4637C23.1439 38.4637 24.4718 38.9029 24.4718 41.0988C24.4718 43.2635 23.1123 43.734 22.227 43.734ZM22.227 39.248C21.1836 39.248 20.8042 40.2832 20.8042 41.0988C20.8042 41.9145 21.1836 42.9498 22.227 42.9498C23.2703 42.9498 23.6497 41.9145 23.6497 41.0988C23.6497 40.2832 23.2703 39.248 22.227 39.248ZM26.6851 42.04C26.7167 42.5419 27.0012 42.8243 27.5387 42.9811C27.7284 43.0438 27.9813 43.0438 28.2343 43.0438C28.4872 42.9811 28.7402 42.9184 28.8666 42.8243C29.0563 42.6988 29.1828 42.4792 29.1828 42.2282C29.1828 41.9772 29.0563 41.7263 28.6453 41.6008C28.0129 41.444 27.2225 41.2871 26.8115 41.0988C26.4321 40.9734 26.0843 40.6283 26.0843 39.9067C26.0843 38.9656 26.938 38.4323 27.9181 38.4323C29.5622 38.4323 29.7519 39.4048 29.7519 39.9382H28.9615C28.9615 39.6872 28.9299 39.1538 27.8232 39.1538C27.3174 39.1538 26.9696 39.4048 26.8747 39.6872C26.7482 39.9382 26.8431 40.2205 27.1277 40.3459C27.3806 40.5028 27.7916 40.5969 28.2975 40.6911C28.7085 40.7538 29.0879 40.8479 29.4357 41.0675C29.8467 41.3185 30.0365 41.789 29.9732 42.2909C29.91 42.7929 29.6255 43.2321 29.0879 43.4517C28.835 43.5772 28.5188 43.6399 28.1711 43.6399C27.8232 43.6399 27.5071 43.6399 27.2225 43.5772C26.0527 43.3262 25.9578 42.4164 25.9578 41.9772L26.6851 42.04ZM32.2813 41.3498C32.2497 41.6949 32.2813 41.9772 32.5342 42.4164C32.7555 42.6988 33.0717 43.0438 33.6408 43.0438C34.6209 43.0438 34.8423 42.2909 34.9688 42.0087H35.7592C35.6959 42.3224 35.6327 42.6674 35.3166 42.9811C34.9688 43.483 34.3048 43.7027 33.6408 43.7027C32.9768 43.7027 32.3129 43.4517 31.9019 42.9184C31.5541 42.5106 31.396 41.789 31.396 41.0675C31.396 40.3459 31.5857 39.6244 31.9967 39.1852C32.5342 38.5892 33.1982 38.4009 33.8305 38.4637C34.4629 38.4951 35.0004 38.8088 35.3166 39.1852C35.854 39.9067 35.854 40.5028 35.8856 41.4126L32.2813 41.3498ZM35.032 40.6597C35.0636 40.1891 34.7791 39.6244 34.6842 39.499C34.5578 39.2793 34.2099 39.0911 33.8305 39.0911C33.4511 39.0597 33.0085 39.1538 32.724 39.499C32.5975 39.6244 32.3129 40.1577 32.3129 40.6597H35.032ZM40.8496 45.5535V38.5578H41.5452V39.1852H41.5768C41.7032 38.997 41.9246 38.8088 42.2408 38.6205C42.4305 38.495 42.7466 38.4323 43.0944 38.4323C43.4422 38.4323 43.8216 38.495 44.0746 38.6205C44.8017 38.997 45.1811 39.844 45.276 40.7538C45.3708 41.6322 45.1495 42.5733 44.6437 43.0753C44.1694 43.5772 43.6635 43.734 43.1893 43.734C42.715 43.734 42.3356 43.5772 42.1143 43.4203C41.8929 43.2948 41.7349 43.1066 41.7032 42.9811H41.64V45.5535H40.8496ZM42.9363 39.1852C42.5569 39.2166 42.1775 39.4048 41.9878 39.7185C41.3238 40.7851 41.7665 42.1027 42.0194 42.4478C42.2408 42.7301 42.6202 42.9184 42.9996 42.9184C43.379 42.9184 43.79 42.7929 44.0429 42.4164C44.454 41.8517 44.5804 40.4401 43.9797 39.6245C43.7267 39.3107 43.3157 39.1538 42.9363 39.1852ZM47.5208 41.3498C47.4892 41.6949 47.5208 41.9772 47.7738 42.4164C47.9951 42.6988 48.3112 43.0438 48.8803 43.0438C49.8605 43.0438 50.0819 42.2909 50.2083 42.0087H50.9987C50.9355 42.3224 50.8723 42.6674 50.5561 42.9811C50.2083 43.483 49.5443 43.7027 48.8803 43.7027C48.2164 43.7027 47.5525 43.4517 47.1414 42.9184C46.7937 42.5106 46.6355 41.789 46.6355 41.0675C46.6355 40.3459 46.8252 39.6244 47.2362 39.1852C47.7738 38.5892 48.4378 38.4009 49.0701 38.4637C49.6708 38.4951 50.2399 38.8088 50.5561 39.1852C51.0936 39.9067 51.1252 40.5028 51.1252 41.4126L47.5208 41.3498ZM50.2716 40.6597C50.3032 40.1891 50.0186 39.6244 49.9237 39.499C49.7973 39.2793 49.4495 39.0911 49.0701 39.0911C48.6906 39.0597 48.248 39.1538 47.9635 39.499C47.837 39.6244 47.5525 40.1577 47.5525 40.6597H50.2716ZM52.9274 38.5892H53.7178V39.3735H53.7494C54.034 38.8088 54.5082 38.4951 54.8561 38.4637H55.2986V39.2793C55.0141 39.2793 54.7612 39.3107 54.5399 39.4048C53.9708 39.6558 53.7178 40.1264 53.7178 40.9734V43.5145H52.9274V38.5892ZM56.9744 39.3107H56.3105V38.5892H56.9744V37.7421C56.9744 36.9579 57.67 36.6755 57.7648 36.6442C58.0177 36.6127 58.2707 36.6127 58.5553 36.6442V37.3029C58.0494 37.2402 57.7648 37.3029 57.7648 37.8363V38.5578H58.5553V39.2793H57.7648V43.483H56.9744V39.3107ZM60.6736 41.3498C60.642 41.6949 60.6736 41.9772 60.9265 42.4164C61.1479 42.6988 61.4641 43.0438 62.0332 43.0438C63.0133 43.0438 63.2346 42.2909 63.3611 42.0087H64.1516C64.0883 42.3224 64.025 42.6674 63.7089 42.9811C63.3611 43.483 62.6972 43.7027 62.0332 43.7027C61.3692 43.7027 60.7052 43.4517 60.2942 42.9184C59.9464 42.5106 59.7884 41.789 59.7884 41.0675C59.7884 40.3459 59.9781 39.6244 60.4207 39.1852C60.9582 38.5892 61.6222 38.4009 62.2229 38.4637C62.8552 38.4951 63.3927 38.8088 63.7089 39.1852C64.2464 39.9067 64.278 40.5028 64.278 41.4126L60.6736 41.3498ZM63.4559 40.6597C63.4876 40.1891 63.203 39.6244 63.1082 39.499C62.9817 39.2793 62.6339 39.0911 62.2545 39.0911C61.8751 39.0597 61.4325 39.1538 61.1479 39.499C61.0214 39.6244 60.7368 40.1577 60.7368 40.6597H63.4559ZM69.9375 41.8204C69.9059 42.2282 69.811 42.6047 69.6846 42.8243C69.3052 43.483 68.5463 43.7654 67.8191 43.734C67.0919 43.7027 66.3964 43.3262 66.0802 42.6988C65.8905 42.2909 65.7324 41.6635 65.7324 41.0361C65.764 40.3774 65.9221 39.7185 66.4595 39.1225C66.8706 38.6833 67.4081 38.4637 67.9456 38.4637C68.4831 38.4637 68.9889 38.6205 69.3683 38.9029C69.7478 39.1538 69.9375 39.6872 69.9691 40.2519H69.1786C69.0838 39.7499 68.9889 39.499 68.6412 39.3421C68.5147 39.2793 68.2618 39.1538 67.9772 39.1852C67.6611 39.2166 67.3132 39.3107 66.9971 39.6872C66.7758 39.9382 66.6493 40.4087 66.6177 40.9106C66.5861 41.4126 66.6493 41.9145 66.8074 42.2282C67.1235 42.8243 67.5978 43.0125 68.0405 42.9811C68.4831 42.9498 68.8625 42.7301 68.989 42.4478C69.1155 42.2596 69.1786 42.0087 69.2419 41.789L69.9375 41.8204ZM72.4668 38.5892H73.2573V39.3107H72.4668V42.7301C72.4668 43.0438 72.8147 43.0753 73.2573 42.9811V43.6713C72.9095 43.734 72.6882 43.7654 72.4037 43.734C71.8345 43.6713 71.6764 43.2321 71.6764 43.0438V39.3107H70.9809V38.5892H71.6764V37.2716H72.4668V38.5892ZM75.597 37.648H74.8065V36.6755H75.597V37.648ZM75.597 43.5145H74.8065V38.5892H75.597V43.5145ZM79.5808 43.734C78.6639 43.734 77.3359 43.2948 77.3359 41.0988C77.3359 38.9029 78.6639 38.4637 79.5808 38.4637C80.4977 38.4637 81.8256 38.9029 81.8256 41.0988C81.7937 43.2635 80.4977 43.734 79.5808 43.734ZM79.5808 39.248C78.5374 39.248 78.158 40.2832 78.158 41.0988C78.158 41.9145 78.5374 42.9498 79.5808 42.9498C80.6241 42.9498 81.0035 41.9145 81.0035 41.0988C81.0035 40.2832 80.6241 39.248 79.5808 39.248ZM84.4181 38.5892V39.2166H84.45C84.6077 38.9656 84.7973 38.7774 85.0188 38.6833C85.2722 38.495 85.6514 38.4323 85.9987 38.4637C86.3469 38.4637 86.6943 38.5264 86.7899 38.5892C87.0424 38.7146 87.4536 38.9656 87.5802 39.6872V43.5145H86.7899V40.095C86.7899 39.499 86.3469 39.1538 85.8091 39.1538C85.1455 39.1538 84.4181 39.5617 84.45 40.8793V43.483H83.6596V38.5578L84.4181 38.5892Z" fill="white"/>
<path d="M92.2275 0.410645C93.8401 0.410645 95.2311 0.975328 96.3696 2.10469C97.5081 3.23405 98.077 4.61438 98.077 6.18294C98.077 7.7515 97.5081 9.16324 96.3696 10.2926C95.2311 11.422 93.8401 11.9866 92.2275 11.9866C90.615 11.9866 89.2558 11.422 88.1173 10.2926C86.9796 9.16324 86.4099 7.78287 86.4099 6.18294C86.4099 4.58301 86.9796 3.23405 88.1173 2.10469C89.2558 0.975328 90.6468 0.410645 92.2275 0.410645Z" fill="white"/>
<path d="M6.07065 28.2367C6.07065 31.468 7.2721 31.5307 8.91621 31.5622V32.7542C7.33533 32.7228 5.91255 32.6601 4.45816 32.6601C3.00377 32.6601 1.6126 32.6915 0.00012207 32.7542V31.5622C2.75083 31.5622 3.00377 30.8406 3.00377 26.3231V5.74363C3.00377 1.94771 2.49789 1.75948 0.00012207 1.634V0.441895C2.24495 0.441895 4.55301 0.536008 6.82946 0.536008C9.67499 0.536008 12.5838 0.536008 15.3978 0.441895L15.5875 6.99847L14.8602 7.1867C14.5441 3.23393 13.2161 1.94771 9.80151 1.94771H6.10226V15.0922H9.80151C12.3941 15.0922 12.6154 14.5276 13.0264 11.265H13.7537C13.6904 12.1434 13.6272 14.653 13.6272 16.3158C13.6272 17.7901 13.6904 19.9861 13.7537 21.2096H13.1213C12.7419 18.0098 12.7103 17.0059 9.95958 17.0059H6.10226L6.07065 28.2367Z" fill="white"/>
<path d="M23.3652 11.6099C27.7601 11.6099 31.0166 15.8763 31.0166 22.4642C31.0166 28.4561 27.7917 33.4756 23.7763 33.4756C19.7608 33.4756 16.1565 29.2091 16.1565 22.6211C16.1249 16.6292 19.1285 11.6099 23.3652 11.6099ZM23.7446 32.2834C26.9064 32.2834 28.1394 26.8876 28.1394 22.9349C28.1394 18.9821 26.7483 12.8333 23.3969 12.8333C20.2667 12.8333 19.0337 18.1978 19.0337 22.1819C19.0337 25.9465 20.4248 32.2834 23.7446 32.2834Z" fill="white"/>
<path d="M36.5182 27.0445C36.5182 30.1189 37.6564 30.9345 38.5101 30.9345C39.3638 30.9345 39.9961 30.5268 40.7233 29.5856L41.1976 30.2758C40.0909 31.9384 38.7314 33.4129 36.9924 33.4129C34.969 33.4129 33.9888 31.8443 33.9888 29.115V15.5313H31.9021V14.8097C33.5462 12.9588 34.5263 12.0804 36.1388 8.31592H36.5182V13.053H41.1976V15.5626H36.5182V27.0445Z" fill="white"/>
<path d="M50.4929 11.6099C54.8877 11.6099 58.1443 15.8763 58.1443 22.4642C58.1443 28.4561 54.9194 33.4756 50.9039 33.4756C46.8885 33.4756 43.2842 29.2091 43.2842 22.6211C43.2526 16.6292 46.2562 11.6099 50.4929 11.6099ZM50.8723 32.2834C54.0341 32.2834 55.2671 26.8876 55.2671 22.9349C55.2671 18.9821 53.876 12.8333 50.5245 12.8333C47.3944 12.8333 46.1613 18.1978 46.1613 22.1819C46.1613 25.9465 47.5525 32.2834 50.8723 32.2834Z" fill="white"/>
<path d="M61.4957 17.7275C61.4957 16.0334 61.1479 15.5628 59.6619 14.653V13.7746C61.0214 13.1159 62.3177 12.5198 63.8037 11.5474C63.8985 11.5474 63.9934 11.6414 63.9934 12.0179V15.0295C65.7956 13.1159 67.3449 11.5474 69.4632 11.5474C72.1506 11.5474 73.0992 14.4335 73.0992 18.0412V30.0249C73.0992 31.5622 73.7947 31.5622 74.68 31.5622H75.2491V32.7542C74.1426 32.7542 73.036 32.6602 71.8978 32.6602C70.7595 32.6602 69.6213 32.6915 68.5147 32.7542V31.5622H69.0838C69.9691 31.5622 70.6014 31.5622 70.6014 30.0249V18.0412C70.6014 15.406 69.4948 14.0884 67.6926 14.0884C66.6809 14.0884 65.0684 15.2805 64.0251 16.3157V30.0249C64.0251 31.5622 64.7206 31.5622 65.6059 31.5622H66.175V32.7542C65.0684 32.7542 63.9618 32.6602 62.8552 32.6602C61.7486 32.6602 60.5787 32.6915 59.4722 32.7542V31.5622H60.0413C60.9266 31.5622 61.5589 31.5622 61.5589 30.0249L61.4957 17.7275Z" fill="white"/>
<path d="M90.3306 30.9661C89.4455 32.1582 88.4655 33.4758 87.2011 33.4758C85.9359 33.4758 85.3033 31.719 85.2404 30.0249C83.7545 32.0327 82.3316 33.4758 80.403 33.4758C78.3795 33.4758 77.02 31.4367 77.02 28.9583C77.1465 25.2565 78.4428 24.5664 85.2404 21.1156V18.0412C85.2404 15.4374 84.1975 14.057 82.1739 14.057C80.7825 14.057 79.8339 15.2177 79.7707 17.2883C79.7707 18.6059 78.7589 19.2333 78.0001 19.2333C77.5259 19.2333 77.431 18.6372 77.431 18.2922C77.431 15.8452 78.8538 14.6845 81.067 13.0217C82.1739 12.1748 82.7108 11.5474 83.9123 11.5474C85.3352 11.5474 87.77 12.8649 87.77 15.4374V28.2681C87.77 30.1818 88.2121 30.9033 88.9085 30.9033C89.3188 30.9033 89.7936 30.621 90.0781 30.1191L90.3306 30.9661ZM85.2085 22.4959C83.5968 23.437 79.5178 24.5036 79.5178 27.9544C79.5178 29.774 80.5295 31.2798 81.7628 31.2798C83.2486 31.2798 84.1975 29.9622 85.2404 28.5819V22.4959H85.2085Z" fill="white"/>
</g>
</g>
<defs>
<clipPath id="clip0_13271_23134">
<rect width="98" height="46" fill="white"/>
</clipPath>
</defs>
</svg>
