<svg width="276" height="28" viewBox="0 0 276 28" fill="none" xmlns="http://www.w3.org/2000/svg">
<g clip-path="url(#clip0_13271_23164)">
<path d="M266.732 6.55817C263.321 6.55817 262.255 7.56386 261.631 8.69023C261.007 7.6242 259.82 6.55817 255.081 6.55817H254.015C250.574 6.55817 249.216 7.68455 248.773 8.81092V6.55817H243.732V21.191H248.773V13.1957C248.773 11.2447 249.628 9.99763 252.244 9.99763H253.129C256.208 9.99763 256.953 11.305 256.953 13.2862V21.191H261.993V13.3767C261.993 11.305 263.09 9.99763 265.816 9.99763H266.702C269.931 9.99763 270.233 11.5363 270.233 13.1052V21.191H275.274V12.19C275.274 8.84109 274.087 6.55817 268.07 6.55817H266.732ZM233.349 21.2211C240.221 21.2211 242.022 18.9986 242.022 16.7156V16.424H237.424C237.424 17.6409 236.77 17.842 234.285 17.842H231.206C228.721 17.842 227.886 16.957 227.886 15.5289V14.9657H242.022V12.8337C242.022 8.03654 240.362 6.49783 233.752 6.49783H231.417C225.25 6.49783 223.389 8.38853 223.389 12.894V14.8752C223.389 19.4411 224.677 21.2111 231.196 21.2111H233.349V21.2211ZM237.434 12.2504H227.946C227.946 11.3955 228.158 9.93729 231.025 9.93729H234.104C237.132 9.93729 237.434 11.2346 237.434 12.2504ZM209.333 15.0864V10.6413H219.706V6.55817H209.333V3.74224H204.413V6.55817H202.602V10.6413H204.413V14.8451C204.413 19.1092 206.546 21.1809 212.03 21.1809H213.66C220.652 21.1809 221.809 18.2443 221.779 15.1971H216.708C216.738 16.3838 216.296 17.6509 213.629 17.6509H212.321C210.229 17.661 209.333 16.8665 209.333 15.0864ZM182.299 16.8363C182.299 20.306 184.523 21.2211 187.873 21.2211H194.865C198.719 21.2211 201.325 19.6824 201.325 16.7458V15.9714C201.325 13.1555 199.282 11.9185 194.865 11.828L188.436 11.7073C186.988 11.6771 186.686 11.4358 186.686 10.7921C186.686 10.1384 187.068 9.72609 188.467 9.72609H193.598C195.228 9.72609 196.053 10.1083 196.053 10.8826H200.681C200.681 7.38284 198.759 6.49783 194.785 6.49783H188.145C183.728 6.49783 182.339 8.15722 182.339 10.9128V11.6269C182.339 14.5936 184.181 15.5088 187.35 15.5692L193.96 15.6898C195.499 15.72 195.882 16.1625 195.882 16.8464C195.882 17.5906 195.469 18.0331 193.96 18.0331H188.507C186.937 18.0331 186.666 17.4096 186.666 16.8464H182.299V16.8363ZM162.901 6.55817L169.743 21.191C168.998 22.7297 167.871 23.0314 165.386 23.0314V27.4464C171.493 27.4464 173.385 25.435 175.377 21.201L182.279 6.56823H177.54L172.59 16.786L167.65 6.55817H162.901ZM137.648 6.58834C137.648 11.6872 139.69 12.1599 145.264 12.3912L153.152 12.713C155.969 12.8337 156.593 13.5175 156.593 14.9959C156.593 16.6553 155.526 17.0676 153.363 17.0676H145.123C143.735 17.0676 142.719 16.3536 142.719 15.3479H137.678C137.678 19.3204 139.368 21.1809 144.61 21.1809H154.802C159.963 21.1809 161.734 19.3103 161.734 14.9356C161.734 9.5149 159.36 8.92154 154.712 8.74052L145.616 8.38853C144.198 8.32819 143.212 8.26784 143.212 6.63862C143.212 5.06975 144.218 4.71776 145.616 4.71776H153.887C155.959 4.71776 156.372 5.19043 156.402 6.43749H161.704C161.704 2.49518 159.249 0.634656 154.088 0.634656H145.053C139.791 0.634656 137.648 2.20353 137.648 6.58834ZM117.405 15.0864H122.144C123.683 15.0864 124.578 15.3278 124.578 16.5044C124.578 17.7213 123.663 17.8923 122.144 17.8923H117.405C115.956 17.8923 115.091 17.6811 115.091 16.5044C115.091 15.2373 116.037 15.0864 117.405 15.0864ZM110.292 16.1525V16.9771C110.292 19.9942 112.213 21.1809 116.459 21.1809H119.749C123.955 21.1809 124.347 20.4367 124.91 19.5215V21.1809H129.026V12.0895C129.026 8.8612 127.426 6.54811 122.093 6.54811H116.701C112.193 6.54811 110.412 7.93597 110.412 10.7821H115.091C115.091 10.0379 115.715 9.56519 118.23 9.56519H121.339C124.035 9.56519 124.87 10.1284 124.87 12.1398V13.2661C124.428 12.3811 123.774 11.7878 119.538 11.7878H116.489C111.62 11.7978 110.292 13.2561 110.292 16.1525ZM96.6891 15.0864V10.6413H107.062V6.55817H96.6891V3.74224H91.7692V6.55817H89.9582V10.6413H91.7692V14.8451C91.7692 19.1092 93.9021 21.1809 99.3854 21.1809H101.015C108.008 21.1809 109.165 18.2443 109.135 15.1971H104.064C104.094 16.3838 103.651 17.6509 100.985 17.6509H99.6772C97.5744 17.661 96.6891 16.8665 96.6891 15.0864ZM79.9876 6.55817C76.4562 6.55817 75.4802 7.71472 74.947 8.69023V6.55817H70.0573V21.191H75.0375V14.0204C75.0375 11.5062 76.4864 9.98757 79.2733 9.98757H79.9876C83.0663 9.98757 84.2535 11.4358 84.2535 14.0204V21.191H89.1734V13.2259C89.1734 8.78074 86.9801 6.55817 81.527 6.55817H79.9876ZM56.6659 15.0864H61.4047C62.9441 15.0864 63.8395 15.3278 63.8395 16.5044C63.8395 17.7213 62.924 17.8923 61.4047 17.8923H56.6659C55.2171 17.8923 54.3519 17.6811 54.3519 16.5044C54.3519 15.2373 55.3077 15.0864 56.6659 15.0864ZM49.5527 16.1525V16.9771C49.5527 19.9942 51.4744 21.1809 55.7202 21.1809H59.0102C63.2157 21.1809 63.6081 20.4367 64.1715 19.5215V21.1809H68.2865V12.0895C68.2865 8.8612 66.6868 6.54811 61.3544 6.54811H55.9516C51.4442 6.54811 49.6634 7.93597 49.6634 10.7821H54.3418C54.3418 10.0379 54.9656 9.56519 57.4809 9.56519H60.5898C63.2862 9.56519 64.1212 10.1284 64.1212 12.1398V13.2661C63.6785 12.3811 63.0246 11.7878 58.7888 11.7878H55.7504C50.8909 11.7978 49.5527 13.2561 49.5527 16.1525ZM38.9986 21.2211C41.6346 21.2211 42.7011 20.2154 43.2947 19.3505V21.191H48.2146V6.55817H43.2343V13.7589C43.2343 16.3335 41.7554 17.7616 38.9986 17.7616H37.077C34.0284 17.7616 32.8412 16.7559 32.8412 13.7589V6.55817H27.8811V14.6137C27.8811 19.3807 30.5171 21.2211 35.1754 21.2211H38.9986ZM22.3877 20.2154L24.6716 21.6636L27.2774 17.5202L25.0841 16.1323C25.2652 15.0965 25.3256 13.8494 25.3256 12.4012V9.91718C25.3256 2.45496 23.4542 0.554199 14.9827 0.554199H10.6263C2.44658 0.554199 0.786499 2.36444 0.786499 9.99763V12.4817C0.786499 19.7931 2.5975 21.191 10.5357 21.191H14.8922C18.4236 21.191 20.788 20.9798 22.3877 20.2154ZM20.3453 13.0449L14.2986 9.16291L11.4513 13.1354L16.8139 16.605C16.2203 16.6352 15.5361 16.6654 14.8016 16.6654H10.8879C6.41066 16.6654 5.75669 15.891 5.75669 12.2202V10.0881C5.75669 6.00504 6.41066 5.20049 11.0589 5.20049H14.701C19.6511 5.20049 20.3654 5.85419 20.3654 9.99763V12.1297C20.3755 12.4515 20.3755 12.7834 20.3453 13.0449Z" fill="white"/>
</g>
<defs>
<clipPath id="clip0_13271_23164">
<rect width="274.568" height="26.9525" fill="white" transform="translate(0.716064 0.523926)"/>
</clipPath>
</defs>
</svg>
