<svg width="977" height="88" viewBox="0 0 977 88" fill="none" xmlns="http://www.w3.org/2000/svg">
<path d="M16.188 51.5688C16.188 56.9505 17.2918 61.6094 19.4992 65.5453C21.7067 69.4813 24.8543 72.5336 28.9422 74.7024C33.1119 76.7909 38.0582 77.8351 43.7812 77.8351C49.586 77.8351 54.5324 76.7909 58.6203 74.7024C62.7082 72.5336 65.8558 69.4813 68.0633 65.5453C70.2707 61.6094 71.3745 56.9505 71.3745 51.5688L71.3745 0L87.5625 0L87.5625 52.1712C87.5625 60.1234 85.7229 67.1117 82.0438 73.1361C78.3648 79.0801 73.2549 83.739 66.7143 87.1126C60.1737 90.406 52.5293 92.0526 43.7812 92.0526C35.1149 92.0526 27.4706 90.406 20.8482 87.1126C14.3076 83.739 9.19774 79.0801 5.51864 73.1361C1.83955 67.1117 0 60.1234 0 52.1712L0 0L16.188 0L16.188 51.5688Z" fill="white"/>
<path d="M161.795 0C168.663 0 174.59 1.20488 179.577 3.61464C184.646 6.02439 188.53 9.39804 191.228 13.7356C194.008 17.9928 195.397 22.9328 195.397 28.5556C195.397 34.1784 194.008 39.1585 191.228 43.4961C188.53 47.7533 184.646 51.0868 179.577 53.4966C174.59 55.9063 168.663 57.1112 161.795 57.1112L120.466 57.1112L120.466 43.3756L161.182 43.3756C166.741 43.3756 171.074 42.0502 174.181 39.3995C177.37 36.7488 178.964 33.1341 178.964 28.5556C178.964 23.9771 177.37 20.3624 174.181 17.7117C171.074 15.061 166.741 13.7356 161.182 13.7356L122.061 13.7356L129.296 5.78342L129.296 90.3658H113.108L113.108 0L161.795 0Z" fill="white"/>
<path d="M256.384 0C266.849 0 276.006 1.88764 283.855 5.66293C291.785 9.43821 297.958 14.7397 302.373 21.5673C306.788 28.3146 308.995 36.1865 308.995 45.1829C308.995 54.1793 306.788 62.0914 302.373 68.919C297.958 75.6663 291.785 80.9276 283.855 84.7029C276.006 88.4782 266.849 90.3658 256.384 90.3658L214.81 90.3658L214.81 0L256.384 0ZM230.998 84.8234L222.046 76.3892H257.488C264.519 76.3892 270.651 75.104 275.883 72.5336C281.198 69.8829 285.285 66.2281 288.147 61.5692C291.09 56.8301 292.562 51.3679 292.562 45.1829C292.562 38.9175 291.09 33.4554 288.147 28.7966C285.285 24.1377 281.198 20.5231 275.883 17.9527C270.651 15.3019 264.519 13.9766 257.488 13.9766L222.046 13.9766L230.998 5.54244V84.8234Z" fill="white"/>
<path d="M337.878 69.6419V56.5088L402.14 56.5088V69.6419L337.878 69.6419ZM380.556 0L424.705 90.3658H407.413L367.311 6.02439L373.565 6.02439L333.463 90.3658H316.171L360.321 0L380.556 0Z" fill="white"/>
<path d="M455.677 7.34976L471.865 7.34976V90.3658H455.677V7.34976ZM417.66 0L509.883 0V13.9766L417.66 13.9766V0Z" fill="white"/>
<path d="M601.759 38.5561V51.8097L537.498 51.8097V38.5561L601.759 38.5561ZM548.167 45.1829L541.667 85.5463L533.941 76.6302L605.316 76.6302V90.3658L525.111 90.3658L532.47 45.1829L525.111 0L604.703 0V13.7356L533.941 13.7356L541.667 4.81951L548.167 45.1829Z" fill="white"/>
<g opacity="0.4">
<path d="M756.395 0V92.0526H741.012V4.90948L746.017 5.15495L703.41 92.0526H686.196L643.588 5.27769L648.594 5.03221V92.0526H633.211V0L657.872 0L698.893 85.0566H690.835L731.733 0L756.395 0Z" fill="white"/>
<path d="M856.108 39.2758V52.7768L792.136 52.7768V39.2758L856.108 39.2758ZM802.757 46.0263L796.287 87.1432L788.595 78.0606L859.649 78.0606V92.0526L779.805 92.0526L787.13 46.0263L779.805 0L859.038 0V13.992L788.595 13.992L796.287 4.90948L802.757 46.0263Z" fill="white"/>
<path d="M923.942 0C934.36 0 943.475 1.92288 951.289 5.76864C959.184 9.61439 965.328 15.0148 969.724 21.9699C974.119 28.8432 976.316 36.862 976.316 46.0263C976.316 55.1907 974.119 63.2504 969.724 70.2055C965.328 77.0787 959.184 82.4382 951.289 86.284C943.475 90.1298 934.36 92.0526 923.942 92.0526H882.555V0L923.942 0ZM898.67 86.4067L889.758 77.8152H925.04C932.04 77.8152 938.144 76.506 943.353 73.8876C948.644 71.1874 952.713 67.4643 955.562 62.7185C958.492 57.8909 959.957 52.3268 959.957 46.0263C959.957 39.644 958.492 34.0799 955.562 29.3341C952.713 24.5883 948.644 20.9062 943.353 18.2878C938.144 15.5876 932.04 14.2375 925.04 14.2375L889.758 14.2375L898.67 5.6459V86.4067Z" fill="white"/>
</g>
</svg>
