<svg width="296" height="28" viewBox="0 0 296 28" fill="none" xmlns="http://www.w3.org/2000/svg">
  <path
    d="M6.05117 15.7174C6.05117 17.3577 6.38539 18.7777 7.05385 19.9773C7.7223 21.1769 8.67547 22.1072 9.91334 22.7682C11.176 23.4048 12.6738 23.723 14.4068 23.723C16.1646 23.723 17.6625 23.4048 18.9003 22.7682C20.1382 22.1072 21.0914 21.1769 21.7598 19.9773C22.4283 18.7777 22.7625 17.3577 22.7625 15.7174V0H27.6645V15.901C27.6645 18.3248 27.1075 20.4547 25.9934 22.2908C24.8793 24.1025 23.3319 25.5225 21.3513 26.5507C19.3707 27.5545 17.0559 28.0563 14.4068 28.0563C11.7825 28.0563 9.46771 27.5545 7.46235 26.5507C5.48174 25.5225 3.93439 24.1025 2.8203 22.2908C1.70621 20.4547 1.14917 18.3248 1.14917 15.901V0H6.05117V15.7174Z"
    fill="#192939" />
  <path
    d="M50.1433 0C52.2229 0 54.0179 0.36723 55.5281 1.10169C57.063 1.83615 58.239 2.86439 59.056 4.18642C59.8978 5.48396 60.3187 6.9896 60.3187 8.70334C60.3187 10.4171 59.8978 11.935 59.056 13.257C58.239 14.5545 57.063 15.5705 55.5281 16.305C54.0179 17.0395 52.2229 17.4067 50.1433 17.4067H37.6284V13.2203H49.9576C51.6411 13.2203 52.9533 12.8163 53.8941 12.0084C54.8596 11.2005 55.3424 10.0988 55.3424 8.70334C55.3424 7.30787 54.8596 6.20618 53.8941 5.39827C52.9533 4.59037 51.6411 4.18642 49.9576 4.18642H38.1111L40.3022 1.7627V27.5422H35.4002V0H50.1433Z"
    fill="#192939" />
  <path
    d="M78.7864 0C81.9554 0 84.7282 0.575327 87.105 1.72598C89.5064 2.87663 91.3756 4.49244 92.7125 6.57341C94.0495 8.6299 94.7179 11.0291 94.7179 13.7711C94.7179 16.5131 94.0495 18.9246 92.7125 21.0055C91.3756 23.062 89.5064 24.6656 87.105 25.8162C84.7282 26.9669 81.9554 27.5422 78.7864 27.5422H66.1972V0H78.7864ZM71.0992 25.853L68.3883 23.2824H79.1207C81.2498 23.2824 83.1066 22.8906 84.6911 22.1072C86.3003 21.2993 87.5382 20.1854 88.4047 18.7654C89.296 17.321 89.7417 15.6562 89.7417 13.7711C89.7417 11.8615 89.296 10.1967 88.4047 8.77679C87.5382 7.35683 86.3003 6.25515 84.6911 5.47172C83.1066 4.66382 81.2498 4.25986 79.1207 4.25986H68.3883L71.0992 1.68926V25.853Z"
    fill="#192939" />
  <path
    d="M103.464 21.2259V17.2231H122.924V21.2259H103.464ZM116.388 0L129.757 27.5422H124.52L112.377 1.83615H114.271L102.127 27.5422H96.891L110.26 0H116.388Z"
    fill="#192939" />
  <path d="M139.136 2.2401H144.038V27.5422H139.136V2.2401ZM127.623 0H155.55V4.25986H127.623V0Z" fill="#192939" />
  <path
    d="M183.372 11.7513V15.7909H163.912V11.7513H183.372ZM167.143 13.7711L165.175 26.0733L162.835 23.3558H184.449V27.5422H160.161L162.39 13.7711L160.161 0H184.263V4.18642H162.835L165.175 1.46892L167.143 13.7711Z"
    fill="#192939" />
  <path
    d="M228.887 0V27.5422H224.208V1.46892L225.73 1.54237L212.77 27.5422H207.533L194.573 1.57909L196.095 1.50564V27.5422H191.416V0H198.918L211.396 25.449H208.945L221.385 0H228.887Z"
    fill="#6AC1EF" />
  <path
    d="M259.218 11.7513V15.7909H239.759V11.7513H259.218ZM242.99 13.7711L241.021 26.0733L238.682 23.3558H260.295V27.5422H236.008L238.236 13.7711L236.008 0H260.109V4.18642H238.682L241.021 1.46892L242.99 13.7711Z"
    fill="#6AC1EF" />
  <path
    d="M279.852 0C283.021 0 285.794 0.575327 288.171 1.72598C290.572 2.87663 292.441 4.49244 293.778 6.57341C295.115 8.6299 295.784 11.0291 295.784 13.7711C295.784 16.5131 295.115 18.9246 293.778 21.0055C292.441 23.062 290.572 24.6656 288.171 25.8162C285.794 26.9669 283.021 27.5422 279.852 27.5422H267.263V0H279.852ZM272.165 25.853L269.454 23.2824H280.186C282.315 23.2824 284.172 22.8906 285.757 22.1072C287.366 21.2993 288.604 20.1854 289.47 18.7654C290.362 17.321 290.807 15.6562 290.807 13.7711C290.807 11.8615 290.362 10.1967 289.47 8.77679C288.604 7.35683 287.366 6.25515 285.757 5.47172C284.172 4.66382 282.315 4.25986 280.186 4.25986H269.454L272.165 1.68926V25.853Z"
    fill="#6AC1EF" />
  <!-- <path
    d="M1.28369 44.6197V35.0468H2.26694V39.1166C2.52186 39.1166 2.76312 39.1256 2.99073 39.1437C3.22744 39.1617 3.45959 39.1842 3.6872 39.2113L7.36074 35.0468H8.43959L4.72508 39.4411C5.8631 39.7837 6.74165 40.3921 7.36074 41.2665C7.98893 42.1318 8.40772 43.2496 8.61712 44.6197H7.53827C7.3926 43.7994 7.18321 43.0963 6.91008 42.5104C6.64606 41.9155 6.3001 41.4332 5.8722 41.0637C5.45341 40.6851 4.94813 40.4101 4.35636 40.2389C3.76458 40.0676 3.06811 39.991 2.26694 40.009V44.6197H1.28369Z"
    fill="#192939" fill-opacity="0.8" /> -->
  <!-- <path
    d="M19.3428 41.4558C19.3428 41.9335 19.2564 42.3752 19.0834 42.7808C18.9195 43.1865 18.6873 43.538 18.3869 43.8355C18.0865 44.133 17.7269 44.3673 17.3081 44.5386C16.8893 44.7008 16.4295 44.782 15.9288 44.782C15.4372 44.782 14.9819 44.7008 14.5631 44.5386C14.1444 44.3673 13.7847 44.133 13.4843 43.8355C13.1839 43.538 12.9472 43.1865 12.7742 42.7808C12.6103 42.3752 12.5284 41.9335 12.5284 41.4558C12.5284 40.978 12.6103 40.5363 12.7742 40.1307C12.9472 39.7251 13.1839 39.3735 13.4843 39.0761C13.7847 38.7786 14.1444 38.5487 14.5631 38.3865C14.9819 38.2152 15.4372 38.1296 15.9288 38.1296C16.4295 38.1296 16.8893 38.2152 17.3081 38.3865C17.7269 38.5487 18.0865 38.7786 18.3869 39.0761C18.6873 39.3735 18.9195 39.7251 19.0834 40.1307C19.2564 40.5363 19.3428 40.978 19.3428 41.4558ZM18.3596 41.4558C18.3596 41.1042 18.3004 40.7752 18.1821 40.4687C18.0728 40.1532 17.9135 39.8828 17.7041 39.6575C17.4947 39.4231 17.2398 39.2383 16.9393 39.1031C16.6389 38.9679 16.302 38.9003 15.9288 38.9003C15.5555 38.9003 15.2187 38.9679 14.9182 39.1031C14.6269 39.2383 14.3765 39.4231 14.1671 39.6575C13.9577 39.8828 13.7938 40.1532 13.6755 40.4687C13.5662 40.7752 13.5116 41.1042 13.5116 41.4558C13.5116 41.8073 13.5662 42.1408 13.6755 42.4563C13.7938 42.7628 13.9577 43.0332 14.1671 43.2676C14.3765 43.493 14.6269 43.6732 14.9182 43.8084C15.2187 43.9346 15.5555 43.9977 15.9288 43.9977C16.302 43.9977 16.6389 43.9346 16.9393 43.8084C17.2398 43.6732 17.4947 43.493 17.7041 43.2676C17.9135 43.0332 18.0728 42.7628 18.1821 42.4563C18.3004 42.1408 18.3596 41.8073 18.3596 41.4558Z"
    fill="#192939" fill-opacity="0.8" /> -->
  <!-- <path
    d="M28.2649 39.7386C28.1101 39.4952 27.8825 39.2969 27.5821 39.1437C27.2907 38.9814 26.9721 38.9003 26.6261 38.9003C26.2529 38.9003 25.916 38.9679 25.6156 39.1031C25.3151 39.2293 25.0557 39.4096 24.8372 39.6439C24.6278 39.8693 24.4639 40.1397 24.3455 40.4552C24.2363 40.7617 24.1817 41.0952 24.1817 41.4558C24.1817 41.8163 24.2363 42.1499 24.3455 42.4563C24.4639 42.7628 24.6278 43.0332 24.8372 43.2676C25.0466 43.493 25.3015 43.6732 25.6019 43.8084C25.9023 43.9346 26.2392 43.9977 26.6125 43.9977C27.0222 43.9977 27.3681 43.9211 27.6504 43.7679C27.9326 43.6146 28.1647 43.4163 28.3468 43.173L29.0433 43.6868C28.7702 44.0203 28.4333 44.2862 28.0327 44.4845C27.6412 44.6828 27.1678 44.782 26.6125 44.782C26.0935 44.782 25.6247 44.7008 25.2059 44.5386C24.7871 44.3673 24.4275 44.133 24.127 43.8355C23.8357 43.538 23.6081 43.1865 23.4442 42.7808C23.2803 42.3752 23.1984 41.9335 23.1984 41.4558C23.1984 40.978 23.2803 40.5363 23.4442 40.1307C23.6081 39.7251 23.8357 39.3735 24.127 39.0761C24.4275 38.7786 24.7871 38.5487 25.2059 38.3865C25.6247 38.2152 26.0935 38.1296 26.6125 38.1296C27.0404 38.1296 27.4728 38.2242 27.9098 38.4135C28.3559 38.5938 28.7155 38.8642 28.9887 39.2248L28.2649 39.7386Z"
    fill="#192939" fill-opacity="0.8" /> -->
  <!-- <path
    d="M33.5499 38.2918L36.3494 41.5504L39.108 38.2918H39.9V44.6197H38.9714V39.6304L36.5269 42.6592H36.1446L33.6864 39.698V44.6197H32.7578V38.2918H33.5499Z"
    fill="#192939" fill-opacity="0.8" /> -->
  <!-- <path
    d="M49.5047 40.969C49.4774 40.3741 49.2816 39.8828 48.9175 39.4952C48.5624 39.0986 48.0526 38.9003 47.388 38.9003C47.0784 38.9003 46.7916 38.9589 46.5276 39.0761C46.2636 39.1842 46.0314 39.3375 45.8311 39.5358C45.6308 39.7251 45.4715 39.9459 45.3532 40.1983C45.2348 40.4417 45.1665 40.6986 45.1483 40.969H49.5047ZM50.447 41.2665C50.447 41.3296 50.447 41.3972 50.447 41.4693C50.447 41.5414 50.4424 41.618 50.4333 41.6992H45.1347C45.1438 42.0146 45.2075 42.3121 45.3259 42.5915C45.4442 42.871 45.6081 43.1144 45.8175 43.3217C46.0269 43.529 46.2727 43.6958 46.5549 43.822C46.8371 43.9392 47.1421 43.9977 47.4699 43.9977C47.9524 43.9977 48.3667 43.8896 48.7126 43.6732C49.0677 43.4479 49.3363 43.191 49.5183 42.9025L50.2148 43.4434C49.8324 43.9211 49.4091 44.2637 48.9448 44.471C48.4896 44.6783 47.9979 44.782 47.4699 44.782C46.9965 44.782 46.5549 44.7008 46.1452 44.5386C45.7446 44.3673 45.3987 44.133 45.1074 43.8355C44.816 43.538 44.5839 43.1865 44.4109 42.7808C44.247 42.3752 44.1651 41.9335 44.1651 41.4558C44.1651 40.978 44.247 40.5363 44.4109 40.1307C44.5748 39.7251 44.8024 39.3735 45.0937 39.0761C45.385 38.7786 45.7264 38.5487 46.1179 38.3865C46.5094 38.2152 46.9327 38.1296 47.388 38.1296C47.8887 38.1296 48.3302 38.2152 48.7126 38.3865C49.095 38.5487 49.4136 38.7741 49.6686 39.0625C49.9235 39.342 50.1147 39.671 50.2421 40.0496C50.3787 40.4282 50.447 40.8338 50.447 41.2665Z"
    fill="#192939" fill-opacity="0.8" />
  <path d="M53.6735 38.2918H59.2862V39.0625H56.869V44.6197H55.9404V39.0625H53.6735V38.2918Z" fill="#192939"
    fill-opacity="0.8" />
  <path
    d="M69.319 41.4558C69.319 41.9335 69.2325 42.3752 69.0595 42.7808C68.8956 43.1865 68.6635 43.538 68.3631 43.8355C68.0626 44.133 67.703 44.3673 67.2842 44.5386C66.8654 44.7008 66.4056 44.782 65.9049 44.782C65.4133 44.782 64.9581 44.7008 64.5393 44.5386C64.1205 44.3673 63.7609 44.133 63.4604 43.8355C63.16 43.538 62.9233 43.1865 62.7503 42.7808C62.5864 42.3752 62.5045 41.9335 62.5045 41.4558C62.5045 40.978 62.5864 40.5363 62.7503 40.1307C62.9233 39.7251 63.16 39.3735 63.4604 39.0761C63.7609 38.7786 64.1205 38.5487 64.5393 38.3865C64.9581 38.2152 65.4133 38.1296 65.9049 38.1296C66.4056 38.1296 66.8654 38.2152 67.2842 38.3865C67.703 38.5487 68.0626 38.7786 68.3631 39.0761C68.6635 39.3735 68.8956 39.7251 69.0595 40.1307C69.2325 40.5363 69.319 40.978 69.319 41.4558ZM68.3357 41.4558C68.3357 41.1042 68.2766 40.7752 68.1582 40.4687C68.049 40.1532 67.8896 39.8828 67.6802 39.6575C67.4708 39.4231 67.2159 39.2383 66.9155 39.1031C66.615 38.9679 66.2782 38.9003 65.9049 38.9003C65.5316 38.9003 65.1948 38.9679 64.8944 39.1031C64.603 39.2383 64.3527 39.4231 64.1433 39.6575C63.9339 39.8828 63.77 40.1532 63.6516 40.4687C63.5424 40.7752 63.4878 41.1042 63.4878 41.4558C63.4878 41.8073 63.5424 42.1408 63.6516 42.4563C63.77 42.7628 63.9339 43.0332 64.1433 43.2676C64.3527 43.493 64.603 43.6732 64.8944 43.8084C65.1948 43.9346 65.5316 43.9977 65.9049 43.9977C66.2782 43.9977 66.615 43.9346 66.9155 43.8084C67.2159 43.6732 67.4708 43.493 67.6802 43.2676C67.8896 43.0332 68.049 42.7628 68.1582 42.4563C68.2766 42.1408 68.3357 41.8073 68.3357 41.4558Z"
    fill="#192939" fill-opacity="0.8" />
  <path d="M77.9816 44.6197L75.8648 39.4006L73.6525 44.6197H72.6829L75.4825 38.2918H76.3018L78.9238 44.6197H77.9816Z"
    fill="#192939" fill-opacity="0.8" />
  <path
    d="M89.0987 41.4558C89.0987 41.9335 89.0122 42.3752 88.8393 42.7808C88.6754 43.1865 88.4432 43.538 88.1428 43.8355C87.8424 44.133 87.4827 44.3673 87.0639 44.5386C86.6451 44.7008 86.1854 44.782 85.6847 44.782C85.193 44.782 84.7378 44.7008 84.319 44.5386C83.9002 44.3673 83.5406 44.133 83.2402 43.8355C82.9397 43.538 82.703 43.1865 82.5301 42.7808C82.3662 42.3752 82.2842 41.9335 82.2842 41.4558C82.2842 40.978 82.3662 40.5363 82.5301 40.1307C82.703 39.7251 82.9397 39.3735 83.2402 39.0761C83.5406 38.7786 83.9002 38.5487 84.319 38.3865C84.7378 38.2152 85.193 38.1296 85.6847 38.1296C86.1854 38.1296 86.6451 38.2152 87.0639 38.3865C87.4827 38.5487 87.8424 38.7786 88.1428 39.0761C88.4432 39.3735 88.6754 39.7251 88.8393 40.1307C89.0122 40.5363 89.0987 40.978 89.0987 41.4558ZM88.1155 41.4558C88.1155 41.1042 88.0563 40.7752 87.938 40.4687C87.8287 40.1532 87.6694 39.8828 87.46 39.6575C87.2506 39.4231 86.9957 39.2383 86.6952 39.1031C86.3948 38.9679 86.0579 38.9003 85.6847 38.9003C85.3114 38.9003 84.9745 38.9679 84.6741 39.1031C84.3828 39.2383 84.1324 39.4231 83.923 39.6575C83.7136 39.8828 83.5497 40.1532 83.4314 40.4687C83.3221 40.7752 83.2675 41.1042 83.2675 41.4558C83.2675 41.8073 83.3221 42.1408 83.4314 42.4563C83.5497 42.7628 83.7136 43.0332 83.923 43.2676C84.1324 43.493 84.3828 43.6732 84.6741 43.8084C84.9745 43.9346 85.3114 43.9977 85.6847 43.9977C86.0579 43.9977 86.3948 43.9346 86.6952 43.8084C86.9957 43.6732 87.2506 43.493 87.46 43.2676C87.6694 43.0332 87.8287 42.7628 87.938 42.4563C88.0563 42.1408 88.1155 41.8073 88.1155 41.4558Z"
    fill="#192939" fill-opacity="0.8" />
  <path d="M94.2926 44.6197H93.364V38.2918H97.3243V39.0625H94.2926V44.6197Z" fill="#192939" fill-opacity="0.8" />
  <path
    d="M105.855 39.4682L101.936 44.6197H100.98V38.2918H101.936V43.2541L105.855 38.2918H106.811V44.6197H105.855V39.4682Z"
    fill="#192939" fill-opacity="0.8" /> -->
  <!-- <path
    d="M110.985 38.2918H111.914V39.2113C111.914 39.6259 111.927 39.9775 111.955 40.2659C111.982 40.5544 112.055 40.7932 112.173 40.9825C112.301 41.1628 112.496 41.2935 112.76 41.3746C113.024 41.4558 113.389 41.4963 113.853 41.4963H115.246V38.2918H116.174V44.6197H115.246V42.267H113.839C113.247 42.267 112.765 42.213 112.392 42.1048C112.018 41.9966 111.727 41.8344 111.518 41.618C111.308 41.4017 111.167 41.1358 111.094 40.8203C111.021 40.4958 110.985 40.1262 110.985 39.7115V38.2918Z"
    fill="#192939" fill-opacity="0.8" />
  <path
    d="M125.77 40.969C125.742 40.3741 125.547 39.8828 125.182 39.4952C124.827 39.0986 124.318 38.9003 123.653 38.9003C123.343 38.9003 123.057 38.9589 122.793 39.0761C122.529 39.1842 122.296 39.3375 122.096 39.5358C121.896 39.7251 121.737 39.9459 121.618 40.1983C121.5 40.4417 121.432 40.6986 121.413 40.969H125.77ZM126.712 41.2665C126.712 41.3296 126.712 41.3972 126.712 41.4693C126.712 41.5414 126.707 41.618 126.698 41.6992H121.4C121.409 42.0146 121.473 42.3121 121.591 42.5915C121.709 42.871 121.873 43.1144 122.083 43.3217C122.292 43.529 122.538 43.6958 122.82 43.822C123.102 43.9392 123.407 43.9977 123.735 43.9977C124.217 43.9977 124.632 43.8896 124.978 43.6732C125.333 43.4479 125.601 43.191 125.783 42.9025L126.48 43.4434C126.097 43.9211 125.674 44.2637 125.21 44.471C124.755 44.6783 124.263 44.782 123.735 44.782C123.261 44.782 122.82 44.7008 122.41 44.5386C122.01 44.3673 121.664 44.133 121.372 43.8355C121.081 43.538 120.849 43.1865 120.676 42.7808C120.512 42.3752 120.43 41.9335 120.43 41.4558C120.43 40.978 120.512 40.5363 120.676 40.1307C120.84 39.7251 121.067 39.3735 121.359 39.0761C121.65 38.7786 121.991 38.5487 122.383 38.3865C122.774 38.2152 123.198 38.1296 123.653 38.1296C124.154 38.1296 124.595 38.2152 124.978 38.3865C125.36 38.5487 125.679 38.7741 125.934 39.0625C126.188 39.342 126.38 39.671 126.507 40.0496C126.644 40.4282 126.712 40.8338 126.712 41.2665Z"
    fill="#192939" fill-opacity="0.8" />
  <path
    d="M135.633 39.7386C135.478 39.4952 135.251 39.2969 134.95 39.1437C134.659 38.9814 134.34 38.9003 133.994 38.9003C133.621 38.9003 133.284 38.9679 132.984 39.1031C132.683 39.2293 132.424 39.4096 132.205 39.6439C131.996 39.8693 131.832 40.1397 131.714 40.4552C131.605 40.7617 131.55 41.0952 131.55 41.4558C131.55 41.8163 131.605 42.1499 131.714 42.4563C131.832 42.7628 131.996 43.0332 132.205 43.2676C132.415 43.493 132.67 43.6732 132.97 43.8084C133.271 43.9346 133.607 43.9977 133.981 43.9977C134.39 43.9977 134.736 43.9211 135.019 43.7679C135.301 43.6146 135.533 43.4163 135.715 43.173L136.412 43.6868C136.138 44.0203 135.802 44.2862 135.401 44.4845C135.01 44.6828 134.536 44.782 133.981 44.782C133.462 44.782 132.993 44.7008 132.574 44.5386C132.155 44.3673 131.796 44.133 131.495 43.8355C131.204 43.538 130.976 43.1865 130.812 42.7808C130.649 42.3752 130.567 41.9335 130.567 41.4558C130.567 40.978 130.649 40.5363 130.812 40.1307C130.976 39.7251 131.204 39.3735 131.495 39.0761C131.796 38.7786 132.155 38.5487 132.574 38.3865C132.993 38.2152 133.462 38.1296 133.981 38.1296C134.409 38.1296 134.841 38.2242 135.278 38.4135C135.724 38.5938 136.084 38.8642 136.357 39.2248L135.633 39.7386Z"
    fill="#192939" fill-opacity="0.8" />
  <path
    d="M141.055 40.8879C141.419 40.8879 141.76 40.9149 142.079 40.969L144.373 38.2918H145.411L142.926 41.1583C143.681 41.3927 144.268 41.7938 144.687 42.3617C145.106 42.9206 145.438 43.6732 145.684 44.6197H144.646C144.519 44.0608 144.355 43.5966 144.155 43.227C143.964 42.8485 143.718 42.5465 143.417 42.3211C143.126 42.0868 142.785 41.9245 142.393 41.8344C142.002 41.7352 141.555 41.6811 141.055 41.6721V44.6197H140.126V38.2918H141.055V40.8879Z"
    fill="#192939" fill-opacity="0.8" />
  <path
    d="M156.267 41.4558C156.267 41.9335 156.181 42.3752 156.008 42.7808C155.844 43.1865 155.612 43.538 155.311 43.8355C155.011 44.133 154.651 44.3673 154.233 44.5386C153.814 44.7008 153.354 44.782 152.853 44.782C152.362 44.782 151.906 44.7008 151.488 44.5386C151.069 44.3673 150.709 44.133 150.409 43.8355C150.108 43.538 149.872 43.1865 149.699 42.7808C149.535 42.3752 149.453 41.9335 149.453 41.4558C149.453 40.978 149.535 40.5363 149.699 40.1307C149.872 39.7251 150.108 39.3735 150.409 39.0761C150.709 38.7786 151.069 38.5487 151.488 38.3865C151.906 38.2152 152.362 38.1296 152.853 38.1296C153.354 38.1296 153.814 38.2152 154.233 38.3865C154.651 38.5487 155.011 38.7786 155.311 39.0761C155.612 39.3735 155.844 39.7251 156.008 40.1307C156.181 40.5363 156.267 40.978 156.267 41.4558ZM155.284 41.4558C155.284 41.1042 155.225 40.7752 155.107 40.4687C154.997 40.1532 154.838 39.8828 154.629 39.6575C154.419 39.4231 154.164 39.2383 153.864 39.1031C153.563 38.9679 153.227 38.9003 152.853 38.9003C152.48 38.9003 152.143 38.9679 151.843 39.1031C151.551 39.2383 151.301 39.4231 151.092 39.6575C150.882 39.8828 150.718 40.1532 150.6 40.4687C150.491 40.7752 150.436 41.1042 150.436 41.4558C150.436 41.8073 150.491 42.1408 150.6 42.4563C150.718 42.7628 150.882 43.0332 151.092 43.2676C151.301 43.493 151.551 43.6732 151.843 43.8084C152.143 43.9346 152.48 43.9977 152.853 43.9977C153.227 43.9977 153.563 43.9346 153.864 43.8084C154.164 43.6732 154.419 43.493 154.629 43.2676C154.838 43.0332 154.997 42.7628 155.107 42.4563C155.225 42.1408 155.284 41.8073 155.284 41.4558Z"
    fill="#192939" fill-opacity="0.8" />
  <path
    d="M165.463 40.969C165.435 40.3741 165.239 39.8828 164.875 39.4952C164.52 39.0986 164.01 38.9003 163.346 38.9003C163.036 38.9003 162.749 38.9589 162.485 39.0761C162.221 39.1842 161.989 39.3375 161.789 39.5358C161.589 39.7251 161.429 39.9459 161.311 40.1983C161.193 40.4417 161.124 40.6986 161.106 40.969H165.463ZM166.405 41.2665C166.405 41.3296 166.405 41.3972 166.405 41.4693C166.405 41.5414 166.4 41.618 166.391 41.6992H161.093C161.102 42.0146 161.165 42.3121 161.284 42.5915C161.402 42.871 161.566 43.1144 161.775 43.3217C161.985 43.529 162.231 43.6958 162.513 43.822C162.795 43.9392 163.1 43.9977 163.428 43.9977C163.91 43.9977 164.325 43.8896 164.67 43.6732C165.026 43.4479 165.294 43.191 165.476 42.9025L166.173 43.4434C165.79 43.9211 165.367 44.2637 164.903 44.471C164.447 44.6783 163.956 44.782 163.428 44.782C162.954 44.782 162.513 44.7008 162.103 44.5386C161.703 44.3673 161.357 44.133 161.065 43.8355C160.774 43.538 160.542 43.1865 160.369 42.7808C160.205 42.3752 160.123 41.9335 160.123 41.4558C160.123 40.978 160.205 40.5363 160.369 40.1307C160.533 39.7251 160.76 39.3735 161.052 39.0761C161.343 38.7786 161.684 38.5487 162.076 38.3865C162.467 38.2152 162.891 38.1296 163.346 38.1296C163.847 38.1296 164.288 38.2152 164.67 38.3865C165.053 38.5487 165.372 38.7741 165.626 39.0625C165.881 39.342 166.073 39.671 166.2 40.0496C166.337 40.4282 166.405 40.8338 166.405 41.2665Z"
    fill="#192939" fill-opacity="0.8" /> -->
  <!-- <path
    d="M182.81 41.4558C182.81 41.9335 182.723 42.3752 182.55 42.7808C182.386 43.1865 182.154 43.538 181.854 43.8355C181.553 44.133 181.194 44.3673 180.775 44.5386C180.356 44.7008 179.896 44.782 179.396 44.782C178.904 44.782 178.449 44.7008 178.03 44.5386C177.611 44.3673 177.252 44.133 176.951 43.8355C176.651 43.538 176.414 43.1865 176.241 42.7808C176.077 42.3752 175.995 41.9335 175.995 41.4558C175.995 40.978 176.077 40.5363 176.241 40.1307C176.414 39.7251 176.651 39.3735 176.951 39.0761C177.252 38.7786 177.611 38.5487 178.03 38.3865C178.449 38.2152 178.904 38.1296 179.396 38.1296C179.896 38.1296 180.356 38.2152 180.775 38.3865C181.194 38.5487 181.553 38.7786 181.854 39.0761C182.154 39.3735 182.386 39.7251 182.55 40.1307C182.723 40.5363 182.81 40.978 182.81 41.4558ZM181.826 41.4558C181.826 41.1042 181.767 40.7752 181.649 40.4687C181.54 40.1532 181.38 39.8828 181.171 39.6575C180.962 39.4231 180.707 39.2383 180.406 39.1031C180.106 38.9679 179.769 38.9003 179.396 38.9003C179.022 38.9003 178.685 38.9679 178.385 39.1031C178.094 39.2383 177.843 39.4231 177.634 39.6575C177.425 39.8828 177.261 40.1532 177.142 40.4687C177.033 40.7752 176.978 41.1042 176.978 41.4558C176.978 41.8073 177.033 42.1408 177.142 42.4563C177.261 42.7628 177.425 43.0332 177.634 43.2676C177.843 43.493 178.094 43.6732 178.385 43.8084C178.685 43.9346 179.022 43.9977 179.396 43.9977C179.769 43.9977 180.106 43.9346 180.406 43.8084C180.707 43.6732 180.962 43.493 181.171 43.2676C181.38 43.0332 181.54 42.7628 181.649 42.4563C181.767 42.1408 181.826 41.8073 181.826 41.4558Z"
    fill="#192939" fill-opacity="0.8" />
  <path
    d="M192.333 41.591C192.333 41.2394 192.278 40.9194 192.169 40.631C192.059 40.3335 191.905 40.0766 191.704 39.8603C191.513 39.6439 191.281 39.4772 191.008 39.36C190.735 39.2428 190.43 39.1842 190.093 39.1842C189.783 39.1842 189.488 39.2338 189.205 39.333C188.923 39.4231 188.673 39.5628 188.454 39.7521C188.236 39.9414 188.063 40.1803 187.935 40.4687C187.808 40.7482 187.744 41.0772 187.744 41.4558C187.744 41.8344 187.799 42.1814 187.908 42.4969C188.026 42.8034 188.186 43.0693 188.386 43.2946C188.595 43.511 188.846 43.6823 189.137 43.8084C189.428 43.9346 189.752 43.9977 190.107 43.9977C190.462 43.9977 190.776 43.9346 191.049 43.8084C191.331 43.6823 191.568 43.511 191.759 43.2946C191.95 43.0693 192.091 42.8124 192.182 42.5239C192.283 42.2265 192.333 41.9155 192.333 41.591ZM190.148 38.4C190.612 38.4 191.04 38.4766 191.431 38.6299C191.823 38.7831 192.155 38.9994 192.428 39.2789C192.71 39.5583 192.929 39.8963 193.084 40.293C193.238 40.6806 193.316 41.1132 193.316 41.591C193.316 42.0777 193.229 42.5194 193.056 42.9161C192.883 43.3127 192.651 43.6507 192.36 43.9301C192.069 44.2006 191.727 44.4124 191.336 44.5656C190.944 44.7099 190.53 44.782 190.093 44.782C189.583 44.782 189.123 44.7008 188.714 44.5386C188.313 44.3763 187.972 44.1465 187.689 43.849C187.407 43.5425 187.189 43.1775 187.034 42.7538C186.879 42.3211 186.802 41.8389 186.802 41.307C186.802 41.0456 186.806 40.7932 186.815 40.5499C186.834 40.3065 186.852 40.0676 186.87 39.8332C187.016 38.2377 187.439 37.0434 188.14 36.2501C188.85 35.4569 189.92 35.0603 191.349 35.0603H193.193V35.8445H191.322C190.657 35.8445 190.107 35.9346 189.67 36.1149C189.242 36.2952 188.891 36.5521 188.618 36.8856C188.345 37.2192 188.136 37.6203 187.99 38.089C187.853 38.5577 187.749 39.0761 187.676 39.6439C187.912 39.2654 188.249 38.9634 188.686 38.738C189.123 38.5127 189.61 38.4 190.148 38.4Z"
    fill="#192939" fill-opacity="0.8" />
  <path
    d="M203.976 41.4558C203.976 41.9335 203.89 42.3752 203.717 42.7808C203.553 43.1865 203.321 43.538 203.02 43.8355C202.72 44.133 202.36 44.3673 201.942 44.5386C201.523 44.7008 201.063 44.782 200.562 44.782C200.071 44.782 199.615 44.7008 199.197 44.5386C198.778 44.3673 198.418 44.133 198.118 43.8355C197.817 43.538 197.581 43.1865 197.408 42.7808C197.244 42.3752 197.162 41.9335 197.162 41.4558C197.162 40.978 197.244 40.5363 197.408 40.1307C197.581 39.7251 197.817 39.3735 198.118 39.0761C198.418 38.7786 198.778 38.5487 199.197 38.3865C199.615 38.2152 200.071 38.1296 200.562 38.1296C201.063 38.1296 201.523 38.2152 201.942 38.3865C202.36 38.5487 202.72 38.7786 203.02 39.0761C203.321 39.3735 203.553 39.7251 203.717 40.1307C203.89 40.5363 203.976 40.978 203.976 41.4558ZM202.993 41.4558C202.993 41.1042 202.934 40.7752 202.816 40.4687C202.706 40.1532 202.547 39.8828 202.338 39.6575C202.128 39.4231 201.873 39.2383 201.573 39.1031C201.272 38.9679 200.936 38.9003 200.562 38.9003C200.189 38.9003 199.852 38.9679 199.552 39.1031C199.26 39.2383 199.01 39.4231 198.801 39.6575C198.591 39.8828 198.427 40.1532 198.309 40.4687C198.2 40.7752 198.145 41.1042 198.145 41.4558C198.145 41.8073 198.2 42.1408 198.309 42.4563C198.427 42.7628 198.591 43.0332 198.801 43.2676C199.01 43.493 199.26 43.6732 199.552 43.8084C199.852 43.9346 200.189 43.9977 200.562 43.9977C200.936 43.9977 201.272 43.9346 201.573 43.8084C201.873 43.6732 202.128 43.493 202.338 43.2676C202.547 43.0332 202.706 42.7628 202.816 42.4563C202.934 42.1408 202.993 41.8073 202.993 41.4558Z"
    fill="#192939" fill-opacity="0.8" />
  <path
    d="M209.225 47.8648H208.296V38.2918H209.225V39.387H209.266C209.53 38.9724 209.88 38.6614 210.317 38.4541C210.763 38.2377 211.214 38.1296 211.669 38.1296C212.17 38.1296 212.621 38.2152 213.021 38.3865C213.431 38.5577 213.777 38.7921 214.059 39.0896C214.351 39.387 214.574 39.7386 214.728 40.1442C214.892 40.5499 214.974 40.987 214.974 41.4558C214.974 41.9245 214.892 42.3617 214.728 42.7673C214.574 43.173 214.351 43.5245 214.059 43.822C213.777 44.1194 213.431 44.3538 213.021 44.5251C212.621 44.6963 212.17 44.782 211.669 44.782C211.214 44.782 210.763 44.6783 210.317 44.471C209.88 44.2546 209.53 43.9482 209.266 43.5515H209.225V47.8648ZM213.991 41.4558C213.991 41.1042 213.936 40.7752 213.827 40.4687C213.718 40.1532 213.558 39.8828 213.349 39.6575C213.149 39.4231 212.898 39.2383 212.598 39.1031C212.298 38.9679 211.956 38.9003 211.574 38.9003C211.219 38.9003 210.891 38.9679 210.59 39.1031C210.29 39.2293 210.031 39.4096 209.812 39.6439C209.594 39.8693 209.421 40.1397 209.293 40.4552C209.175 40.7617 209.116 41.0952 209.116 41.4558C209.116 41.8163 209.175 42.1544 209.293 42.4699C209.421 42.7763 209.594 43.0423 209.812 43.2676C210.031 43.493 210.29 43.6732 210.59 43.8084C210.891 43.9346 211.219 43.9977 211.574 43.9977C211.956 43.9977 212.298 43.9346 212.598 43.8084C212.898 43.6732 213.149 43.493 213.349 43.2676C213.558 43.0332 213.718 42.7628 213.827 42.4563C213.936 42.1408 213.991 41.8073 213.991 41.4558Z"
    fill="#192939" fill-opacity="0.8" />
  <path
    d="M221.485 43.6327H221.512L223.492 38.2918H224.503L221.321 46.2558C221.13 46.7425 220.884 47.1301 220.584 47.4186C220.292 47.7161 219.869 47.8648 219.314 47.8648C219.031 47.8648 218.754 47.8377 218.481 47.7837L218.576 46.9454C218.795 47.0175 219.022 47.0535 219.259 47.0535C219.578 47.0535 219.828 46.9544 220.01 46.7561C220.192 46.5668 220.352 46.2918 220.488 45.9313L221.007 44.6062L218.276 38.2918H219.314L221.485 43.6327Z"
    fill="#192939" fill-opacity="0.8" />
  <path
    d="M227.962 46.4992H227.047V43.822H228.071L230.42 38.2918H231.239L233.411 43.822H234.476V46.4992H233.575V44.6197H227.962V46.4992ZM229.013 43.822H232.482L230.802 39.4006L229.013 43.822Z"
    fill="#192939" fill-opacity="0.8" />
  <path
    d="M244.376 41.4558C244.376 41.9335 244.29 42.3752 244.117 42.7808C243.953 43.1865 243.721 43.538 243.42 43.8355C243.12 44.133 242.76 44.3673 242.341 44.5386C241.922 44.7008 241.463 44.782 240.962 44.782C240.47 44.782 240.015 44.7008 239.596 44.5386C239.178 44.3673 238.818 44.133 238.518 43.8355C238.217 43.538 237.98 43.1865 237.807 42.7808C237.643 42.3752 237.562 41.9335 237.562 41.4558C237.562 40.978 237.643 40.5363 237.807 40.1307C237.98 39.7251 238.217 39.3735 238.518 39.0761C238.818 38.7786 239.178 38.5487 239.596 38.3865C240.015 38.2152 240.47 38.1296 240.962 38.1296C241.463 38.1296 241.922 38.2152 242.341 38.3865C242.76 38.5487 243.12 38.7786 243.42 39.0761C243.721 39.3735 243.953 39.7251 244.117 40.1307C244.29 40.5363 244.376 40.978 244.376 41.4558ZM243.393 41.4558C243.393 41.1042 243.334 40.7752 243.215 40.4687C243.106 40.1532 242.947 39.8828 242.737 39.6575C242.528 39.4231 242.273 39.2383 241.973 39.1031C241.672 38.9679 241.335 38.9003 240.962 38.9003C240.589 38.9003 240.252 38.9679 239.951 39.1031C239.66 39.2383 239.41 39.4231 239.2 39.6575C238.991 39.8828 238.827 40.1532 238.709 40.4687C238.599 40.7752 238.545 41.1042 238.545 41.4558C238.545 41.8073 238.599 42.1408 238.709 42.4563C238.827 42.7628 238.991 43.0332 239.2 43.2676C239.41 43.493 239.66 43.6732 239.951 43.8084C240.252 43.9346 240.589 43.9977 240.962 43.9977C241.335 43.9977 241.672 43.9346 241.973 43.8084C242.273 43.6732 242.528 43.493 242.737 43.2676C242.947 43.0332 243.106 42.7628 243.215 42.4563C243.334 42.1408 243.393 41.8073 243.393 41.4558Z"
    fill="#192939" fill-opacity="0.8" />
  <path
    d="M251.564 44.6197H248.641V38.2918H251.4C252.21 38.2918 252.811 38.4496 253.202 38.7651C253.594 39.0715 253.79 39.4817 253.79 39.9955C253.79 40.2299 253.753 40.4282 253.68 40.5904C253.608 40.7437 253.503 40.8744 253.366 40.9825C253.239 41.0817 253.089 41.1628 252.916 41.2259C252.743 41.289 252.561 41.3476 252.369 41.4017C252.606 41.4197 252.829 41.4603 253.039 41.5234C253.248 41.5865 253.43 41.6811 253.585 41.8073C253.749 41.9245 253.876 42.0777 253.967 42.267C254.058 42.4473 254.104 42.6682 254.104 42.9296C254.104 43.4434 253.89 43.8535 253.462 44.16C253.034 44.4665 252.401 44.6197 251.564 44.6197ZM249.57 43.8761H250.758C251.095 43.8761 251.404 43.8715 251.687 43.8625C251.969 43.8445 252.215 43.8039 252.424 43.7408C252.633 43.6687 252.797 43.5606 252.916 43.4163C253.034 43.2721 253.093 43.0693 253.093 42.8079C253.093 42.3752 252.929 42.0913 252.602 41.9561C252.283 41.8208 251.85 41.7532 251.304 41.7532H249.57V43.8761ZM251.345 41.0907C251.8 41.0907 252.155 41.0231 252.41 40.8879C252.674 40.7437 252.806 40.4642 252.806 40.0496C252.806 39.8152 252.756 39.6304 252.656 39.4952C252.556 39.36 252.415 39.2608 252.233 39.1977C252.051 39.1256 251.832 39.0806 251.577 39.0625C251.322 39.0445 251.04 39.0355 250.731 39.0355H249.57V41.0907H251.345Z"
    fill="#192939" fill-opacity="0.8" /> -->
  <!-- <path
    d="M262.434 40.5363C262.434 39.9865 262.289 39.5763 261.997 39.3059C261.706 39.0355 261.283 38.9003 260.727 38.9003C260.345 38.9003 259.99 38.9679 259.662 39.1031C259.334 39.2383 259.057 39.4186 258.829 39.6439L258.31 39.0355C258.574 38.7741 258.92 38.5577 259.348 38.3865C259.785 38.2152 260.277 38.1296 260.823 38.1296C261.169 38.1296 261.492 38.1792 261.793 38.2783C262.093 38.3685 262.357 38.5082 262.585 38.6975C262.812 38.8868 262.99 39.1256 263.117 39.4141C263.245 39.7025 263.308 40.0406 263.308 40.4282V43.2C263.308 43.4434 263.317 43.6958 263.336 43.9572C263.354 44.2186 263.381 44.4394 263.418 44.6197H262.585C262.557 44.4665 262.534 44.2997 262.516 44.1194C262.498 43.9392 262.489 43.7634 262.489 43.5921H262.462C262.17 44.0158 261.838 44.3223 261.465 44.5115C261.101 44.6918 260.659 44.782 260.14 44.782C259.894 44.782 259.639 44.7459 259.375 44.6738C259.12 44.6107 258.884 44.5025 258.665 44.3493C258.456 44.1961 258.278 43.9977 258.133 43.7544C257.996 43.511 257.928 43.2135 257.928 42.862C257.928 42.3752 258.051 41.9921 258.296 41.7127C258.551 41.4242 258.888 41.2124 259.307 41.0772C259.726 40.933 260.204 40.8428 260.741 40.8068C261.287 40.7617 261.852 40.7392 262.434 40.7392V40.5363ZM262.161 41.4558C261.779 41.4558 261.392 41.4738 261 41.5099C260.618 41.5369 260.268 41.6 259.949 41.6992C259.639 41.7893 259.384 41.9245 259.184 42.1048C258.984 42.2851 258.884 42.5239 258.884 42.8214C258.884 43.0468 258.925 43.2361 259.007 43.3893C259.098 43.5425 259.216 43.6687 259.362 43.7679C259.507 43.858 259.667 43.9256 259.84 43.9707C260.022 44.0068 260.204 44.0248 260.386 44.0248C260.714 44.0248 261.005 43.9707 261.26 43.8625C261.515 43.7454 261.729 43.5921 261.902 43.4028C262.075 43.2045 262.207 42.9792 262.298 42.7268C262.389 42.4744 262.434 42.2084 262.434 41.929V41.4558H262.161Z"
    fill="#192939" fill-opacity="0.8" />
  <path
    d="M268.896 44.6197H267.968V38.2918H268.896V40.8473H272.542V38.2918H273.471V44.6197H272.542V41.618H268.896V44.6197Z"
    fill="#192939" fill-opacity="0.8" />
  <path d="M283.02 39.4682L279.1 44.6197H278.144V38.2918H279.1V43.2541L283.02 38.2918H283.975V44.6197H283.02V39.4682Z"
    fill="#192939" fill-opacity="0.8" />
  <path
    d="M293.571 40.969C293.543 40.3741 293.348 39.8828 292.984 39.4952C292.629 39.0986 292.119 38.9003 291.454 38.9003C291.145 38.9003 290.858 38.9589 290.594 39.0761C290.33 39.1842 290.098 39.3375 289.897 39.5358C289.697 39.7251 289.538 39.9459 289.419 40.1983C289.301 40.4417 289.233 40.6986 289.214 40.969H293.571ZM294.513 41.2665C294.513 41.3296 294.513 41.3972 294.513 41.4693C294.513 41.5414 294.509 41.618 294.499 41.6992H289.201C289.21 42.0146 289.274 42.3121 289.392 42.5915C289.51 42.871 289.674 43.1144 289.884 43.3217C290.093 43.529 290.339 43.6958 290.621 43.822C290.903 43.9392 291.208 43.9977 291.536 43.9977C292.019 43.9977 292.433 43.8896 292.779 43.6732C293.134 43.4479 293.402 43.191 293.584 42.9025L294.281 43.4434C293.899 43.9211 293.475 44.2637 293.011 44.471C292.556 44.6783 292.064 44.782 291.536 44.782C291.063 44.782 290.621 44.7008 290.211 44.5386C289.811 44.3673 289.465 44.133 289.173 43.8355C288.882 43.538 288.65 43.1865 288.477 42.7808C288.313 42.3752 288.231 41.9335 288.231 41.4558C288.231 40.978 288.313 40.5363 288.477 40.1307C288.641 39.7251 288.868 39.3735 289.16 39.0761C289.451 38.7786 289.793 38.5487 290.184 38.3865C290.576 38.2152 290.999 38.1296 291.454 38.1296C291.955 38.1296 292.396 38.2152 292.779 38.3865C293.161 38.5487 293.48 38.7741 293.735 39.0625C293.99 39.342 294.181 39.671 294.308 40.0496C294.445 40.4282 294.513 40.8338 294.513 41.2665Z"
    fill="#192939" fill-opacity="0.8" /> -->
</svg>