<svg width="352" height="34" viewBox="0 0 352 34" fill="none" xmlns="http://www.w3.org/2000/svg">
<path d="M5.84596 18.9919C5.84596 20.9739 6.24455 22.6897 7.04172 24.1392C7.8389 25.5888 8.97562 26.7129 10.4519 27.5116C11.9576 28.2808 13.7439 28.6653 15.8107 28.6653C17.9069 28.6653 19.6932 28.2808 21.1695 27.5116C22.6457 26.7129 23.7824 25.5888 24.5796 24.1392C25.3768 22.6897 25.7754 20.9739 25.7754 18.9919V0H31.6213V19.2138C31.6213 22.1424 30.957 24.7161 29.6284 26.9348C28.2998 29.1239 26.4544 30.8396 24.0924 32.0821C21.7304 33.295 18.9698 33.9014 15.8107 33.9014C12.681 33.9014 9.92042 33.295 7.52889 32.0821C5.16688 30.8396 3.32157 29.1239 1.99294 26.9348C0.664314 24.7161 0 22.1424 0 19.2138V0H5.84596V18.9919Z" fill="white"/>
<path d="M58.4288 0C60.9089 0 63.0495 0.443736 64.8505 1.33121C66.6811 2.21868 68.0835 3.46114 69.0578 5.05859C70.0617 6.62645 70.5636 8.44577 70.5636 10.5165C70.5636 12.5873 70.0617 14.4214 69.0578 16.0189C68.0835 17.5867 66.6811 18.8144 64.8505 19.7019C63.0495 20.5893 60.9089 21.0331 58.4288 21.0331H43.5039V15.9745H58.2074C60.2151 15.9745 61.7799 15.4864 62.9019 14.5102C64.0533 13.5339 64.6291 12.2027 64.6291 10.5165C64.6291 8.83034 64.0533 7.49913 62.9019 6.52292C61.7799 5.5467 60.2151 5.05859 58.2074 5.05859H44.0796L46.6926 2.12993V33.2802H40.8466V0H58.4288Z" fill="white"/>
<path d="M92.5877 0C96.3669 0 99.6737 0.695187 102.508 2.08556C105.372 3.47593 107.601 5.42837 109.196 7.94287C110.79 10.4278 111.587 13.3269 111.587 16.6401C111.587 19.9533 110.79 22.8672 109.196 25.3817C107.601 27.8666 105.372 29.8043 102.508 31.1946C99.6737 32.585 96.3669 33.2802 92.5877 33.2802H77.5742V0H92.5877ZM83.4201 31.239L80.1872 28.1328H92.9863C95.5254 28.1328 97.7398 27.6595 99.6294 26.7129C101.549 25.7367 103.025 24.3907 104.058 22.6749C105.121 20.9295 105.653 18.9179 105.653 16.6401C105.653 14.3327 105.121 12.3211 104.058 10.6053C103.025 8.88951 101.549 7.5583 99.6294 6.61166C97.7398 5.63545 95.5254 5.14734 92.9863 5.14734H80.1872L83.4201 2.04118V31.239Z" fill="white"/>
<path d="M122.017 25.6479V20.8112H145.224V25.6479H122.017ZM137.43 0L153.373 33.2802H147.129L132.646 2.21868H134.905L120.423 33.2802H114.179L130.122 0H137.43Z" fill="white"/>
<path d="M164.558 2.70679H170.404V33.2802H164.558V2.70679ZM150.829 0H184.133V5.14734H150.829V0Z" fill="white"/>
<path d="M217.313 14.1995V19.0806H194.106V14.1995H217.313ZM197.959 16.6401L195.612 31.5052L192.822 28.2216H218.597V33.2802H189.633L192.29 16.6401L189.633 0H218.375V5.05859H192.822L195.612 1.77494L197.959 16.6401Z" fill="white"/>
<path d="M271.593 0V33.2802H266.012V1.77494L267.828 1.86369L252.372 33.2802H246.127L230.671 1.90807L232.487 1.81932V33.2802H226.906V0H235.852L250.733 30.7509H247.81L262.646 0H271.593Z" fill="#6AC1EF"/>
<path d="M307.765 14.1995V19.0806H284.558V14.1995H307.765ZM288.411 16.6401L286.064 31.5052L283.274 28.2216H309.049V33.2802H280.085L282.742 16.6401L280.085 0H308.828V5.05859H283.274L286.064 1.77494L288.411 16.6401Z" fill="#6AC1EF"/>
<path d="M332.372 0C336.151 0 339.458 0.695187 342.292 2.08556C345.156 3.47593 347.386 5.42837 348.98 7.94287C350.574 10.4278 351.371 13.3269 351.371 16.6401C351.371 19.9533 350.574 22.8672 348.98 25.3817C347.386 27.8666 345.156 29.8043 342.292 31.1946C339.458 32.585 336.151 33.2802 332.372 33.2802H317.359V0H332.372ZM323.204 31.239L319.972 28.1328H332.771C335.31 28.1328 337.524 27.6595 339.414 26.7129C341.333 25.7367 342.809 24.3907 343.843 22.6749C344.905 20.9295 345.437 18.9179 345.437 16.6401C345.437 14.3327 344.905 12.3211 343.843 10.6053C342.809 8.88951 341.333 7.5583 339.414 6.61166C337.524 5.63545 335.31 5.14734 332.771 5.14734H319.972L323.204 2.04118V31.239Z" fill="#6AC1EF"/>
</svg>
