<svg width="353" height="34" viewBox="0 0 353 34" fill="none" xmlns="http://www.w3.org/2000/svg">
    <path
        d="M7.21644 18.9919C7.21644 20.9739 7.61503 22.6897 8.41221 24.1392C9.20938 25.5888 10.3461 26.7129 11.8224 27.5116C13.3281 28.2808 15.1144 28.6653 17.1811 28.6653C19.2774 28.6653 21.0637 28.2808 22.5399 27.5116C24.0162 26.7129 25.1529 25.5888 25.9501 24.1392C26.7473 22.6897 27.1459 20.9739 27.1459 18.9919V0H32.9918V19.2138C32.9918 22.1424 32.3275 24.7161 30.9989 26.9348C29.6702 29.1239 27.8249 30.8396 25.4629 32.0821C23.1009 33.295 20.3403 33.9014 17.1811 33.9014C14.0515 33.9014 11.2909 33.295 8.89937 32.0821C6.53737 30.8396 4.69205 29.1239 3.36342 26.9348C2.0348 24.7161 1.37048 22.1424 1.37048 19.2138V0H7.21644V18.9919Z"
        fill="white" />
    <path
        d="M59.7993 0C62.2794 0 64.42 0.443736 66.221 1.33121C68.0515 2.21868 69.454 3.46114 70.4283 5.05859C71.4322 6.62645 71.9341 8.44577 71.9341 10.5165C71.9341 12.5873 71.4322 14.4214 70.4283 16.0189C69.454 17.5867 68.0515 18.8144 66.221 19.7019C64.42 20.5893 62.2794 21.0331 59.7993 21.0331H44.8744V15.9745H59.5779C61.5856 15.9745 63.1504 15.4864 64.2723 14.5102C65.4238 13.5339 65.9996 12.2027 65.9996 10.5165C65.9996 8.83034 65.4238 7.49913 64.2723 6.52292C63.1504 5.5467 61.5856 5.05859 59.5779 5.05859H45.4501L48.0631 2.12993V33.2802H42.2171V0H59.7993Z"
        fill="white" />
    <path
        d="M93.9582 0C97.7374 0 101.044 0.695187 103.879 2.08556C106.743 3.47593 108.972 5.42837 110.566 7.94287C112.16 10.4278 112.958 13.3269 112.958 16.6401C112.958 19.9533 112.16 22.8672 110.566 25.3817C108.972 27.8666 106.743 29.8043 103.879 31.1946C101.044 32.585 97.7374 33.2802 93.9582 33.2802H78.9447V0H93.9582ZM84.7906 31.239L81.5576 28.1328H94.3567C96.8959 28.1328 99.1103 27.6595 101 26.7129C102.919 25.7367 104.395 24.3907 105.429 22.6749C106.492 20.9295 107.023 18.9179 107.023 16.6401C107.023 14.3327 106.492 12.3211 105.429 10.6053C104.395 8.88951 102.919 7.5583 101 6.61166C99.1103 5.63545 96.8959 5.14734 94.3567 5.14734H81.5576L84.7906 2.04118V31.239Z"
        fill="white" />
    <path
        d="M123.388 25.6479V20.8112H146.595V25.6479H123.388ZM138.8 0L154.744 33.2802H148.499L134.017 2.21868H136.276L121.794 33.2802H115.549L131.493 0H138.8Z"
        fill="white" />
    <path d="M165.929 2.70679H171.775V33.2802H165.929V2.70679ZM152.199 0H185.504V5.14734H152.199V0Z" fill="white" />
    <path
        d="M218.683 14.1995V19.0806H195.476V14.1995H218.683ZM199.329 16.6401L196.982 31.5052L194.192 28.2216H219.967V33.2802H191.003L193.661 16.6401L191.003 0H219.746V5.05859H194.192L196.982 1.77494L199.329 16.6401Z"
        fill="white" />
    <path
        d="M272.963 0V33.2802H267.383V1.77494L269.199 1.86369L253.742 33.2802H247.498L232.041 1.90807L233.857 1.81932V33.2802H228.277V0H237.223L252.104 30.7509H249.181L264.017 0H272.963Z"
        fill="#6AC1EF" />
    <path
        d="M309.135 14.1995V19.0806H285.929V14.1995H309.135ZM289.782 16.6401L287.434 31.5052L284.644 28.2216H310.42V33.2802H281.455L284.113 16.6401L281.455 0H310.198V5.05859H284.644L287.434 1.77494L289.782 16.6401Z"
        fill="#6AC1EF" />
    <path
        d="M333.743 0C337.522 0 340.829 0.695187 343.663 2.08556C346.527 3.47593 348.756 5.42837 350.35 7.94287C351.945 10.4278 352.742 13.3269 352.742 16.6401C352.742 19.9533 351.945 22.8672 350.35 25.3817C348.756 27.8666 346.527 29.8043 343.663 31.1946C340.829 32.585 337.522 33.2802 333.743 33.2802H318.729V0H333.743ZM324.575 31.239L321.342 28.1328H334.141C336.68 28.1328 338.895 27.6595 340.784 26.7129C342.703 25.7367 344.18 24.3907 345.213 22.6749C346.276 20.9295 346.807 18.9179 346.807 16.6401C346.807 14.3327 346.276 12.3211 345.213 10.6053C344.18 8.88951 342.703 7.5583 340.784 6.61166C338.895 5.63545 336.68 5.14734 334.141 5.14734H321.342L324.575 2.04118V31.239Z"
        fill="#6AC1EF" />
    <!-- <path
        d="M1.53088 53.916V42.3486H2.70348V47.2664C3.00749 47.2664 3.29521 47.2773 3.56664 47.2991C3.84893 47.3208 4.12579 47.3481 4.39723 47.3807L8.77817 42.3486H10.0648L5.63497 47.6585C6.99214 48.0724 8.03987 48.8076 8.77817 49.8641C9.52733 50.9098 10.0268 52.2604 10.2765 53.916H8.98989C8.81617 52.9248 8.56646 52.0752 8.24073 51.3672C7.92587 50.6484 7.51329 50.0656 7.00299 49.6191C6.50356 49.1616 5.90097 48.8294 5.19524 48.6224C4.48952 48.4155 3.65893 48.3229 2.70348 48.3447V53.916H1.53088Z"
        fill="#EFF3F6" /> -->
    <!-- <path
        d="M23.0676 50.0929C23.0676 50.6701 22.9645 51.2038 22.7582 51.694C22.5628 52.1841 22.2859 52.6089 21.9276 52.9684C21.5693 53.3278 21.1405 53.611 20.641 53.8179C20.1416 54.014 19.5933 54.112 18.9961 54.112C18.4098 54.112 17.867 54.014 17.3675 53.8179C16.8681 53.611 16.4392 53.3278 16.0809 52.9684C15.7226 52.6089 15.4404 52.1841 15.2341 51.694C15.0386 51.2038 14.9409 50.6701 14.9409 50.0929C14.9409 49.5156 15.0386 48.9819 15.2341 48.4917C15.4404 48.0016 15.7226 47.5768 16.0809 47.2174C16.4392 46.8579 16.8681 46.5802 17.3675 46.3841C17.867 46.1772 18.4098 46.0737 18.9961 46.0737C19.5933 46.0737 20.1416 46.1772 20.641 46.3841C21.1405 46.5802 21.5693 46.8579 21.9276 47.2174C22.2859 47.5768 22.5628 48.0016 22.7582 48.4917C22.9645 48.9819 23.0676 49.5156 23.0676 50.0929ZM21.8951 50.0929C21.8951 49.6681 21.8245 49.2705 21.6833 48.9002C21.553 48.519 21.363 48.1922 21.1133 47.9199C20.8636 47.6367 20.5596 47.4134 20.2013 47.25C19.843 47.0867 19.4413 47.005 18.9961 47.005C18.551 47.005 18.1493 47.0867 17.791 47.25C17.4435 47.4134 17.145 47.6367 16.8952 47.9199C16.6455 48.1922 16.4501 48.519 16.3089 48.9002C16.1787 49.2705 16.1135 49.6681 16.1135 50.0929C16.1135 50.5176 16.1787 50.9207 16.3089 51.3019C16.4501 51.6722 16.6455 51.999 16.8952 52.2822C17.145 52.5545 17.4435 52.7723 17.791 52.9357C18.1493 53.0882 18.551 53.1644 18.9961 53.1644C19.4413 53.1644 19.843 53.0882 20.2013 52.9357C20.5596 52.7723 20.8636 52.5545 21.1133 52.2822C21.363 51.999 21.553 51.6722 21.6833 51.3019C21.8245 50.9207 21.8951 50.5176 21.8951 50.0929Z"
        fill="#EFF3F6" />
    <path
        d="M33.7078 48.0179C33.5232 47.7238 33.2518 47.4842 32.8935 47.2991C32.546 47.103 32.166 47.005 31.7535 47.005C31.3083 47.005 30.9066 47.0867 30.5483 47.25C30.19 47.4025 29.8806 47.6204 29.62 47.9036C29.3703 48.1759 29.1748 48.5026 29.0337 48.8838C28.9034 49.2542 28.8383 49.6572 28.8383 50.0929C28.8383 50.5285 28.9034 50.9315 29.0337 51.3019C29.1748 51.6722 29.3703 51.999 29.62 52.2822C29.8697 52.5545 30.1737 52.7723 30.532 52.9357C30.8903 53.0882 31.292 53.1644 31.7372 53.1644C32.2258 53.1644 32.6383 53.0718 32.9749 52.8867C33.3115 52.7015 33.5883 52.4619 33.8055 52.1678L34.6361 52.7886C34.3104 53.1916 33.9086 53.513 33.4309 53.7526C32.9641 53.9922 32.3995 54.112 31.7372 54.112C31.1183 54.112 30.5591 54.014 30.0597 53.8179C29.5603 53.611 29.1314 53.3278 28.7731 52.9684C28.4257 52.6089 28.1542 52.1841 27.9588 51.694C27.7634 51.2038 27.6657 50.6701 27.6657 50.0929C27.6657 49.5156 27.7634 48.9819 27.9588 48.4917C28.1542 48.0016 28.4257 47.5768 28.7731 47.2174C29.1314 46.8579 29.5603 46.5802 30.0597 46.3841C30.5591 46.1772 31.1183 46.0737 31.7372 46.0737C32.2475 46.0737 32.7632 46.1881 33.2843 46.4168C33.8164 46.6346 34.2452 46.9614 34.5709 47.3971L33.7078 48.0179Z"
        fill="#EFF3F6" />
    <path
        d="M40.0105 46.2698L43.3491 50.2072L46.6389 46.2698H47.5835V53.916H46.476V47.8872L43.5608 51.5469H43.1048L40.1733 47.9689V53.916H39.0659V46.2698H40.0105Z"
        fill="#EFF3F6" />
    <path
        d="M59.0377 49.5047C59.0051 48.7858 58.7717 48.1922 58.3374 47.7238C57.9139 47.2446 57.3059 47.005 56.5133 47.005C56.1442 47.005 55.8022 47.0758 55.4873 47.2174C55.1724 47.3481 54.8956 47.5332 54.6567 47.7729C54.4179 48.0016 54.2279 48.2684 54.0867 48.5734C53.9456 48.8675 53.8641 49.1779 53.8424 49.5047H59.0377ZM60.1614 49.8641C60.1614 49.9404 60.1614 50.0221 60.1614 50.1092C60.1614 50.1963 60.156 50.2889 60.1451 50.3869H53.8261C53.837 50.7682 53.913 51.1276 54.0541 51.4653C54.1953 51.8029 54.3907 52.097 54.6404 52.3475C54.8902 52.598 55.1833 52.7995 55.5199 52.952C55.8565 53.0936 56.2202 53.1644 56.611 53.1644C57.1865 53.1644 57.6805 53.0337 58.0931 52.7723C58.5165 52.5 58.8368 52.1896 59.054 51.841L59.8845 52.4945C59.4285 53.0718 58.9237 53.4857 58.3699 53.7362C57.8271 53.9868 57.2408 54.112 56.611 54.112C56.0465 54.112 55.5199 54.014 55.0313 53.8179C54.5536 53.611 54.141 53.3278 53.7936 52.9684C53.4461 52.6089 53.1693 52.1841 52.963 51.694C52.7675 51.2038 52.6698 50.6701 52.6698 50.0929C52.6698 49.5156 52.7675 48.9819 52.963 48.4917C53.1584 48.0016 53.4298 47.5768 53.7773 47.2174C54.1247 46.8579 54.5319 46.5802 54.9987 46.3841C55.4656 46.1772 55.9705 46.0737 56.5133 46.0737C57.1105 46.0737 57.6371 46.1772 58.0931 46.3841C58.5491 46.5802 58.9291 46.8525 59.2331 47.201C59.5371 47.5387 59.7651 47.9362 59.9171 48.3937C60.08 48.8512 60.1614 49.3413 60.1614 49.8641Z"
        fill="#EFF3F6" />
    <path d="M64.0092 46.2698H70.7028V47.201H67.8202V53.916H66.7127V47.201H64.0092V46.2698Z" fill="#EFF3F6" />
    <path
        d="M82.6676 50.0929C82.6676 50.6701 82.5644 51.2038 82.3581 51.694C82.1627 52.1841 81.8858 52.6089 81.5276 52.9684C81.1693 53.3278 80.7404 53.611 80.241 53.8179C79.7415 54.014 79.1932 54.112 78.5961 54.112C78.0098 54.112 77.4669 54.014 76.9675 53.8179C76.468 53.611 76.0392 53.3278 75.6809 52.9684C75.3226 52.6089 75.0403 52.1841 74.834 51.694C74.6386 51.2038 74.5408 50.6701 74.5408 50.0929C74.5408 49.5156 74.6386 48.9819 74.834 48.4917C75.0403 48.0016 75.3226 47.5768 75.6809 47.2174C76.0392 46.8579 76.468 46.5802 76.9675 46.3841C77.4669 46.1772 78.0098 46.0737 78.5961 46.0737C79.1932 46.0737 79.7415 46.1772 80.241 46.3841C80.7404 46.5802 81.1693 46.8579 81.5276 47.2174C81.8858 47.5768 82.1627 48.0016 82.3581 48.4917C82.5644 48.9819 82.6676 49.5156 82.6676 50.0929ZM81.495 50.0929C81.495 49.6681 81.4244 49.2705 81.2833 48.9002C81.153 48.519 80.963 48.1922 80.7132 47.9199C80.4635 47.6367 80.1595 47.4134 79.8012 47.25C79.4429 47.0867 79.0412 47.005 78.5961 47.005C78.1509 47.005 77.7492 47.0867 77.3909 47.25C77.0435 47.4134 76.7449 47.6367 76.4952 47.9199C76.2454 48.1922 76.05 48.519 75.9089 48.9002C75.7786 49.2705 75.7134 49.6681 75.7134 50.0929C75.7134 50.5176 75.7786 50.9207 75.9089 51.3019C76.05 51.6722 76.2454 51.999 76.4952 52.2822C76.7449 52.5545 77.0435 52.7723 77.3909 52.9357C77.7492 53.0882 78.1509 53.1644 78.5961 53.1644C79.0412 53.1644 79.4429 53.0882 79.8012 52.9357C80.1595 52.7723 80.4635 52.5545 80.7132 52.2822C80.963 51.999 81.153 51.6722 81.2833 51.3019C81.4244 50.9207 81.495 50.5176 81.495 50.0929Z"
        fill="#EFF3F6" />
    <path d="M92.9983 53.916L90.4739 47.6095L87.8356 53.916H86.6793L90.0179 46.2698H90.9951L94.122 53.916H92.9983Z"
        fill="#EFF3F6" />
    <path
        d="M106.256 50.0929C106.256 50.6701 106.153 51.2038 105.947 51.694C105.751 52.1841 105.475 52.6089 105.116 52.9684C104.758 53.3278 104.329 53.611 103.83 53.8179C103.33 54.014 102.782 54.112 102.185 54.112C101.598 54.112 101.056 54.014 100.556 53.8179C100.057 53.611 99.6278 53.3278 99.2695 52.9684C98.9112 52.6089 98.629 52.1841 98.4227 51.694C98.2272 51.2038 98.1295 50.6701 98.1295 50.0929C98.1295 49.5156 98.2272 48.9819 98.4227 48.4917C98.629 48.0016 98.9112 47.5768 99.2695 47.2174C99.6278 46.8579 100.057 46.5802 100.556 46.3841C101.056 46.1772 101.598 46.0737 102.185 46.0737C102.782 46.0737 103.33 46.1772 103.83 46.3841C104.329 46.5802 104.758 46.8579 105.116 47.2174C105.475 47.5768 105.751 48.0016 105.947 48.4917C106.153 48.9819 106.256 49.5156 106.256 50.0929ZM105.084 50.0929C105.084 49.6681 105.013 49.2705 104.872 48.9002C104.742 48.519 104.552 48.1922 104.302 47.9199C104.052 47.6367 103.748 47.4134 103.39 47.25C103.032 47.0867 102.63 47.005 102.185 47.005C101.74 47.005 101.338 47.0867 100.98 47.25C100.632 47.4134 100.334 47.6367 100.084 47.9199C99.8341 48.1922 99.6387 48.519 99.4975 48.9002C99.3673 49.2705 99.3021 49.6681 99.3021 50.0929C99.3021 50.5176 99.3673 50.9207 99.4975 51.3019C99.6387 51.6722 99.8341 51.999 100.084 52.2822C100.334 52.5545 100.632 52.7723 100.98 52.9357C101.338 53.0882 101.74 53.1644 102.185 53.1644C102.63 53.1644 103.032 53.0882 103.39 52.9357C103.748 52.7723 104.052 52.5545 104.302 52.2822C104.552 51.999 104.742 51.6722 104.872 51.3019C105.013 50.9207 105.084 50.5176 105.084 50.0929Z"
        fill="#EFF3F6" />
    <path d="M112.45 53.916H111.343V46.2698H116.066V47.201H112.45V53.916Z" fill="#EFF3F6" /> -->
    <!-- <path
        d="M126.24 47.6912L121.566 53.916H120.425V46.2698H121.566V52.2658L126.24 46.2698H127.38V53.916H126.24V47.6912Z"
        fill="#EFF3F6" />
    <path
        d="M132.357 46.2698H133.465V47.3807C133.465 47.8818 133.481 48.3066 133.513 48.6551C133.546 49.0037 133.633 49.2923 133.774 49.521C133.926 49.7389 134.16 49.8968 134.474 49.9948C134.789 50.0929 135.224 50.1419 135.777 50.1419H137.438V46.2698H138.546V53.916H137.438V51.0731H135.761C135.055 51.0731 134.48 51.0078 134.035 50.8771C133.589 50.7464 133.242 50.5503 132.992 50.2889C132.743 50.0275 132.574 49.7062 132.487 49.325C132.401 48.9329 132.357 48.4863 132.357 47.9853V46.2698Z"
        fill="#EFF3F6" />
    <path
        d="M149.989 49.5047C149.956 48.7858 149.723 48.1922 149.289 47.7238C148.865 47.2446 148.257 47.005 147.465 47.005C147.095 47.005 146.753 47.0758 146.439 47.2174C146.124 47.3481 145.847 47.5332 145.608 47.7729C145.369 48.0016 145.179 48.2684 145.038 48.5734C144.897 48.8675 144.815 49.1779 144.794 49.5047H149.989ZM151.113 49.8641C151.113 49.9404 151.113 50.0221 151.113 50.1092C151.113 50.1963 151.107 50.2889 151.096 50.3869H144.777C144.788 50.7682 144.864 51.1276 145.005 51.4653C145.146 51.8029 145.342 52.097 145.592 52.3475C145.841 52.598 146.135 52.7995 146.471 52.952C146.808 53.0936 147.171 53.1644 147.562 53.1644C148.138 53.1644 148.632 53.0337 149.044 52.7723C149.468 52.5 149.788 52.1896 150.005 51.841L150.836 52.4945C150.38 53.0718 149.875 53.4857 149.321 53.7362C148.778 53.9868 148.192 54.112 147.562 54.112C146.998 54.112 146.471 54.014 145.982 53.8179C145.505 53.611 145.092 53.3278 144.745 52.9684C144.397 52.6089 144.12 52.1841 143.914 51.694C143.719 51.2038 143.621 50.6701 143.621 50.0929C143.621 49.5156 143.719 48.9819 143.914 48.4917C144.11 48.0016 144.381 47.5768 144.728 47.2174C145.076 46.8579 145.483 46.5802 145.95 46.3841C146.417 46.1772 146.922 46.0737 147.465 46.0737C148.062 46.0737 148.588 46.1772 149.044 46.3841C149.5 46.5802 149.88 46.8525 150.184 47.201C150.488 47.5387 150.716 47.9362 150.868 48.3937C151.031 48.8512 151.113 49.3413 151.113 49.8641Z"
        fill="#EFF3F6" />
    <path
        d="M161.752 48.0179C161.567 47.7238 161.296 47.4842 160.937 47.2991C160.59 47.103 160.21 47.005 159.797 47.005C159.352 47.005 158.951 47.0867 158.592 47.25C158.234 47.4025 157.924 47.6204 157.664 47.9036C157.414 48.1759 157.219 48.5026 157.078 48.8838C156.947 49.2542 156.882 49.6572 156.882 50.0929C156.882 50.5285 156.947 50.9315 157.078 51.3019C157.219 51.6722 157.414 51.999 157.664 52.2822C157.914 52.5545 158.218 52.7723 158.576 52.9357C158.934 53.0882 159.336 53.1644 159.781 53.1644C160.27 53.1644 160.682 53.0718 161.019 52.8867C161.355 52.7015 161.632 52.4619 161.849 52.1678L162.68 52.7886C162.354 53.1916 161.953 53.513 161.475 53.7526C161.008 53.9922 160.443 54.112 159.781 54.112C159.162 54.112 158.603 54.014 158.104 53.8179C157.604 53.611 157.175 53.3278 156.817 52.9684C156.47 52.6089 156.198 52.1841 156.003 51.694C155.807 51.2038 155.71 50.6701 155.71 50.0929C155.71 49.5156 155.807 48.9819 156.003 48.4917C156.198 48.0016 156.47 47.5768 156.817 47.2174C157.175 46.8579 157.604 46.5802 158.104 46.3841C158.603 46.1772 159.162 46.0737 159.781 46.0737C160.291 46.0737 160.807 46.1881 161.328 46.4168C161.86 46.6346 162.289 46.9614 162.615 47.3971L161.752 48.0179Z"
        fill="#EFF3F6" />
    <path
        d="M168.217 49.4067C168.652 49.4067 169.059 49.4393 169.439 49.5047L172.175 46.2698H173.413L170.448 49.7334C171.35 50.0166 172.05 50.5013 172.549 51.1875C173.049 51.8628 173.445 52.7723 173.738 53.916H172.501C172.349 53.2407 172.153 52.6797 171.914 52.2331C171.686 51.7757 171.393 51.4108 171.035 51.1385C170.687 50.8553 170.28 50.6592 169.813 50.5503C169.346 50.4305 168.814 50.3652 168.217 50.3543V53.916H167.11V46.2698H168.217V49.4067Z"
        fill="#EFF3F6" />
    <path
        d="M186.359 50.0929C186.359 50.6701 186.256 51.2038 186.05 51.694C185.855 52.1841 185.578 52.6089 185.219 52.9684C184.861 53.3278 184.432 53.611 183.933 53.8179C183.433 54.014 182.885 54.112 182.288 54.112C181.702 54.112 181.159 54.014 180.659 53.8179C180.16 53.611 179.731 53.3278 179.373 52.9684C179.014 52.6089 178.732 52.1841 178.526 51.694C178.33 51.2038 178.233 50.6701 178.233 50.0929C178.233 49.5156 178.33 48.9819 178.526 48.4917C178.732 48.0016 179.014 47.5768 179.373 47.2174C179.731 46.8579 180.16 46.5802 180.659 46.3841C181.159 46.1772 181.702 46.0737 182.288 46.0737C182.885 46.0737 183.433 46.1772 183.933 46.3841C184.432 46.5802 184.861 46.8579 185.219 47.2174C185.578 47.5768 185.855 48.0016 186.05 48.4917C186.256 48.9819 186.359 49.5156 186.359 50.0929ZM185.187 50.0929C185.187 49.6681 185.116 49.2705 184.975 48.9002C184.845 48.519 184.655 48.1922 184.405 47.9199C184.155 47.6367 183.851 47.4134 183.493 47.25C183.135 47.0867 182.733 47.005 182.288 47.005C181.843 47.005 181.441 47.0867 181.083 47.25C180.735 47.4134 180.437 47.6367 180.187 47.9199C179.937 48.1922 179.742 48.519 179.601 48.9002C179.47 49.2705 179.405 49.6681 179.405 50.0929C179.405 50.5176 179.47 50.9207 179.601 51.3019C179.742 51.6722 179.937 51.999 180.187 52.2822C180.437 52.5545 180.735 52.7723 181.083 52.9357C181.441 53.0882 181.843 53.1644 182.288 53.1644C182.733 53.1644 183.135 53.0882 183.493 52.9357C183.851 52.7723 184.155 52.5545 184.405 52.2822C184.655 51.999 184.845 51.6722 184.975 51.3019C185.116 50.9207 185.187 50.5176 185.187 50.0929Z"
        fill="#EFF3F6" />
    <path
        d="M197.325 49.5047C197.293 48.7858 197.059 48.1922 196.625 47.7238C196.202 47.2446 195.594 47.005 194.801 47.005C194.432 47.005 194.09 47.0758 193.775 47.2174C193.46 47.3481 193.183 47.5332 192.944 47.7729C192.705 48.0016 192.515 48.2684 192.374 48.5734C192.233 48.8675 192.152 49.1779 192.13 49.5047H197.325ZM198.449 49.8641C198.449 49.9404 198.449 50.0221 198.449 50.1092C198.449 50.1963 198.444 50.2889 198.433 50.3869H192.114C192.125 50.7682 192.201 51.1276 192.342 51.4653C192.483 51.8029 192.678 52.097 192.928 52.3475C193.178 52.598 193.471 52.7995 193.807 52.952C194.144 53.0936 194.508 53.1644 194.899 53.1644C195.474 53.1644 195.968 53.0337 196.381 52.7723C196.804 52.5 197.124 52.1896 197.342 51.841L198.172 52.4945C197.716 53.0718 197.211 53.4857 196.658 53.7362C196.115 53.9868 195.528 54.112 194.899 54.112C194.334 54.112 193.807 54.014 193.319 53.8179C192.841 53.611 192.429 53.3278 192.081 52.9684C191.734 52.6089 191.457 52.1841 191.251 51.694C191.055 51.2038 190.957 50.6701 190.957 50.0929C190.957 49.5156 191.055 48.9819 191.251 48.4917C191.446 48.0016 191.717 47.5768 192.065 47.2174C192.412 46.8579 192.819 46.5802 193.286 46.3841C193.753 46.1772 194.258 46.0737 194.801 46.0737C195.398 46.0737 195.925 46.1772 196.381 46.3841C196.837 46.5802 197.217 46.8525 197.521 47.201C197.825 47.5387 198.053 47.9362 198.205 48.3937C198.368 48.8512 198.449 49.3413 198.449 49.8641Z"
        fill="#EFF3F6" />
    <path
        d="M218.013 50.0929C218.013 50.6701 217.91 51.2038 217.703 51.694C217.508 52.1841 217.231 52.6089 216.873 52.9684C216.515 53.3278 216.086 53.611 215.586 53.8179C215.087 54.014 214.539 54.112 213.941 54.112C213.355 54.112 212.812 54.014 212.313 53.8179C211.813 53.611 211.384 53.3278 211.026 52.9684C210.668 52.6089 210.386 52.1841 210.179 51.694C209.984 51.2038 209.886 50.6701 209.886 50.0929C209.886 49.5156 209.984 48.9819 210.179 48.4917C210.386 48.0016 210.668 47.5768 211.026 47.2174C211.384 46.8579 211.813 46.5802 212.313 46.3841C212.812 46.1772 213.355 46.0737 213.941 46.0737C214.539 46.0737 215.087 46.1772 215.586 46.3841C216.086 46.5802 216.515 46.8579 216.873 47.2174C217.231 47.5768 217.508 48.0016 217.703 48.4917C217.91 48.9819 218.013 49.5156 218.013 50.0929ZM216.84 50.0929C216.84 49.6681 216.77 49.2705 216.629 48.9002C216.498 48.519 216.308 48.1922 216.059 47.9199C215.809 47.6367 215.505 47.4134 215.147 47.25C214.788 47.0867 214.387 47.005 213.941 47.005C213.496 47.005 213.094 47.0867 212.736 47.25C212.389 47.4134 212.09 47.6367 211.84 47.9199C211.591 48.1922 211.395 48.519 211.254 48.9002C211.124 49.2705 211.059 49.6681 211.059 50.0929C211.059 50.5176 211.124 50.9207 211.254 51.3019C211.395 51.6722 211.591 51.999 211.84 52.2822C212.09 52.5545 212.389 52.7723 212.736 52.9357C213.094 53.0882 213.496 53.1644 213.941 53.1644C214.387 53.1644 214.788 53.0882 215.147 52.9357C215.505 52.7723 215.809 52.5545 216.059 52.2822C216.308 51.999 216.498 51.6722 216.629 51.3019C216.77 50.9207 216.84 50.5176 216.84 50.0929Z"
        fill="#EFF3F6" />
    <path
        d="M229.37 50.2562C229.37 49.8315 229.304 49.4448 229.174 49.0962C229.044 48.7368 228.859 48.4264 228.62 48.165C228.392 47.9036 228.116 47.7021 227.79 47.5605C227.464 47.4189 227.1 47.3481 226.699 47.3481C226.33 47.3481 225.977 47.408 225.64 47.5278C225.304 47.6367 225.005 47.8055 224.744 48.0343C224.484 48.263 224.277 48.5516 224.125 48.9002C223.973 49.2378 223.897 49.6354 223.897 50.0929C223.897 50.5503 223.963 50.9697 224.093 51.3509C224.234 51.7212 224.424 52.0425 224.663 52.3148C224.913 52.5762 225.211 52.7832 225.559 52.9357C225.906 53.0882 226.292 53.1644 226.715 53.1644C227.138 53.1644 227.513 53.0882 227.839 52.9357C228.175 52.7832 228.458 52.5762 228.686 52.3148C228.914 52.0425 229.082 51.7321 229.19 51.3836C229.31 51.0241 229.37 50.6484 229.37 50.2562ZM226.764 46.4005C227.318 46.4005 227.828 46.493 228.295 46.6782C228.762 46.8634 229.158 47.1248 229.484 47.4624C229.82 47.8001 230.081 48.2085 230.265 48.6878C230.45 49.1561 230.542 49.679 230.542 50.2562C230.542 50.8444 230.439 51.3781 230.233 51.8574C230.026 52.3366 229.75 52.7451 229.402 53.0827C229.055 53.4095 228.648 53.6654 228.181 53.8506C227.714 54.0249 227.22 54.112 226.699 54.112C226.091 54.112 225.542 54.014 225.054 53.8179C224.576 53.6219 224.169 53.3441 223.832 52.9847C223.496 52.6144 223.235 52.1732 223.051 51.6613C222.866 51.1385 222.774 50.5558 222.774 49.9131C222.774 49.5973 222.779 49.2923 222.79 48.9982C222.812 48.7041 222.833 48.4155 222.855 48.1323C223.029 46.2044 223.534 44.7612 224.37 43.8027C225.217 42.8442 226.492 42.365 228.197 42.365H230.396V43.3126H228.164C227.372 43.3126 226.715 43.4215 226.194 43.6393C225.684 43.8572 225.266 44.1676 224.94 44.5706C224.614 44.9736 224.364 45.4583 224.191 46.0247C224.028 46.5911 223.903 47.2174 223.816 47.9036C224.098 47.4461 224.5 47.0812 225.021 46.8089C225.542 46.5366 226.123 46.4005 226.764 46.4005Z"
        fill="#EFF3F6" />
    <path
        d="M243.256 50.0929C243.256 50.6701 243.152 51.2038 242.946 51.694C242.751 52.1841 242.474 52.6089 242.116 52.9684C241.757 53.3278 241.328 53.611 240.829 53.8179C240.33 54.014 239.781 54.112 239.184 54.112C238.598 54.112 238.055 54.014 237.555 53.8179C237.056 53.611 236.627 53.3278 236.269 52.9684C235.911 52.6089 235.628 52.1841 235.422 51.694C235.227 51.2038 235.129 50.6701 235.129 50.0929C235.129 49.5156 235.227 48.9819 235.422 48.4917C235.628 48.0016 235.911 47.5768 236.269 47.2174C236.627 46.8579 237.056 46.5802 237.555 46.3841C238.055 46.1772 238.598 46.0737 239.184 46.0737C239.781 46.0737 240.33 46.1772 240.829 46.3841C241.328 46.5802 241.757 46.8579 242.116 47.2174C242.474 47.5768 242.751 48.0016 242.946 48.4917C243.152 48.9819 243.256 49.5156 243.256 50.0929ZM242.083 50.0929C242.083 49.6681 242.012 49.2705 241.871 48.9002C241.741 48.519 241.551 48.1922 241.301 47.9199C241.052 47.6367 240.748 47.4134 240.389 47.25C240.031 47.0867 239.629 47.005 239.184 47.005C238.739 47.005 238.337 47.0867 237.979 47.25C237.631 47.4134 237.333 47.6367 237.083 47.9199C236.833 48.1922 236.638 48.519 236.497 48.9002C236.367 49.2705 236.301 49.6681 236.301 50.0929C236.301 50.5176 236.367 50.9207 236.497 51.3019C236.638 51.6722 236.833 51.999 237.083 52.2822C237.333 52.5545 237.631 52.7723 237.979 52.9357C238.337 53.0882 238.739 53.1644 239.184 53.1644C239.629 53.1644 240.031 53.0882 240.389 52.9357C240.748 52.7723 241.052 52.5545 241.301 52.2822C241.551 51.999 241.741 51.6722 241.871 51.3019C242.012 50.9207 242.083 50.5176 242.083 50.0929Z"
        fill="#EFF3F6" /> -->
    <!-- <path
        d="M249.515 57.8371H248.407V46.2698H249.515V47.5931H249.564C249.879 47.0921 250.297 46.7163 250.818 46.4658C251.35 46.2044 251.887 46.0737 252.43 46.0737C253.027 46.0737 253.565 46.1772 254.042 46.3841C254.531 46.5911 254.943 46.8743 255.28 47.2337C255.627 47.5931 255.893 48.0179 256.078 48.5081C256.273 48.9982 256.371 49.5265 256.371 50.0929C256.371 50.6592 256.273 51.1875 256.078 51.6776C255.893 52.1678 255.627 52.5926 255.28 52.952C254.943 53.3115 254.531 53.5946 254.042 53.8016C253.565 54.0085 253.027 54.112 252.43 54.112C251.887 54.112 251.35 53.9868 250.818 53.7362C250.297 53.4748 249.879 53.1045 249.564 52.6253H249.515V57.8371ZM255.199 50.0929C255.199 49.6681 255.133 49.2705 255.003 48.9002C254.873 48.519 254.683 48.1922 254.433 47.9199C254.194 47.6367 253.896 47.4134 253.537 47.25C253.179 47.0867 252.772 47.005 252.316 47.005C251.893 47.005 251.502 47.0867 251.143 47.25C250.785 47.4025 250.476 47.6204 250.215 47.9036C249.955 48.1759 249.748 48.5026 249.596 48.8838C249.455 49.2542 249.384 49.6572 249.384 50.0929C249.384 50.5285 249.455 50.937 249.596 51.3182C249.748 51.6885 249.955 52.0099 250.215 52.2822C250.476 52.5545 250.785 52.7723 251.143 52.9357C251.502 53.0882 251.893 53.1644 252.316 53.1644C252.772 53.1644 253.179 53.0882 253.537 52.9357C253.896 52.7723 254.194 52.5545 254.433 52.2822C254.683 51.999 254.873 51.6722 255.003 51.3019C255.133 50.9207 255.199 50.5176 255.199 50.0929Z"
        fill="#EFF3F6" />
    <path
        d="M264.136 52.7233H264.168L266.53 46.2698H267.735L263.94 55.8929C263.712 56.481 263.419 56.9494 263.061 57.2979C262.714 57.6574 262.209 57.8371 261.546 57.8371C261.21 57.8371 260.879 57.8044 260.553 57.7391L260.667 56.7261C260.927 56.8132 261.199 56.8568 261.481 56.8568C261.861 56.8568 262.16 56.737 262.377 56.4974C262.594 56.2686 262.784 55.9364 262.947 55.5007L263.566 53.8996L260.309 46.2698H261.546L264.136 52.7233Z"
        fill="#EFF3F6" />
    <path
        d="M271.86 56.1869H270.769V52.952H271.99L274.791 46.2698H275.769L278.358 52.952H279.628V56.1869H278.554V53.916H271.86V56.1869ZM273.114 52.952H277.251L275.248 47.6095L273.114 52.952Z"
        fill="#EFF3F6" />
    <path
        d="M291.435 50.0929C291.435 50.6701 291.332 51.2038 291.126 51.694C290.93 52.1841 290.653 52.6089 290.295 52.9684C289.937 53.3278 289.508 53.611 289.008 53.8179C288.509 54.014 287.961 54.112 287.363 54.112C286.777 54.112 286.234 54.014 285.735 53.8179C285.235 53.611 284.807 53.3278 284.448 52.9684C284.09 52.6089 283.808 52.1841 283.601 51.694C283.406 51.2038 283.308 50.6701 283.308 50.0929C283.308 49.5156 283.406 48.9819 283.601 48.4917C283.808 48.0016 284.09 47.5768 284.448 47.2174C284.807 46.8579 285.235 46.5802 285.735 46.3841C286.234 46.1772 286.777 46.0737 287.363 46.0737C287.961 46.0737 288.509 46.1772 289.008 46.3841C289.508 46.5802 289.937 46.8579 290.295 47.2174C290.653 47.5768 290.93 48.0016 291.126 48.4917C291.332 48.9819 291.435 49.5156 291.435 50.0929ZM290.262 50.0929C290.262 49.6681 290.192 49.2705 290.051 48.9002C289.92 48.519 289.73 48.1922 289.481 47.9199C289.231 47.6367 288.927 47.4134 288.569 47.25C288.21 47.0867 287.809 47.005 287.363 47.005C286.918 47.005 286.517 47.0867 286.158 47.25C285.811 47.4134 285.512 47.6367 285.263 47.9199C285.013 48.1922 284.817 48.519 284.676 48.9002C284.546 49.2705 284.481 49.6681 284.481 50.0929C284.481 50.5176 284.546 50.9207 284.676 51.3019C284.817 51.6722 285.013 51.999 285.263 52.2822C285.512 52.5545 285.811 52.7723 286.158 52.9357C286.517 53.0882 286.918 53.1644 287.363 53.1644C287.809 53.1644 288.21 53.0882 288.569 52.9357C288.927 52.7723 289.231 52.5545 289.481 52.2822C289.73 51.999 289.92 51.6722 290.051 51.3019C290.192 50.9207 290.262 50.5176 290.262 50.0929Z"
        fill="#EFF3F6" />
    <path
        d="M300.007 53.916H296.522V46.2698H299.811C300.778 46.2698 301.494 46.4604 301.961 46.8416C302.428 47.2119 302.661 47.7075 302.661 48.3284C302.661 48.6115 302.618 48.8512 302.531 49.0472C302.444 49.2324 302.319 49.3903 302.157 49.521C302.005 49.6408 301.825 49.7389 301.619 49.8151C301.413 49.8914 301.196 49.9622 300.968 50.0275C301.25 50.0493 301.516 50.0983 301.766 50.1745C302.015 50.2508 302.232 50.3652 302.417 50.5176C302.612 50.6592 302.765 50.8444 302.873 51.0731C302.982 51.291 303.036 51.5578 303.036 51.8737C303.036 52.4945 302.781 52.9901 302.27 53.3605C301.76 53.7308 301.006 53.916 300.007 53.916ZM297.629 53.0174H299.046C299.448 53.0174 299.817 53.0119 300.153 53.001C300.49 52.9792 300.783 52.9302 301.033 52.854C301.282 52.7668 301.478 52.6361 301.619 52.4619C301.76 52.2876 301.831 52.0425 301.831 51.7267C301.831 51.2038 301.635 50.8607 301.244 50.6974C300.864 50.534 300.349 50.4523 299.697 50.4523H297.629V53.0174ZM299.746 49.6517C300.289 49.6517 300.712 49.57 301.016 49.4067C301.331 49.2324 301.489 48.8947 301.489 48.3937C301.489 48.1105 301.429 47.8872 301.31 47.7238C301.19 47.5605 301.022 47.4407 300.805 47.3644C300.588 47.2773 300.327 47.2228 300.023 47.201C299.719 47.1792 299.382 47.1684 299.013 47.1684H297.629V49.6517H299.746Z"
        fill="#EFF3F6" />
    <path
        d="M312.971 48.9819C312.971 48.3175 312.797 47.8219 312.45 47.4951C312.102 47.1684 311.597 47.005 310.935 47.005C310.479 47.005 310.055 47.0867 309.665 47.25C309.274 47.4134 308.943 47.6313 308.671 47.9036L308.052 47.1684C308.367 46.8525 308.78 46.5911 309.29 46.3841C309.811 46.1772 310.397 46.0737 311.049 46.0737C311.462 46.0737 311.847 46.1336 312.205 46.2534C312.564 46.3623 312.878 46.5312 313.15 46.7599C313.421 46.9886 313.633 47.2773 313.785 47.6258C313.937 47.9744 314.013 48.3828 314.013 48.8512V52.2005C314.013 52.4945 314.024 52.7995 314.046 53.1154C314.067 53.4313 314.1 53.6981 314.143 53.916H313.15C313.117 53.7308 313.09 53.5293 313.068 53.3115C313.047 53.0936 313.036 52.8812 313.036 52.6743H313.003C312.656 53.1862 312.26 53.5565 311.814 53.7853C311.38 54.0031 310.853 54.112 310.235 54.112C309.941 54.112 309.637 54.0684 309.323 53.9813C309.019 53.9051 308.736 53.7744 308.476 53.5892C308.226 53.404 308.014 53.1644 307.841 52.8703C307.678 52.5762 307.596 52.2168 307.596 51.792C307.596 51.2038 307.743 50.7409 308.036 50.4033C308.34 50.0547 308.742 49.7988 309.241 49.6354C309.741 49.4611 310.311 49.3522 310.951 49.3086C311.603 49.2542 312.276 49.2269 312.971 49.2269V48.9819ZM312.645 50.0929C312.189 50.0929 311.728 50.1146 311.261 50.1582C310.805 50.1909 310.387 50.2671 310.007 50.3869C309.637 50.4959 309.333 50.6592 309.095 50.8771C308.856 51.0949 308.736 51.3836 308.736 51.743C308.736 52.0153 308.785 52.244 308.883 52.4292C308.991 52.6144 309.133 52.7668 309.306 52.8867C309.48 52.9956 309.67 53.0773 309.876 53.1317C310.093 53.1753 310.311 53.1971 310.528 53.1971C310.919 53.1971 311.266 53.1317 311.57 53.001C311.874 52.8594 312.129 52.6743 312.336 52.4455C312.542 52.2059 312.699 51.9336 312.808 51.6286C312.916 51.3237 312.971 51.0023 312.971 50.6647V50.0929H312.645Z"
        fill="#EFF3F6" />
    <path
        d="M320.677 53.916H319.569V46.2698H320.677V49.3576H325.025V46.2698H326.133V53.916H325.025V50.2889H320.677V53.916Z"
        fill="#EFF3F6" />
    <path
        d="M337.52 47.6912L332.846 53.916H331.706V46.2698H332.846V52.2658L337.52 46.2698H338.66V53.916H337.52V47.6912Z"
        fill="#EFF3F6" />
    <path
        d="M350.103 49.5047C350.07 48.7858 349.837 48.1922 349.403 47.7238C348.979 47.2446 348.371 47.005 347.579 47.005C347.21 47.005 346.868 47.0758 346.553 47.2174C346.238 47.3481 345.961 47.5332 345.722 47.7729C345.483 48.0016 345.293 48.2684 345.152 48.5734C345.011 48.8675 344.929 49.1779 344.908 49.5047H350.103ZM351.227 49.8641C351.227 49.9404 351.227 50.0221 351.227 50.1092C351.227 50.1963 351.221 50.2889 351.21 50.3869H344.891C344.902 50.7682 344.978 51.1276 345.119 51.4653C345.261 51.8029 345.456 52.097 345.706 52.3475C345.955 52.598 346.249 52.7995 346.585 52.952C346.922 53.0936 347.286 53.1644 347.676 53.1644C348.252 53.1644 348.746 53.0337 349.158 52.7723C349.582 52.5 349.902 52.1896 350.119 51.841L350.95 52.4945C350.494 53.0718 349.989 53.4857 349.435 53.7362C348.892 53.9868 348.306 54.112 347.676 54.112C347.112 54.112 346.585 54.014 346.097 53.8179C345.619 53.611 345.206 53.3278 344.859 52.9684C344.511 52.6089 344.235 52.1841 344.028 51.694C343.833 51.2038 343.735 50.6701 343.735 50.0929C343.735 49.5156 343.833 48.9819 344.028 48.4917C344.224 48.0016 344.495 47.5768 344.843 47.2174C345.19 46.8579 345.597 46.5802 346.064 46.3841C346.531 46.1772 347.036 46.0737 347.579 46.0737C348.176 46.0737 348.702 46.1772 349.158 46.3841C349.614 46.5802 349.994 46.8525 350.298 47.201C350.602 47.5387 350.83 47.9362 350.982 48.3937C351.145 48.8512 351.227 49.3413 351.227 49.8641Z"
        fill="#EFF3F6" /> -->
</svg>