<svg width="863" height="83" viewBox="0 0 863 83" fill="none" xmlns="http://www.w3.org/2000/svg">
<path d="M14.3582 46.4974C14.3582 51.3499 15.3372 55.5506 17.2951 59.0995C19.2531 62.6483 22.0449 65.4005 25.6707 67.356C29.3691 69.2391 33.7563 70.1806 38.8324 70.1806C43.9811 70.1806 48.3683 69.2391 51.9941 67.356C55.6199 65.4005 58.4118 62.6483 60.3697 59.0995C62.3277 55.5506 63.3066 51.3499 63.3066 46.4974V0H77.6648V47.0406C77.6648 54.2107 76.0332 60.5118 72.77 65.9437C69.5068 71.3032 64.9745 75.5039 59.1732 78.5458C53.3719 81.5153 46.5917 83 38.8324 83C31.1457 83 24.3654 81.5153 18.4916 78.5458C12.6903 75.5039 8.15807 71.3032 4.89484 65.9437C1.63161 60.5118 0 54.2107 0 47.0406V0H14.3582V46.4974Z" fill="#192939"/>
<path d="M143.506 0C149.598 0 154.855 1.08639 159.279 3.25917C163.775 5.43194 167.219 8.47382 169.612 12.3848C172.078 16.2234 173.311 20.6776 173.311 25.7474C173.311 30.8172 172.078 35.3076 169.612 39.2186C167.219 43.0572 163.775 46.0628 159.279 48.2356C154.855 50.4084 149.598 51.4948 143.506 51.4948H106.85V39.1099H142.963C147.894 39.1099 151.737 37.9149 154.493 35.5249C157.321 33.1348 158.735 29.8757 158.735 25.7474C158.735 21.6191 157.321 18.3599 154.493 15.9699C151.737 13.5798 147.894 12.3848 142.963 12.3848H108.264L114.681 5.21466V81.4791H100.323V0H143.506Z" fill="#192939"/>
<path d="M227.404 0C236.686 0 244.808 1.70201 251.769 5.10603C258.803 8.51004 264.278 13.2901 268.194 19.4463C272.11 25.5301 274.068 32.6278 274.068 40.7395C274.068 48.8512 272.11 55.9852 268.194 62.1414C264.278 68.2251 258.803 72.969 251.769 76.373C244.808 79.7771 236.686 81.4791 227.404 81.4791H190.529V0H227.404ZM204.887 76.4817L196.947 68.877H228.383C234.619 68.877 240.058 67.7181 244.699 65.4005C249.412 63.0105 253.038 59.7151 255.576 55.5144C258.187 51.2413 259.492 46.3163 259.492 40.7395C259.492 35.0903 258.187 30.1654 255.576 25.9647C253.038 21.764 249.412 18.5048 244.699 16.1872C240.058 13.7971 234.619 12.6021 228.383 12.6021H196.947L204.887 4.99738V76.4817Z" fill="#192939"/>
<path d="M299.686 62.7932V50.9516H356.684V62.7932H299.686ZM337.539 0L376.698 81.4791H361.361L325.792 5.43194H331.339L295.77 81.4791H280.433L319.592 0H337.539Z" fill="#192939"/>
<path d="M404.17 6.62697H418.528V81.4791H404.17V6.62697ZM370.45 0H452.248V12.6021H370.45V0Z" fill="#192939"/>
<path d="M533.739 34.7644V46.7147H476.742V34.7644H533.739ZM486.205 40.7395L480.44 77.1335L473.587 69.0942H536.894V81.4791H465.755L472.282 40.7395L465.755 0H536.35V12.3848H473.587L480.44 4.34555L486.205 40.7395Z" fill="#192939"/>
<path d="M667.056 0V81.4791H653.35V4.34555L657.81 4.56283L619.848 81.4791H604.511L566.548 4.67147L571.008 4.45419V81.4791H557.303V0H579.275L615.823 75.2867H608.644L645.083 0H667.056Z" fill="#6AC1EF"/>
<path d="M755.898 34.7644V46.7147H698.9V34.7644H755.898ZM708.364 40.7395L702.599 77.1335L695.746 69.0942H759.052V81.4791H687.914L694.441 40.7395L687.914 0H758.509V12.3848H695.746L702.599 4.34555L708.364 40.7395Z" fill="#6AC1EF"/>
<path d="M816.336 0C825.618 0 833.74 1.70201 840.701 5.10603C847.735 8.51004 853.21 13.2901 857.126 19.4463C861.042 25.5301 863 32.6278 863 40.7395C863 48.8512 861.042 55.9852 857.126 62.1414C853.21 68.2251 847.735 72.969 840.701 76.373C833.74 79.7771 825.618 81.4791 816.336 81.4791H779.461V0H816.336ZM793.82 76.4817L785.879 68.877H817.315C823.551 68.877 828.99 67.7181 833.631 65.4005C838.344 63.0105 841.97 59.7151 844.508 55.5144C847.119 51.2413 848.424 46.3163 848.424 40.7395C848.424 35.0903 847.119 30.1654 844.508 25.9647C841.97 21.764 838.344 18.5048 833.631 16.1872C828.99 13.7971 823.551 12.6021 817.315 12.6021H785.879L793.82 4.99738V76.4817Z" fill="#6AC1EF"/>
</svg>
