<svg width="73" height="72" viewBox="0 0 73 72" fill="none" xmlns="http://www.w3.org/2000/svg">
<path d="M28.5 45.0365V26.9659C28.5 26.369 28.6965 25.8921 29.0894 25.5353C29.4807 25.1784 29.938 25 30.4614 25C30.6256 25 30.7971 25.0227 30.9758 25.0681C31.153 25.1119 31.3229 25.1792 31.4855 25.2701L45.599 34.3528C45.8986 34.5637 46.124 34.8054 46.2754 35.0779C46.4251 35.3487 46.5 35.6561 46.5 36C46.5 36.3439 46.4251 36.6513 46.2754 36.9221C46.1256 37.193 45.9002 37.4347 45.599 37.6472L31.4855 46.7299C31.3229 46.8191 31.1514 46.8865 30.971 46.9319C30.7907 46.9773 30.6192 47 30.4565 47C29.9316 47 29.4742 46.8216 29.0845 46.4647C28.6948 46.1079 28.5 45.6318 28.5 45.0365Z" fill="white"/>
</svg>
