<svg width="164" height="124" viewBox="0 0 164 124" fill="none" xmlns="http://www.w3.org/2000/svg">
<path d="M164 0L129.199 75.7053L126.154 55.2561C132.824 55.2561 138.769 56.8515 143.989 60.0421C149.21 63.2328 153.415 67.4386 156.605 72.6597C159.795 77.5906 161.39 83.2468 161.39 89.6281C161.39 96.0094 159.795 101.811 156.605 107.032C153.415 112.253 149.21 116.458 143.989 119.649C138.769 122.55 132.824 124 126.154 124C119.774 124 113.828 122.55 108.318 119.649C103.098 116.458 98.893 112.108 95.7029 106.597C92.5128 101.085 90.9178 94.9941 90.9178 88.3228C90.9178 81.6515 92.2228 74.6901 94.8329 67.4386C97.733 60.1871 102.808 50.7602 110.058 39.1579L133.549 0H164ZM73.0822 0L38.2812 75.7053L35.2361 55.2561C41.9063 55.2561 47.8515 56.8515 53.0716 60.0421C58.2918 63.2328 62.4969 67.4386 65.687 72.6597C68.8771 77.5906 70.4721 83.2468 70.4721 89.6281C70.4721 96.0094 68.8771 101.811 65.687 107.032C62.4969 112.253 58.2918 116.458 53.0716 119.649C47.8515 122.55 41.9063 124 35.2361 124C28.8559 124 22.9107 122.55 17.4005 119.649C12.1804 116.458 7.97524 112.108 4.78515 106.597C1.59505 101.085 0 94.9941 0 88.3228C0 81.6515 1.30504 74.6901 3.91512 67.4386C6.81521 60.1871 11.8904 50.7602 19.1406 39.1579L42.6313 0H73.0822Z" fill="#192939"/>
</svg>
