<svg display="none" xmlns="http://www.w3.org/2000/svg">

    <symbol id="vk-icon" viewBox="0 0 32 32">
        <g>
            <path fill-rule="evenodd" clip-rule="evenodd"
                d="M27.45 8.948C27.616 8.402 27.45 8 26.655 8H24.03C23.362 8 23.054 8.347 22.887 8.73C22.887 8.73 21.552 11.926 19.661 14.002C19.049 14.604 18.771 14.795 18.437 14.795C18.27 14.795 18.019 14.604 18.019 14.057V8.948C18.019 8.292 17.835 8 17.279 8H13.151C12.734 8 12.483 8.304 12.483 8.593C12.483 9.214 13.429 9.358 13.526 11.106V14.904C13.526 15.737 13.373 15.888 13.039 15.888C12.149 15.888 9.984 12.677 8.699 9.003C8.45 8.288 8.198 8 7.527 8H4.9C4.15 8 4 8.347 4 8.73C4 9.412 4.89 12.8 8.145 17.281C10.315 20.341 13.37 22 16.153 22C17.822 22 18.028 21.632 18.028 20.997V18.684C18.028 17.947 18.186 17.8 18.715 17.8C19.105 17.8 19.772 17.992 21.33 19.467C23.11 21.216 23.403 22 24.405 22H27.03C27.78 22 28.156 21.632 27.94 20.904C27.702 20.18 26.852 19.129 25.725 17.882C25.113 17.172 24.195 16.407 23.916 16.024C23.527 15.533 23.638 15.314 23.916 14.877C23.916 14.877 27.116 10.451 27.449 8.948" />
        </g>
    </symbol>


    <symbol id="viber-icon" viewBox="0 0 32 32">
        <path fill-rule="evenodd" clip-rule="evenodd"
            d="M22.2346 3.50406C18.0397 2.56635 13.6895 2.56635 9.49458 3.50406L9.04258 3.60406C7.86229 3.86717 6.77817 4.4527 5.91093 5.29545C5.0437 6.1382 4.42738 7.20511 4.13058 8.37739C3.0691 12.5677 3.0691 16.9565 4.13058 21.1467C4.41366 22.2647 4.98762 23.2878 5.79415 24.1122C6.60068 24.9365 7.61104 25.5327 8.72258 25.8401L9.34258 29.5414C9.36238 29.6589 9.41331 29.769 9.4901 29.8602C9.56688 29.9513 9.66669 30.0202 9.77915 30.0597C9.89161 30.0992 10.0126 30.1078 10.1295 30.0847C10.2464 30.0615 10.355 30.0074 10.4439 29.9281L14.0853 26.6707C16.8187 26.8357 19.5618 26.6172 22.2346 26.0214L22.6879 25.9214C23.8682 25.6583 24.9523 25.0728 25.8196 24.23C26.6868 23.3873 27.3031 22.3203 27.5999 21.1481C28.6614 16.9578 28.6614 12.569 27.5999 8.37873C27.303 7.20627 26.6865 6.13925 25.819 5.29648C24.9515 4.45371 23.8671 3.86828 22.6866 3.60539L22.2346 3.50406ZM10.6199 8.26939C10.3721 8.23311 10.1194 8.283 9.90392 8.41073H9.88525C9.38525 8.70406 8.93458 9.07339 8.55058 9.50806C8.23058 9.87739 8.05725 10.2507 8.01192 10.6107C7.98525 10.8241 8.00392 11.0401 8.06658 11.2441L8.09058 11.2574C8.45058 12.3147 8.91992 13.3321 9.49325 14.2894C10.2328 15.6338 11.1426 16.8774 12.1999 17.9894L12.2319 18.0347L12.2826 18.0721L12.3132 18.1081L12.3506 18.1401C13.4666 19.2005 14.713 20.1145 16.0599 20.8601C17.5999 21.6987 18.5346 22.0947 19.0959 22.2601V22.2681C19.2599 22.3187 19.4093 22.3414 19.5599 22.3414C20.0382 22.3071 20.491 22.1126 20.8453 21.7894C21.2786 21.4054 21.6453 20.9534 21.9306 20.4507V20.4414C22.1986 19.9347 22.1079 19.4574 21.7213 19.1334C20.9452 18.454 20.1053 17.8512 19.2133 17.3334C18.6159 17.0094 18.0093 17.2054 17.7639 17.5334L17.2399 18.1947C16.9706 18.5227 16.4826 18.4774 16.4826 18.4774L16.4693 18.4854C12.8279 17.5561 11.8559 13.8694 11.8559 13.8694C11.8559 13.8694 11.8106 13.3681 12.1479 13.1121L12.8039 12.5841C13.1186 12.3281 13.3373 11.7227 12.9999 11.1254C12.4834 10.234 11.8819 9.39451 11.2039 8.61873C11.0556 8.43656 10.8479 8.31242 10.6172 8.26806M16.7719 6.66673C16.5951 6.66673 16.4255 6.73697 16.3005 6.86199C16.1755 6.98701 16.1053 7.15658 16.1053 7.33339C16.1053 7.5102 16.1755 7.67977 16.3005 7.8048C16.4255 7.92982 16.5951 8.00006 16.7719 8.00006C18.4586 8.00006 19.8586 8.55073 20.9666 9.60673C21.5359 10.1841 21.9799 10.8681 22.2706 11.6174C22.5626 12.3681 22.6959 13.1694 22.6613 13.9721C22.6576 14.0596 22.6712 14.147 22.7013 14.2293C22.7314 14.3116 22.7774 14.3872 22.8367 14.4517C22.9565 14.5819 23.1231 14.6593 23.2999 14.6667C23.4767 14.6742 23.6492 14.611 23.7795 14.4913C23.9098 14.3715 23.9872 14.2049 23.9946 14.0281C24.0344 13.0408 23.8705 12.0559 23.5133 11.1347C23.1543 10.2088 22.6078 9.36721 21.9079 8.66273L21.8946 8.64939C20.5199 7.33606 18.7799 6.66673 16.7719 6.66673ZM16.7266 8.85873C16.5498 8.85873 16.3802 8.92897 16.2552 9.05399C16.1302 9.17901 16.0599 9.34858 16.0599 9.52539C16.0599 9.70221 16.1302 9.87177 16.2552 9.9968C16.3802 10.1218 16.5498 10.1921 16.7266 10.1921H16.7493C17.9653 10.2787 18.8506 10.6841 19.4706 11.3494C20.1066 12.0347 20.4359 12.8867 20.4106 13.9401C20.4065 14.1169 20.4729 14.2881 20.595 14.416C20.7172 14.5439 20.8851 14.618 21.0619 14.6221C21.2387 14.6261 21.4099 14.5598 21.5378 14.4376C21.6657 14.3155 21.7399 14.1475 21.7439 13.9707C21.7759 12.5881 21.3306 11.3947 20.4479 10.4427V10.4401C19.5453 9.47206 18.3066 8.96006 16.8159 8.86006L16.7933 8.85739L16.7266 8.85873ZM16.7013 11.0921C16.612 11.0842 16.5221 11.0944 16.4369 11.122C16.3518 11.1496 16.273 11.1942 16.2054 11.2529C16.1378 11.3117 16.0827 11.3834 16.0434 11.4639C16.0042 11.5444 15.9816 11.632 15.9769 11.7215C15.9722 11.8109 15.9856 11.9004 16.0163 11.9845C16.047 12.0687 16.0943 12.1458 16.1555 12.2112C16.2166 12.2767 16.2903 12.3291 16.3722 12.3655C16.454 12.4018 16.5424 12.4213 16.6319 12.4227C17.1893 12.4521 17.5453 12.6201 17.7693 12.8454C17.9946 13.0721 18.1626 13.4361 18.1933 14.0054C18.1949 14.0949 18.2146 14.1831 18.2511 14.2648C18.2875 14.3465 18.3401 14.42 18.4056 14.481C18.4711 14.542 18.5482 14.5891 18.6323 14.6196C18.7164 14.6502 18.8058 14.6635 18.8952 14.6587C18.9845 14.654 19.072 14.6313 19.1524 14.592C19.2328 14.5527 19.3045 14.4977 19.3631 14.4301C19.4218 14.3626 19.4663 14.2839 19.4939 14.1988C19.5215 14.1137 19.5317 14.0239 19.5239 13.9347C19.4813 13.1347 19.2306 12.4281 18.7173 11.9081C18.2013 11.3881 17.4986 11.1347 16.7013 11.0921Z" />
        <path fill-rule="evenodd" clip-rule="evenodd"
            d="M22.2346 3.50406C18.0397 2.56635 13.6895 2.56635 9.49458 3.50406L9.04258 3.60406C7.86229 3.86717 6.77817 4.4527 5.91093 5.29545C5.0437 6.1382 4.42738 7.20511 4.13058 8.37739C3.0691 12.5677 3.0691 16.9565 4.13058 21.1467C4.41366 22.2647 4.98762 23.2878 5.79415 24.1122C6.60068 24.9365 7.61104 25.5327 8.72258 25.8401L9.34258 29.5414C9.36238 29.6589 9.41331 29.769 9.4901 29.8602C9.56688 29.9513 9.66669 30.0202 9.77915 30.0597C9.89161 30.0992 10.0126 30.1078 10.1295 30.0847C10.2464 30.0615 10.355 30.0074 10.4439 29.9281L14.0853 26.6707C16.8187 26.8357 19.5618 26.6172 22.2346 26.0214L22.6879 25.9214C23.8682 25.6583 24.9523 25.0728 25.8196 24.23C26.6868 23.3873 27.3031 22.3203 27.5999 21.1481C28.6614 16.9578 28.6614 12.569 27.5999 8.37873C27.303 7.20627 26.6865 6.13925 25.819 5.29648C24.9515 4.45371 23.8671 3.86828 22.6866 3.60539L22.2346 3.50406ZM10.6199 8.26939C10.3721 8.23311 10.1194 8.283 9.90392 8.41073H9.88525C9.38525 8.70406 8.93458 9.07339 8.55058 9.50806C8.23058 9.87739 8.05725 10.2507 8.01192 10.6107C7.98525 10.8241 8.00392 11.0401 8.06658 11.2441L8.09058 11.2574C8.45058 12.3147 8.91992 13.3321 9.49325 14.2894C10.2328 15.6338 11.1426 16.8774 12.1999 17.9894L12.2319 18.0347L12.2826 18.0721L12.3132 18.1081L12.3506 18.1401C13.4666 19.2005 14.713 20.1145 16.0599 20.8601C17.5999 21.6987 18.5346 22.0947 19.0959 22.2601V22.2681C19.2599 22.3187 19.4093 22.3414 19.5599 22.3414C20.0382 22.3071 20.491 22.1126 20.8453 21.7894C21.2786 21.4054 21.6453 20.9534 21.9306 20.4507V20.4414C22.1986 19.9347 22.1079 19.4574 21.7213 19.1334C20.9452 18.454 20.1053 17.8512 19.2133 17.3334C18.6159 17.0094 18.0093 17.2054 17.7639 17.5334L17.2399 18.1947C16.9706 18.5227 16.4826 18.4774 16.4826 18.4774L16.4693 18.4854C12.8279 17.5561 11.8559 13.8694 11.8559 13.8694C11.8559 13.8694 11.8106 13.3681 12.1479 13.1121L12.8039 12.5841C13.1186 12.3281 13.3373 11.7227 12.9999 11.1254C12.4834 10.234 11.8819 9.39451 11.2039 8.61873C11.0556 8.43656 10.8479 8.31242 10.6172 8.26806M16.7719 6.66673C16.5951 6.66673 16.4255 6.73697 16.3005 6.86199C16.1755 6.98701 16.1053 7.15658 16.1053 7.33339C16.1053 7.5102 16.1755 7.67977 16.3005 7.8048C16.4255 7.92982 16.5951 8.00006 16.7719 8.00006C18.4586 8.00006 19.8586 8.55073 20.9666 9.60673C21.5359 10.1841 21.9799 10.8681 22.2706 11.6174C22.5626 12.3681 22.6959 13.1694 22.6613 13.9721C22.6576 14.0596 22.6712 14.147 22.7013 14.2293C22.7314 14.3116 22.7774 14.3872 22.8367 14.4517C22.9565 14.5819 23.1231 14.6593 23.2999 14.6667C23.4767 14.6742 23.6492 14.611 23.7795 14.4913C23.9098 14.3715 23.9872 14.2049 23.9946 14.0281C24.0344 13.0408 23.8705 12.0559 23.5133 11.1347C23.1543 10.2088 22.6078 9.36721 21.9079 8.66273L21.8946 8.64939C20.5199 7.33606 18.7799 6.66673 16.7719 6.66673ZM16.7266 8.85873C16.5498 8.85873 16.3802 8.92897 16.2552 9.05399C16.1302 9.17901 16.0599 9.34858 16.0599 9.52539C16.0599 9.70221 16.1302 9.87177 16.2552 9.9968C16.3802 10.1218 16.5498 10.1921 16.7266 10.1921H16.7493C17.9653 10.2787 18.8506 10.6841 19.4706 11.3494C20.1066 12.0347 20.4359 12.8867 20.4106 13.9401C20.4065 14.1169 20.4729 14.2881 20.595 14.416C20.7172 14.5439 20.8851 14.618 21.0619 14.6221C21.2387 14.6261 21.4099 14.5598 21.5378 14.4376C21.6657 14.3155 21.7399 14.1475 21.7439 13.9707C21.7759 12.5881 21.3306 11.3947 20.4479 10.4427V10.4401C19.5453 9.47206 18.3066 8.96006 16.8159 8.86006L16.7933 8.85739L16.7266 8.85873ZM16.7013 11.0921C16.612 11.0842 16.5221 11.0944 16.4369 11.122C16.3518 11.1496 16.273 11.1942 16.2054 11.2529C16.1378 11.3117 16.0827 11.3834 16.0434 11.4639C16.0042 11.5444 15.9816 11.632 15.9769 11.7215C15.9722 11.8109 15.9856 11.9004 16.0163 11.9845C16.047 12.0687 16.0943 12.1458 16.1555 12.2112C16.2166 12.2767 16.2903 12.3291 16.3722 12.3655C16.454 12.4018 16.5424 12.4213 16.6319 12.4227C17.1893 12.4521 17.5453 12.6201 17.7693 12.8454C17.9946 13.0721 18.1626 13.4361 18.1933 14.0054C18.1949 14.0949 18.2146 14.1831 18.2511 14.2648C18.2875 14.3465 18.3401 14.42 18.4056 14.481C18.4711 14.542 18.5482 14.5891 18.6323 14.6196C18.7164 14.6502 18.8058 14.6635 18.8952 14.6587C18.9845 14.654 19.072 14.6313 19.1524 14.592C19.2328 14.5527 19.3045 14.4977 19.3631 14.4301C19.4218 14.3626 19.4663 14.2839 19.4939 14.1988C19.5215 14.1137 19.5317 14.0239 19.5239 13.9347C19.4813 13.1347 19.2306 12.4281 18.7173 11.9081C18.2013 11.3881 17.4986 11.1347 16.7013 11.0921Z" />
    </symbol>

    <symbol id="telegram-icon" viewBox="0 0 32 32">
        <g>
            <path
                d="M29.2476 6.89335L25.2076 25.8067C24.9062 27.1387 24.1329 27.4387 23.0156 26.8374L16.9556 22.368L13.9889 25.204C13.6889 25.5054 13.3876 25.8067 12.6996 25.8067L13.1729 19.5734L24.4769 9.30135C24.9489 8.82802 24.3476 8.65602 23.7462 9.04402L9.69156 17.8974L3.63022 16.0494C2.29822 15.62 2.29822 14.716 3.93156 14.116L27.4849 4.96002C28.6449 4.61602 29.6342 5.21868 29.2476 6.89335Z"/>
        </g>
    </symbol>

    <symbol id="whatsapp-icon" viewBox="0 0 32 32">
        <path
            d="M16.0013 2.66699C23.3653 2.66699 29.3347 8.63633 29.3347 16.0003C29.3347 23.3643 23.3653 29.3337 16.0013 29.3337C13.645 29.3377 11.3301 28.7141 9.29466 27.527L2.67332 29.3337L4.47599 22.7097C3.28793 20.6736 2.66386 18.3577 2.66799 16.0003C2.66799 8.63633 8.63732 2.66699 16.0013 2.66699ZM11.4573 9.73366L11.1907 9.74433C11.0182 9.75621 10.8498 9.80149 10.6947 9.87766C10.5501 9.95967 10.4181 10.0621 10.3027 10.1817C10.1427 10.3323 10.052 10.463 9.95466 10.5897C9.46148 11.2309 9.19595 12.0181 9.19999 12.827C9.20266 13.4803 9.37332 14.1163 9.63999 14.711C10.1853 15.9137 11.0827 17.187 12.2667 18.367C12.552 18.651 12.832 18.9363 13.1333 19.2017C14.6046 20.4969 16.3577 21.431 18.2533 21.9297L19.0107 22.0457C19.2573 22.059 19.504 22.0403 19.752 22.0283C20.1402 22.0079 20.5193 21.9027 20.8627 21.7203C21.0371 21.6301 21.2075 21.5322 21.3733 21.427C21.3733 21.427 21.4298 21.3888 21.54 21.307C21.72 21.1737 21.8307 21.079 21.98 20.923C22.092 20.8074 22.1853 20.6732 22.26 20.5203C22.364 20.303 22.468 19.8883 22.5107 19.543C22.5427 19.279 22.5333 19.135 22.5293 19.0457C22.524 18.903 22.4053 18.755 22.276 18.6923L21.5 18.3443C21.5 18.3443 20.34 17.839 19.6307 17.5163C19.5564 17.484 19.4769 17.4655 19.396 17.4617C19.3048 17.4521 19.2125 17.4623 19.1256 17.4915C19.0386 17.5207 18.959 17.5683 18.892 17.631C18.8853 17.6283 18.796 17.7043 17.832 18.8723C17.7767 18.9467 17.7004 19.0029 17.6131 19.0337C17.5257 19.0646 17.4311 19.0688 17.3413 19.0457C17.2544 19.0225 17.1693 18.9931 17.0867 18.9577C16.9213 18.8883 16.864 18.8617 16.7507 18.8137C15.9852 18.4802 15.2766 18.029 14.6507 17.4763C14.4827 17.3297 14.3267 17.1697 14.1667 17.015C13.6421 16.5126 13.185 15.9443 12.8067 15.3243L12.728 15.1977C12.6723 15.1121 12.6267 15.0203 12.592 14.9243C12.5413 14.7283 12.6733 14.571 12.6733 14.571C12.6733 14.571 12.9973 14.2163 13.148 14.0243C13.2947 13.8377 13.4187 13.6563 13.4987 13.527C13.656 13.2737 13.7053 13.0137 13.6227 12.8123C13.2493 11.9003 12.8635 10.9932 12.4653 10.091C12.3867 9.91233 12.1533 9.78433 11.9413 9.75899C11.8693 9.7501 11.7973 9.74299 11.7253 9.73766C11.5463 9.72739 11.3668 9.72917 11.188 9.74299L11.4573 9.73366Z" />
    </symbol>

    <symbol id="plus-icon" viewBox="0 0 32 32">
        <path d="M15.3333 16.6667H8V15.3333H15.3333V8H16.6667V15.3333H24V16.6667H16.6667V24H15.3333V16.6667Z" />
    </symbol>

    <symbol id="plus-icon2" viewBox="0 0 32 32">
        <path d="M15.3333 16.6667H8V15.3333H15.3333V8H16.6667V15.3333H24V16.6667H16.6667V24H15.3333V16.6667Z" />
    </symbol>


    <symbol id="basket-icon" viewBox="0 0 28 28">
        <path
            d="M8.52592 24.6353C8.03359 24.6353 7.61864 24.4666 7.28109 24.129C6.94353 23.7914 6.77514 23.3769 6.77592 22.8853C6.7767 22.3938 6.94509 21.9788 7.28109 21.6405C7.61864 21.3037 8.03359 21.1353 8.52592 21.1353C9.01825 21.1353 9.43281 21.3037 9.76958 21.6405C10.1064 21.9773 10.2751 22.3922 10.2759 22.8853C10.2767 23.3784 10.1079 23.793 9.76958 24.129C9.43125 24.465 9.0167 24.6338 8.52592 24.6353ZM19.4739 24.6353C18.9824 24.6353 18.5678 24.4666 18.2303 24.129C17.8927 23.7914 17.7239 23.3769 17.7239 22.8853C17.7239 22.3938 17.8927 21.9788 18.2303 21.6405C18.5678 21.3037 18.9824 21.1353 19.4739 21.1353C19.9655 21.1353 20.3804 21.3037 20.7188 21.6405C21.0555 21.9781 21.2239 22.393 21.2239 22.8853C21.2239 23.3769 21.0555 23.7914 20.7188 24.129C20.3812 24.4666 19.9663 24.6353 19.4739 24.6353ZM6.86109 6.41667L9.97492 12.9687H18.1416L21.7314 6.41667H6.86109ZM6.29059 5.25H23.7008L18.8393 14.1353H9.44992L7.53775 17.6353H21.2239V18.802H5.53109L8.73242 13.0853L4.44259 4.08333H2.33325V2.91667H5.18225L6.29059 5.25Z" />
    </symbol>

    <symbol id="favorite-icon" viewBox="0 0 28 28">
        <g>
            <path fill-rule="evenodd" clip-rule="evenodd"
                d="M3.5 10.3834C3.49923 11.1596 3.64234 11.93 3.92934 12.6945C4.21634 13.4591 4.72034 14.3146 5.44134 15.2612C6.16234 16.2077 7.14545 17.3005 8.39067 18.5395C9.63667 19.7777 11.2117 21.2664 13.1157 23.0055L14 23.8047L14.8832 23.0055C16.8027 21.2664 18.3816 19.7777 19.6198 18.5395C20.8581 17.3005 21.8377 16.2081 22.5587 15.2624C23.2797 14.3166 23.7837 13.4603 24.0707 12.6934C24.3569 11.928 24.5 11.158 24.5 10.3834C24.5 8.89936 23.996 7.65336 22.988 6.64536C21.98 5.63736 20.734 5.13336 19.25 5.13336C18.2233 5.13336 17.2608 5.39586 16.3625 5.92086C15.7462 6.28103 15.1821 6.75357 14.6701 7.3385C14.4358 7.60619 14.2125 7.89742 14 8.21219C13.7876 7.89742 13.5642 7.60619 13.3299 7.3385C12.8179 6.75357 12.2538 6.28103 11.6375 5.92086C10.7392 5.39586 9.77667 5.13336 8.75 5.13336C7.266 5.13336 6.02 5.63736 5.012 6.64536C4.004 7.65336 3.5 8.89936 3.5 10.3834ZM18.8774 17.7971C18.8773 17.7971 18.8772 17.7972 18.8771 17.7973C17.6554 19.019 16.0903 20.4951 14.1782 22.2274L13.9995 22.389L13.8238 22.2303C13.8231 22.2297 13.8225 22.2291 13.8218 22.2285C11.9253 20.4962 10.3627 19.019 9.13127 17.7952C7.90566 16.5757 6.95843 15.5201 6.27662 14.625C5.59201 13.7262 5.15107 12.9614 4.91236 12.3255C4.66743 11.673 4.54936 11.0278 4.55 10.3844V10.3834C4.55 9.1651 4.95221 8.19008 5.75447 7.38782C6.55672 6.58557 7.53174 6.18336 8.75 6.18336C9.58786 6.18336 10.3679 6.39502 11.1077 6.8274C11.8496 7.26098 12.5269 7.90648 13.1297 8.79961L14 10.0891L14.8703 8.79961C15.4731 7.90648 16.1504 7.26098 16.8923 6.8274C17.6322 6.39502 18.4121 6.18336 19.25 6.18336C20.4683 6.18336 21.4433 6.58557 22.2455 7.38782C23.0478 8.19008 23.45 9.1651 23.45 10.3834C23.45 11.0256 23.3319 11.6712 23.0873 12.3253C22.8486 12.9632 22.4078 13.7283 21.7236 14.6258C21.0409 15.5213 20.0963 16.5774 18.8774 17.7971Z" />
        </g>
    </symbol>

    <symbol id="favorite-icon2" viewBox="0 0 32 32">
        <g>
            <path
                d="M16 27.2054L14.9893 26.292C12.8133 24.3045 11.0133 22.6031 9.58934 21.188C8.16623 19.772 7.04267 18.5231 6.21867 17.4414C5.39467 16.3596 4.81867 15.3818 4.49067 14.508C4.16267 13.6343 3.99911 12.7538 4 11.8667C4 10.1707 4.576 8.7467 5.728 7.5947C6.88 6.4427 8.304 5.8667 10 5.8667C11.1733 5.8667 12.2733 6.1667 13.3 6.7667C14.3267 7.3667 15.2267 8.23959 16 9.38537C16.7733 8.23959 17.6733 7.3667 18.7 6.7667C19.7267 6.1667 20.8267 5.8667 22 5.8667C23.696 5.8667 25.12 6.4427 26.272 7.5947C27.424 8.7467 28 10.1707 28 11.8667C28 12.752 27.8364 13.632 27.5093 14.5067C27.1813 15.3831 26.6053 16.3618 25.7813 17.4427C24.9573 18.5236 23.8378 19.772 22.4227 21.188C21.0076 22.6031 19.2031 24.3045 17.0093 26.292L16 27.2054Z" />
        </g>
    </symbol>


    <symbol id="comparison-icon" viewBox="0 0 28 28">
        <path
            d="M12.8334 25.935V23.3333H4.66675V4.66667H12.8334V2.065H14.0001V25.935H12.8334ZM5.83341 22.1667H12.8334V18.6667H8.75008V17.5H12.8334V14.5833H8.75008V13.4167H12.8334V10.5H8.75008V9.33333H12.8334V5.83333H5.83341V22.1667ZM16.5574 5.83333V4.66667H23.5574V23.3333H16.5574V22.1667H22.3907V5.83333H16.5574ZM16.5574 14.5833V13.4167H20.6407V14.5833H16.5574ZM16.5574 10.5V9.33333H20.6407V10.5H16.5574Z" />
    </symbol>

    <symbol id="search-icon" viewBox="0 0 16 16">
        <path
            d="M14 14L11.1 11.1M12.6667 7.33333C12.6667 10.2789 10.2789 12.6667 7.33333 12.6667C4.38781 12.6667 2 10.2789 2 7.33333C2 4.38781 4.38781 2 7.33333 2C10.2789 2 12.6667 4.38781 12.6667 7.33333Z"
            stroke-opacity="0.4" stroke-width="1.6" stroke-linecap="round" stroke-linejoin="round" />
    </symbol>

    <symbol id="arrow-diagonal" viewBox="0 0 46 46">
        <g>
            <path
                d="M28.2544 18.6885L17.3432 29.5996C17.2094 29.7335 17.0522 29.8008 16.8718 29.8014C16.6914 29.802 16.5343 29.7348 16.4004 29.5996C16.2665 29.4645 16.1993 29.3074 16.1987 29.1282C16.198 28.9491 16.2653 28.792 16.4004 28.6568L27.3116 17.7457L20.2697 17.7466C20.0856 17.746 19.9294 17.6854 19.8011 17.5647C19.6729 17.444 19.6066 17.2821 19.6022 17.0791C19.6022 16.8705 19.6616 16.7055 19.7804 16.5842C19.8992 16.4628 20.0623 16.4016 20.2697 16.4003L28.5344 16.4003C28.6978 16.4003 28.8392 16.4267 28.9586 16.4795C29.0781 16.5323 29.1884 16.6093 29.2896 16.7105C29.3908 16.8117 29.4678 16.922 29.5206 17.0414C29.5734 17.1608 29.6001 17.3026 29.6007 17.4666L29.5998 25.7303C29.5998 25.9139 29.5388 26.071 29.4168 26.2017C29.2949 26.3325 29.1296 26.3979 28.9209 26.3979C28.7167 26.3947 28.5545 26.3344 28.4344 26.2168C28.3144 26.0993 28.254 25.9371 28.2534 25.7303L28.2544 18.6885Z" />
        </g>
    </symbol>

    <symbol id="arrow-right" viewBox="0 0 32 32">
        <g>
            <path
                d="M22.7641 16.6666H7.33342C7.14409 16.6666 6.98542 16.603 6.85742 16.4759C6.72942 16.3488 6.66587 16.1901 6.66676 15.9999C6.66765 15.8097 6.7312 15.651 6.85742 15.5239C6.98365 15.3968 7.14231 15.3332 7.33342 15.3332H22.7641L17.7841 10.3546C17.6543 10.2239 17.5868 10.0706 17.5814 9.89456C17.5761 9.71856 17.6436 9.55722 17.7841 9.41056C17.9316 9.263 18.0903 9.18833 18.2601 9.18656C18.4299 9.18478 18.5885 9.25678 18.7361 9.40256L24.5801 15.2466C24.6956 15.3621 24.777 15.4808 24.8241 15.6026C24.8712 15.7243 24.8948 15.8568 24.8948 15.9999C24.8948 16.143 24.8712 16.2754 24.8241 16.3972C24.777 16.519 24.6956 16.6381 24.5801 16.7546L18.7361 22.5972C18.6063 22.727 18.4521 22.795 18.2734 22.8012C18.0948 22.8074 17.9316 22.7368 17.7841 22.5892C17.6419 22.4426 17.5699 22.2852 17.5681 22.1172C17.5663 21.9492 17.6383 21.7919 17.7841 21.6452L22.7641 16.6666Z" />
        </g>
    </symbol>

    <symbol id="arrow-left" viewBox="0 0 32 32">
        <g>
            <path
                d="M8.69726 16.6666L13.6773 21.6466C13.807 21.7764 13.875 21.9293 13.8813 22.1053C13.8866 22.2813 13.8186 22.4426 13.6773 22.5893C13.5297 22.7368 13.371 22.8115 13.2013 22.8133C13.0315 22.8151 12.8728 22.7431 12.7253 22.5973L6.88259 16.7533C6.66659 16.5382 6.55859 16.2871 6.55859 16C6.55859 15.7128 6.66659 15.4613 6.88259 15.2453L12.7253 9.40262C12.8559 9.27284 13.0101 9.20484 13.1879 9.19862C13.3666 9.1924 13.5297 9.26306 13.6773 9.41062C13.8195 9.55729 13.8915 9.71417 13.8933 9.88129C13.8959 10.0493 13.8239 10.2066 13.6773 10.3533L8.69726 15.3333H25.2039C25.3941 15.3333 25.5533 15.3968 25.6813 15.524C25.8093 15.6511 25.8728 15.8097 25.8719 16C25.871 16.1902 25.8075 16.3488 25.6813 16.476C25.555 16.6031 25.3964 16.6666 25.2053 16.6666H8.69726Z" />
        </g>
    </symbol>


    <symbol id="arrow-bottom" viewBox="0 0 24 24">
        <g>
            <path
                d="M12.0001 14.379C11.8928 14.379 11.7934 14.3613 11.7021 14.326C11.6108 14.2907 11.5218 14.2293 11.4351 14.142L7.0461 9.75399C6.95276 9.66065 6.90276 9.54599 6.8961 9.40999C6.88943 9.27399 6.93943 9.15265 7.0461 9.04599C7.15276 8.93932 7.27076 8.88599 7.4001 8.88599C7.52943 8.88599 7.64743 8.93932 7.7541 9.04599L12.0001 13.292L16.2461 9.04599C16.3394 8.95265 16.4544 8.90265 16.5911 8.89599C16.7264 8.88932 16.8474 8.93932 16.9541 9.04599C17.0608 9.15265 17.1141 9.27065 17.1141 9.39999C17.1141 9.52932 17.0608 9.64732 16.9541 9.75399L12.5651 14.142C12.4784 14.2293 12.3894 14.2907 12.2981 14.326C12.2074 14.3613 12.1081 14.379 12.0001 14.379Z" />
        </g>
    </symbol>

    <symbol id="star-icon" viewBox="0 0 16 16">
        <path
            d="M5.41664 4.72817L7.99998 1.2915L10.5833 4.72817L14.676 6.10817L12.0486 9.6655L12.1526 13.7028L7.99998 12.4888L3.84731 13.7022L3.95131 9.64884L1.34131 6.1075L5.41664 4.72817Z" />
    </symbol>

    <symbol id="star-icon0" viewBox="0 0 16 16">
        <path
            d="M5.41664 4.72817L7.99998 1.2915L10.5833 4.72817L14.676 6.10817L12.0486 9.6655L12.1526 13.7028L7.99998 12.4888L3.84731 13.7022L3.95131 9.64884L1.34131 6.1075L5.41664 4.72817ZM5.83598 5.3015L2.43598 6.45817L4.63064 9.45417L4.53864 12.7915L7.99998 11.7982L11.4613 12.8208L11.3693 9.45417L13.564 6.4915L10.164 5.3015L7.99998 2.41084L5.83598 5.3015Z" />
    </symbol>

    <symbol id="chat-icon" viewBox="0 0 16 16">
        <path
            d="M4.33333 9H11.6667V8.33333H4.33333V9ZM4.33333 7H11.6667V6.33333H4.33333V7ZM4.33333 5H11.6667V4.33333H4.33333V5ZM2 11.3333V2H14V13.3847L11.9487 11.3333H2Z" />
    </symbol>

    <symbol id="burger-icon" viewBox="0 0 32 32">
        <path
            d="M5.33325 23.0267V21.6933H26.6666V23.0267H5.33325ZM5.33325 16.6667V15.3333H26.6666V16.6667H5.33325ZM5.33325 10.3067V8.97334H26.6666V10.3067H5.33325Z" />
    </symbol>
    <symbol id="close-icon" viewBox="0 0 32 32">
        <path
            d="M9.20132 23.7773L8.22266 22.808L15.0213 16L8.22266 9.22667L9.20132 8.256L16 15.0533L22.7653 8.25733L23.744 9.22667L16.9453 16L23.744 22.808L22.7653 23.7773L16 16.9827L9.20132 23.7773Z" />
    </symbol>

    <symbol id="reverse-icon" viewBox="0 0 32 32">
        <g>
            <path
                d="M16.4395 10.873L15.5605 11.752L12.2598 8.46094L12.25 26H11L11.0098 8.43164L7.68945 11.752L6.81055 10.873L11.625 6.05859L16.4395 10.873ZM24.3203 20.248L25.209 21.127L20.3945 25.9414L15.5703 21.127L16.459 20.248L19.7598 23.5488L19.75 6H21L21.0098 23.5586L24.3203 20.248Z" />
        </g>
    </symbol>

    <symbol id="phone-icon" viewBox="0 0 32 32">
        <g>
            <path
                d="M25.4366 15.2827C25.2829 12.7671 24.326 10.6298 22.566 8.87067C20.806 7.11156 18.6691 6.15467 16.1553 6V4.66667C17.5998 4.73511 18.9509 5.056 20.2086 5.62933C21.4682 6.20267 22.5726 6.964 23.522 7.91333C24.4713 8.86267 25.2331 9.96711 25.8073 11.2267C26.3806 12.4853 26.7015 13.8369 26.77 15.2813L25.4366 15.2827ZM20.1033 15.2827C19.9495 14.2569 19.5095 13.3764 18.7833 12.6413C18.0571 11.9062 17.1811 11.4702 16.1553 11.3333V10C17.5553 10.1369 18.7469 10.7013 19.73 11.6933C20.7131 12.6853 21.282 13.8818 21.4366 15.2827H20.1033ZM25.6006 26.6667C23.1989 26.6667 20.7909 26.1138 18.3766 25.008C15.9624 23.9022 13.738 22.332 11.7033 20.2973C9.68554 18.2627 8.11976 16.0311 7.00598 13.6027C5.89132 11.1733 5.33398 8.77245 5.33398 6.4V5.33333H11.2526L12.3833 10.7773L8.78865 14.124C9.39665 15.1782 10.0264 16.1413 10.678 17.0133C11.3295 17.8853 12.0082 18.6716 12.714 19.372C13.4269 20.1187 14.2304 20.8164 15.1246 21.4653C16.0189 22.1142 17.0393 22.7542 18.186 23.3853L21.6673 19.7747L26.6673 20.7827V26.6667H25.6006ZM8.16198 12.872L10.9513 10.312L10.1806 6.66667H6.67398C6.70065 7.68356 6.83798 8.708 7.08598 9.74C7.33309 10.7711 7.69176 11.8151 8.16198 12.872ZM19.4286 23.9853C20.2491 24.3969 21.178 24.7182 22.2153 24.9493C23.2526 25.1804 24.2922 25.3036 25.334 25.3187V21.8453L22.15 21.212L19.4286 23.9853Z" />
        </g>
    </symbol>

    <symbol id="filter-icon" viewBox="0 0 32 32">
        <g>
            <path
                d="M14.0775 22.6667V21.3333H17.8975V22.6667H14.0775ZM9.0775 16.6667V15.3333H22.8975V16.6667H9.0775ZM5.3335 10.6667V9.33334H26.6668V10.6667H5.3335Z" />
        </g>
    </symbol>

</svg>